solid OpenSCAD_Model
  facet normal -1 0 0
    outer loop
      vertex 0 0 -3.5
      vertex 0 0 40
      vertex 0 5 -3.5
    endloop
  endfacet
  facet normal -1 0 0
    outer loop
      vertex 0 5 0
      vertex 0 0 40
      vertex 0 219 40
    endloop
  endfacet
  facet normal -1 0 0
    outer loop
      vertex 0 5 -3.5
      vertex 0 0 40
      vertex 0 5 0
    endloop
  endfacet
  facet normal -1 0 0
    outer loop
      vertex 0 5 0
      vertex 0 219 40
      vertex 0 219 0
    endloop
  endfacet
  facet normal 0 -1 0
    outer loop
      vertex 0 0 40
      vertex 0 0 -3.5
      vertex 5 0 -3.5
    endloop
  endfacet
  facet normal 0 -1 0
    outer loop
      vertex 119 0 0
      vertex 0 0 40
      vertex 5 0 0
    endloop
  endfacet
  facet normal 0 -1 0
    outer loop
      vertex 5 0 0
      vertex 0 0 40
      vertex 5 0 -3.5
    endloop
  endfacet
  facet normal 0 -1 0
    outer loop
      vertex 119 0 40
      vertex 0 0 40
      vertex 119 0 0
    endloop
  endfacet
  facet normal 0 0 -1
    outer loop
      vertex 0 0 -3.5
      vertex 0 5 -3.5
      vertex 5 0 -3.5
    endloop
  endfacet
  facet normal 0 0 -1
    outer loop
      vertex 5 0 -3.5
      vertex 0 5 -3.5
      vertex 0.313953 4.99013 -3.5
    endloop
  endfacet
  facet normal 0 0 -1
    outer loop
      vertex 5 0 -3.5
      vertex 0.313953 4.99013 -3.5
      vertex 0.626666 4.96057 -3.5
    endloop
  endfacet
  facet normal 0 0 -1
    outer loop
      vertex 5 0 -3.5
      vertex 0.626666 4.96057 -3.5
      vertex 0.936907 4.91144 -3.5
    endloop
  endfacet
  facet normal 0 0 -1
    outer loop
      vertex 5 0 -3.5
      vertex 0.936907 4.91144 -3.5
      vertex 1.24345 4.84292 -3.5
    endloop
  endfacet
  facet normal 0 0 -1
    outer loop
      vertex 5 0 -3.5
      vertex 1.24345 4.84292 -3.5
      vertex 1.54508 4.75528 -3.5
    endloop
  endfacet
  facet normal 0 0 -1
    outer loop
      vertex 5 0 -3.5
      vertex 1.54508 4.75528 -3.5
      vertex 1.84062 4.64888 -3.5
    endloop
  endfacet
  facet normal 0 0 -1
    outer loop
      vertex 5 0 -3.5
      vertex 1.84062 4.64888 -3.5
      vertex 2.1289 4.52413 -3.5
    endloop
  endfacet
  facet normal 0 0 -1
    outer loop
      vertex 5 0 -3.5
      vertex 2.1289 4.52413 -3.5
      vertex 2.40877 4.38153 -3.5
    endloop
  endfacet
  facet normal 0 0 -1
    outer loop
      vertex 5 0 -3.5
      vertex 2.40877 4.38153 -3.5
      vertex 2.67913 4.22164 -3.5
    endloop
  endfacet
  facet normal 0 0 -1
    outer loop
      vertex 5 0 -3.5
      vertex 2.67913 4.22164 -3.5
      vertex 2.93893 4.04508 -3.5
    endloop
  endfacet
  facet normal 0 0 -1
    outer loop
      vertex 5 0 -3.5
      vertex 2.93893 4.04508 -3.5
      vertex 3.18712 3.85257 -3.5
    endloop
  endfacet
  facet normal 0 0 -1
    outer loop
      vertex 5 0 -3.5
      vertex 3.18712 3.85257 -3.5
      vertex 3.42274 3.64484 -3.5
    endloop
  endfacet
  facet normal 0 0 -1
    outer loop
      vertex 5 0 -3.5
      vertex 3.42274 3.64484 -3.5
      vertex 3.64484 3.42274 -3.5
    endloop
  endfacet
  facet normal 0 0 -1
    outer loop
      vertex 5 0 -3.5
      vertex 3.64484 3.42274 -3.5
      vertex 3.85257 3.18712 -3.5
    endloop
  endfacet
  facet normal 0 0 -1
    outer loop
      vertex 5 0 -3.5
      vertex 3.85257 3.18712 -3.5
      vertex 4.04508 2.93893 -3.5
    endloop
  endfacet
  facet normal 0 0 -1
    outer loop
      vertex 5 0 -3.5
      vertex 4.04508 2.93893 -3.5
      vertex 4.22164 2.67913 -3.5
    endloop
  endfacet
  facet normal 0 0 -1
    outer loop
      vertex 5 0 -3.5
      vertex 4.22164 2.67913 -3.5
      vertex 4.38153 2.40877 -3.5
    endloop
  endfacet
  facet normal 0 0 -1
    outer loop
      vertex 5 0 -3.5
      vertex 4.38153 2.40877 -3.5
      vertex 4.52413 2.1289 -3.5
    endloop
  endfacet
  facet normal 0 0 -1
    outer loop
      vertex 5 0 -3.5
      vertex 4.52413 2.1289 -3.5
      vertex 4.64888 1.84062 -3.5
    endloop
  endfacet
  facet normal 0 0 -1
    outer loop
      vertex 5 0 -3.5
      vertex 4.64888 1.84062 -3.5
      vertex 4.75528 1.54508 -3.5
    endloop
  endfacet
  facet normal 0 0 -1
    outer loop
      vertex 5 0 -3.5
      vertex 4.75528 1.54508 -3.5
      vertex 4.84292 1.24345 -3.5
    endloop
  endfacet
  facet normal 0 0 -1
    outer loop
      vertex 5 0 -3.5
      vertex 4.84292 1.24345 -3.5
      vertex 4.91144 0.936907 -3.5
    endloop
  endfacet
  facet normal 0 0 -1
    outer loop
      vertex 5 0 -3.5
      vertex 4.91144 0.936907 -3.5
      vertex 4.96057 0.626666 -3.5
    endloop
  endfacet
  facet normal 0 0 -1
    outer loop
      vertex 5 0 -3.5
      vertex 4.96057 0.626666 -3.5
      vertex 4.99013 0.313953 -3.5
    endloop
  endfacet
  facet normal 0.0314096 0.999507 0
    outer loop
      vertex 0 5 -3.5
      vertex 0 5 0
      vertex 0.313953 4.99013 -3.5
    endloop
  endfacet
  facet normal 0.0314096 0.999507 0
    outer loop
      vertex 0.313953 4.99013 -3.5
      vertex 0 5 0
      vertex 0.313953 4.99013 0
    endloop
  endfacet
  facet normal 0 0 -1
    outer loop
      vertex 0 5 0
      vertex 1.11022e-15 214 0
      vertex 0.313953 4.99013 0
    endloop
  endfacet
  facet normal 0 0 -1
    outer loop
      vertex 0 5 0
      vertex 0 219 0
      vertex 1.11022e-15 214 0
    endloop
  endfacet
  facet normal 0 0 -1
    outer loop
      vertex 0.313953 4.99013 0
      vertex 0.313953 214.01 0
      vertex 0.626666 214.039 0
    endloop
  endfacet
  facet normal 0 0 -1
    outer loop
      vertex 0.626666 214.039 0
      vertex 0.936907 214.089 0
      vertex 0.313953 4.99013 0
    endloop
  endfacet
  facet normal 0 0 -1
    outer loop
      vertex 0.936907 214.089 0
      vertex 1.24345 214.157 0
      vertex 0.313953 4.99013 0
    endloop
  endfacet
  facet normal 0 0 -1
    outer loop
      vertex 1.24345 214.157 0
      vertex 1.54509 214.245 0
      vertex 0.313953 4.99013 0
    endloop
  endfacet
  facet normal 0 0 -1
    outer loop
      vertex 1.54509 214.245 0
      vertex 1.84062 214.351 0
      vertex 0.313953 4.99013 0
    endloop
  endfacet
  facet normal 0 0 -1
    outer loop
      vertex 1.84062 214.351 0
      vertex 2.1289 214.476 0
      vertex 0.313953 4.99013 0
    endloop
  endfacet
  facet normal 0 0 -1
    outer loop
      vertex 2.1289 214.476 0
      vertex 2.40877 214.618 0
      vertex 0.313953 4.99013 0
    endloop
  endfacet
  facet normal 0 0 -1
    outer loop
      vertex 2.40877 214.618 0
      vertex 2.67913 214.778 0
      vertex 0.313953 4.99013 0
    endloop
  endfacet
  facet normal 0 0 -1
    outer loop
      vertex 2.67913 214.778 0
      vertex 2.93893 214.955 0
      vertex 0.313953 4.99013 0
    endloop
  endfacet
  facet normal 0 0 -1
    outer loop
      vertex 2.93893 214.955 0
      vertex 3.18712 215.147 0
      vertex 0.313953 4.99013 0
    endloop
  endfacet
  facet normal 0 0 -1
    outer loop
      vertex 3.18712 215.147 0
      vertex 3.42274 215.355 0
      vertex 0.313953 4.99013 0
    endloop
  endfacet
  facet normal 0 0 -1
    outer loop
      vertex 3.42274 215.355 0
      vertex 3.64484 215.577 0
      vertex 0.313953 4.99013 0
    endloop
  endfacet
  facet normal 0 0 -1
    outer loop
      vertex 3.64484 215.577 0
      vertex 3.85257 215.813 0
      vertex 0.313953 4.99013 0
    endloop
  endfacet
  facet normal 0 0 -1
    outer loop
      vertex 3.85257 215.813 0
      vertex 4.04508 216.061 0
      vertex 0.313953 4.99013 0
    endloop
  endfacet
  facet normal 0 0 -1
    outer loop
      vertex 4.04508 216.061 0
      vertex 4.22164 216.321 0
      vertex 0.313953 4.99013 0
    endloop
  endfacet
  facet normal 0 0 -1
    outer loop
      vertex 4.22164 216.321 0
      vertex 4.38153 216.591 0
      vertex 0.313953 4.99013 0
    endloop
  endfacet
  facet normal 0 0 -1
    outer loop
      vertex 4.38153 216.591 0
      vertex 4.52413 216.871 0
      vertex 0.313953 4.99013 0
    endloop
  endfacet
  facet normal 0 0 -1
    outer loop
      vertex 4.52413 216.871 0
      vertex 4.64888 217.159 0
      vertex 0.313953 4.99013 0
    endloop
  endfacet
  facet normal 0 0 -1
    outer loop
      vertex 4.64888 217.159 0
      vertex 4.75528 217.455 0
      vertex 0.313953 4.99013 0
    endloop
  endfacet
  facet normal 0 0 -1
    outer loop
      vertex 4.75528 217.455 0
      vertex 4.84292 217.757 0
      vertex 0.313953 4.99013 0
    endloop
  endfacet
  facet normal 0 0 -1
    outer loop
      vertex 4.84292 217.757 0
      vertex 4.91144 218.063 0
      vertex 0.313953 4.99013 0
    endloop
  endfacet
  facet normal 0 0 -1
    outer loop
      vertex 4.91144 218.063 0
      vertex 4.96057 218.373 0
      vertex 0.313953 4.99013 0
    endloop
  endfacet
  facet normal 0 0 -1
    outer loop
      vertex 4.96057 218.373 0
      vertex 4.99013 218.686 0
      vertex 0.313953 4.99013 0
    endloop
  endfacet
  facet normal 0 0 -1
    outer loop
      vertex 4.99013 218.686 0
      vertex 5 219 0
      vertex 0.313953 4.99013 0
    endloop
  endfacet
  facet normal 0 0 -1
    outer loop
      vertex 0.313953 4.99013 0
      vertex 5 219 0
      vertex 114 219 0
    endloop
  endfacet
  facet normal 0 0 -1
    outer loop
      vertex 0.313953 4.99013 0
      vertex 114 219 0
      vertex 114.01 218.686 0
    endloop
  endfacet
  facet normal 0 0 -1
    outer loop
      vertex 0.313953 4.99013 0
      vertex 114.01 218.686 0
      vertex 114.039 218.373 0
    endloop
  endfacet
  facet normal 0 0 -1
    outer loop
      vertex 114.039 218.373 0
      vertex 114.089 218.063 0
      vertex 0.313953 4.99013 0
    endloop
  endfacet
  facet normal 0 0 -1
    outer loop
      vertex 114.089 218.063 0
      vertex 114.157 217.757 0
      vertex 0.313953 4.99013 0
    endloop
  endfacet
  facet normal 0 0 -1
    outer loop
      vertex 114.157 217.757 0
      vertex 114.245 217.455 0
      vertex 0.313953 4.99013 0
    endloop
  endfacet
  facet normal 0 0 -1
    outer loop
      vertex 114.245 217.455 0
      vertex 114.351 217.159 0
      vertex 0.313953 4.99013 0
    endloop
  endfacet
  facet normal 0 0 -1
    outer loop
      vertex 114.351 217.159 0
      vertex 114.476 216.871 0
      vertex 0.313953 4.99013 0
    endloop
  endfacet
  facet normal 0 0 -1
    outer loop
      vertex 114.476 216.871 0
      vertex 114.618 216.591 0
      vertex 0.313953 4.99013 0
    endloop
  endfacet
  facet normal 0 0 -1
    outer loop
      vertex 114.618 216.591 0
      vertex 114.778 216.321 0
      vertex 0.313953 4.99013 0
    endloop
  endfacet
  facet normal 0 0 -1
    outer loop
      vertex 114.778 216.321 0
      vertex 114.955 216.061 0
      vertex 0.313953 4.99013 0
    endloop
  endfacet
  facet normal 0 0 -1
    outer loop
      vertex 114.955 216.061 0
      vertex 115.147 215.813 0
      vertex 0.313953 4.99013 0
    endloop
  endfacet
  facet normal 0 0 -1
    outer loop
      vertex 115.147 215.813 0
      vertex 115.355 215.577 0
      vertex 0.313953 4.99013 0
    endloop
  endfacet
  facet normal 0 0 -1
    outer loop
      vertex 115.355 215.577 0
      vertex 115.577 215.355 0
      vertex 0.313953 4.99013 0
    endloop
  endfacet
  facet normal 0 0 -1
    outer loop
      vertex 115.577 215.355 0
      vertex 115.813 215.147 0
      vertex 0.313953 4.99013 0
    endloop
  endfacet
  facet normal 0 0 -1
    outer loop
      vertex 115.813 215.147 0
      vertex 116.061 214.955 0
      vertex 0.313953 4.99013 0
    endloop
  endfacet
  facet normal 0 0 -1
    outer loop
      vertex 116.061 214.955 0
      vertex 116.321 214.778 0
      vertex 0.313953 4.99013 0
    endloop
  endfacet
  facet normal 0 0 -1
    outer loop
      vertex 116.321 214.778 0
      vertex 116.591 214.618 0
      vertex 0.313953 4.99013 0
    endloop
  endfacet
  facet normal 0 0 -1
    outer loop
      vertex 116.591 214.618 0
      vertex 116.871 214.476 0
      vertex 0.313953 4.99013 0
    endloop
  endfacet
  facet normal 0 0 -1
    outer loop
      vertex 116.871 214.476 0
      vertex 117.159 214.351 0
      vertex 0.313953 4.99013 0
    endloop
  endfacet
  facet normal 0 0 -1
    outer loop
      vertex 117.159 214.351 0
      vertex 117.455 214.245 0
      vertex 0.313953 4.99013 0
    endloop
  endfacet
  facet normal 0 0 -1
    outer loop
      vertex 117.455 214.245 0
      vertex 117.757 214.157 0
      vertex 0.313953 4.99013 0
    endloop
  endfacet
  facet normal 0 0 -1
    outer loop
      vertex 117.757 214.157 0
      vertex 118.063 214.089 0
      vertex 0.313953 4.99013 0
    endloop
  endfacet
  facet normal 0 0 -1
    outer loop
      vertex 118.063 214.089 0
      vertex 118.373 214.039 0
      vertex 0.313953 4.99013 0
    endloop
  endfacet
  facet normal 0 0 -1
    outer loop
      vertex 118.373 214.039 0
      vertex 118.686 214.01 0
      vertex 0.313953 4.99013 0
    endloop
  endfacet
  facet normal 0 0 -1
    outer loop
      vertex 118.686 214.01 0
      vertex 119 214 0
      vertex 0.313953 4.99013 0
    endloop
  endfacet
  facet normal 0 0 -1
    outer loop
      vertex 119 214 0
      vertex 119 219 0
      vertex 119 5 0
    endloop
  endfacet
  facet normal 0 0 -1
    outer loop
      vertex 119 214 0
      vertex 119 5 0
      vertex 0.313953 4.99013 0
    endloop
  endfacet
  facet normal 0 0 -1
    outer loop
      vertex 0.313953 4.99013 0
      vertex 119 5 0
      vertex 118.686 4.99013 0
    endloop
  endfacet
  facet normal 0 0 -1
    outer loop
      vertex 0.313953 4.99013 0
      vertex 118.686 4.99013 0
      vertex 118.373 4.96057 0
    endloop
  endfacet
  facet normal 0 0 -1
    outer loop
      vertex 0.313953 214.01 0
      vertex 0.313953 4.99013 0
      vertex 1.11022e-15 214 0
    endloop
  endfacet
  facet normal 0 0 -1
    outer loop
      vertex 118.373 4.96057 0
      vertex 118.063 4.91144 0
      vertex 0.313953 4.99013 0
    endloop
  endfacet
  facet normal 0 0 -1
    outer loop
      vertex 118.063 4.91144 0
      vertex 117.757 4.84292 0
      vertex 0.313953 4.99013 0
    endloop
  endfacet
  facet normal 0 0 -1
    outer loop
      vertex 117.757 4.84292 0
      vertex 117.455 4.75528 0
      vertex 0.313953 4.99013 0
    endloop
  endfacet
  facet normal 0 0 -1
    outer loop
      vertex 117.455 4.75528 0
      vertex 117.159 4.64888 0
      vertex 0.313953 4.99013 0
    endloop
  endfacet
  facet normal 0 0 -1
    outer loop
      vertex 117.159 4.64888 0
      vertex 116.871 4.52413 0
      vertex 0.313953 4.99013 0
    endloop
  endfacet
  facet normal 0 0 -1
    outer loop
      vertex 116.871 4.52413 0
      vertex 116.591 4.38153 0
      vertex 0.313953 4.99013 0
    endloop
  endfacet
  facet normal 0 0 -1
    outer loop
      vertex 116.591 4.38153 0
      vertex 116.321 4.22164 0
      vertex 0.313953 4.99013 0
    endloop
  endfacet
  facet normal 0 0 -1
    outer loop
      vertex 116.321 4.22164 0
      vertex 116.061 4.04508 0
      vertex 0.313953 4.99013 0
    endloop
  endfacet
  facet normal 0 0 -1
    outer loop
      vertex 116.061 4.04508 0
      vertex 115.813 3.85257 0
      vertex 0.313953 4.99013 0
    endloop
  endfacet
  facet normal 0 0 -1
    outer loop
      vertex 115.813 3.85257 0
      vertex 115.577 3.64484 0
      vertex 0.313953 4.99013 0
    endloop
  endfacet
  facet normal 0 0 -1
    outer loop
      vertex 115.577 3.64484 0
      vertex 115.355 3.42274 0
      vertex 0.313953 4.99013 0
    endloop
  endfacet
  facet normal 0 0 -1
    outer loop
      vertex 115.355 3.42274 0
      vertex 115.147 3.18712 0
      vertex 0.313953 4.99013 0
    endloop
  endfacet
  facet normal 0 0 -1
    outer loop
      vertex 115.147 3.18712 0
      vertex 114.955 2.93893 0
      vertex 0.313953 4.99013 0
    endloop
  endfacet
  facet normal 0 0 -1
    outer loop
      vertex 114.955 2.93893 0
      vertex 114.778 2.67913 0
      vertex 0.313953 4.99013 0
    endloop
  endfacet
  facet normal 0 0 -1
    outer loop
      vertex 114.778 2.67913 0
      vertex 114.618 2.40877 0
      vertex 0.313953 4.99013 0
    endloop
  endfacet
  facet normal 0 0 -1
    outer loop
      vertex 114.618 2.40877 0
      vertex 114.476 2.1289 0
      vertex 0.313953 4.99013 0
    endloop
  endfacet
  facet normal 0 0 -1
    outer loop
      vertex 114.476 2.1289 0
      vertex 114.351 1.84062 0
      vertex 0.313953 4.99013 0
    endloop
  endfacet
  facet normal 0 0 -1
    outer loop
      vertex 114.351 1.84062 0
      vertex 114.245 1.54509 0
      vertex 0.313953 4.99013 0
    endloop
  endfacet
  facet normal 0 0 -1
    outer loop
      vertex 114.245 1.54509 0
      vertex 114.157 1.24345 0
      vertex 0.313953 4.99013 0
    endloop
  endfacet
  facet normal 0 0 -1
    outer loop
      vertex 114 1.11022e-15 0
      vertex 119 0 0
      vertex 5 0 0
    endloop
  endfacet
  facet normal 0 0 -1
    outer loop
      vertex 114 1.11022e-15 0
      vertex 5 0 0
      vertex 4.99013 0.313953 0
    endloop
  endfacet
  facet normal 0 0 -1
    outer loop
      vertex 114 1.11022e-15 0
      vertex 4.99013 0.313953 0
      vertex 4.96057 0.626666 0
    endloop
  endfacet
  facet normal 0 0 -1
    outer loop
      vertex 114 1.11022e-15 0
      vertex 4.96057 0.626666 0
      vertex 4.91144 0.936907 0
    endloop
  endfacet
  facet normal 0 0 -1
    outer loop
      vertex 114 1.11022e-15 0
      vertex 4.91144 0.936907 0
      vertex 4.84292 1.24345 0
    endloop
  endfacet
  facet normal 0 0 -1
    outer loop
      vertex 114 1.11022e-15 0
      vertex 4.84292 1.24345 0
      vertex 4.75528 1.54508 0
    endloop
  endfacet
  facet normal 0 0 -1
    outer loop
      vertex 114 1.11022e-15 0
      vertex 4.75528 1.54508 0
      vertex 4.64888 1.84062 0
    endloop
  endfacet
  facet normal 0 0 -1
    outer loop
      vertex 114 1.11022e-15 0
      vertex 4.64888 1.84062 0
      vertex 4.52413 2.1289 0
    endloop
  endfacet
  facet normal 0 0 -1
    outer loop
      vertex 114 1.11022e-15 0
      vertex 4.52413 2.1289 0
      vertex 4.38153 2.40877 0
    endloop
  endfacet
  facet normal 0 0 -1
    outer loop
      vertex 114 1.11022e-15 0
      vertex 4.38153 2.40877 0
      vertex 4.22164 2.67913 0
    endloop
  endfacet
  facet normal 0 0 -1
    outer loop
      vertex 114 1.11022e-15 0
      vertex 4.22164 2.67913 0
      vertex 4.04508 2.93893 0
    endloop
  endfacet
  facet normal 0 0 -1
    outer loop
      vertex 114 1.11022e-15 0
      vertex 4.04508 2.93893 0
      vertex 3.85257 3.18712 0
    endloop
  endfacet
  facet normal 0 0 -1
    outer loop
      vertex 114 1.11022e-15 0
      vertex 3.85257 3.18712 0
      vertex 3.64484 3.42274 0
    endloop
  endfacet
  facet normal 0 0 -1
    outer loop
      vertex 114 1.11022e-15 0
      vertex 3.64484 3.42274 0
      vertex 3.42274 3.64484 0
    endloop
  endfacet
  facet normal 0 0 -1
    outer loop
      vertex 114 1.11022e-15 0
      vertex 3.42274 3.64484 0
      vertex 3.18712 3.85257 0
    endloop
  endfacet
  facet normal 0 0 -1
    outer loop
      vertex 114 1.11022e-15 0
      vertex 3.18712 3.85257 0
      vertex 2.93893 4.04508 0
    endloop
  endfacet
  facet normal 0 0 -1
    outer loop
      vertex 114 1.11022e-15 0
      vertex 2.93893 4.04508 0
      vertex 2.67913 4.22164 0
    endloop
  endfacet
  facet normal 0 0 -1
    outer loop
      vertex 114 1.11022e-15 0
      vertex 2.67913 4.22164 0
      vertex 2.40877 4.38153 0
    endloop
  endfacet
  facet normal 0 0 -1
    outer loop
      vertex 114 1.11022e-15 0
      vertex 2.40877 4.38153 0
      vertex 2.1289 4.52413 0
    endloop
  endfacet
  facet normal 0 0 -1
    outer loop
      vertex 114 1.11022e-15 0
      vertex 2.1289 4.52413 0
      vertex 1.84062 4.64888 0
    endloop
  endfacet
  facet normal 0 0 -1
    outer loop
      vertex 114 1.11022e-15 0
      vertex 1.84062 4.64888 0
      vertex 1.54508 4.75528 0
    endloop
  endfacet
  facet normal 0 0 -1
    outer loop
      vertex 114 1.11022e-15 0
      vertex 1.54508 4.75528 0
      vertex 1.24345 4.84292 0
    endloop
  endfacet
  facet normal 0 0 -1
    outer loop
      vertex 114 1.11022e-15 0
      vertex 1.24345 4.84292 0
      vertex 0.936907 4.91144 0
    endloop
  endfacet
  facet normal 0 0 -1
    outer loop
      vertex 114 1.11022e-15 0
      vertex 0.936907 4.91144 0
      vertex 0.626666 4.96057 0
    endloop
  endfacet
  facet normal 0 0 -1
    outer loop
      vertex 0.313953 4.99013 0
      vertex 114.157 1.24345 0
      vertex 114.089 0.936907 0
    endloop
  endfacet
  facet normal 0 0 -1
    outer loop
      vertex 0.313953 4.99013 0
      vertex 114.089 0.936907 0
      vertex 114.039 0.626666 0
    endloop
  endfacet
  facet normal 0 0 -1
    outer loop
      vertex 0.313953 4.99013 0
      vertex 114.039 0.626666 0
      vertex 114.01 0.313953 0
    endloop
  endfacet
  facet normal 0 0 -1
    outer loop
      vertex 0.313953 4.99013 0
      vertex 114.01 0.313953 0
      vertex 114 1.11022e-15 0
    endloop
  endfacet
  facet normal 0 0 -1
    outer loop
      vertex 0.313953 4.99013 0
      vertex 114 1.11022e-15 0
      vertex 0.626666 4.96057 0
    endloop
  endfacet
  facet normal -1 -2.22045e-16 0
    outer loop
      vertex 0 219 -3.5
      vertex 1.11022e-15 214 -3.5
      vertex 0 219 0
    endloop
  endfacet
  facet normal -1 -2.22045e-16 0
    outer loop
      vertex 0 219 0
      vertex 1.11022e-15 214 -3.5
      vertex 1.11022e-15 214 0
    endloop
  endfacet
  facet normal -2.22045e-16 1 0
    outer loop
      vertex 0 219 -3.5
      vertex 0 219 0
      vertex 5 219 -3.5
    endloop
  endfacet
  facet normal -2.22045e-16 1 0
    outer loop
      vertex 5 219 -3.5
      vertex 0 219 0
      vertex 5 219 0
    endloop
  endfacet
  facet normal 0 1 0
    outer loop
      vertex 0 219 0
      vertex 0 219 40
      vertex 5 219 0
    endloop
  endfacet
  facet normal 0 1 0
    outer loop
      vertex 5 219 0
      vertex 0 219 40
      vertex 119 219 40
    endloop
  endfacet
  facet normal 0 1 0
    outer loop
      vertex 114 219 0
      vertex 119 219 40
      vertex 119 219 0
    endloop
  endfacet
  facet normal 0 1 0
    outer loop
      vertex 5 219 0
      vertex 119 219 40
      vertex 114 219 0
    endloop
  endfacet
  facet normal 0 0 1
    outer loop
      vertex 2 2 40
      vertex 0 0 40
      vertex 119 0 40
    endloop
  endfacet
  facet normal 0 0 1
    outer loop
      vertex 117 2 40
      vertex 2 2 40
      vertex 119 0 40
    endloop
  endfacet
  facet normal 0 0 1
    outer loop
      vertex 0 219 40
      vertex 0 0 40
      vertex 2 2 40
    endloop
  endfacet
  facet normal 0 0 1
    outer loop
      vertex 119 219 40
      vertex 0 219 40
      vertex 2 217 40
    endloop
  endfacet
  facet normal 0 0 1
    outer loop
      vertex 119 219 40
      vertex 117 217 40
      vertex 119 0 40
    endloop
  endfacet
  facet normal 0 0 1
    outer loop
      vertex 119 219 40
      vertex 2 217 40
      vertex 117 217 40
    endloop
  endfacet
  facet normal 0 0 1
    outer loop
      vertex 117 217 40
      vertex 117 2 40
      vertex 119 0 40
    endloop
  endfacet
  facet normal 0 0 1
    outer loop
      vertex 2 2 40
      vertex 2 217 40
      vertex 0 219 40
    endloop
  endfacet
  facet normal 1 0 0
    outer loop
      vertex 119 0 40
      vertex 119 0 0
      vertex 119 5 0
    endloop
  endfacet
  facet normal 1 0 0
    outer loop
      vertex 119 219 40
      vertex 119 0 40
      vertex 119 219 0
    endloop
  endfacet
  facet normal 1 0 0
    outer loop
      vertex 119 219 0
      vertex 119 0 40
      vertex 119 5 0
    endloop
  endfacet
  facet normal 1 -2.22045e-16 0
    outer loop
      vertex 119 0 0
      vertex 119 0 -3.5
      vertex 119 5 -3.5
    endloop
  endfacet
  facet normal 1 -2.22045e-16 0
    outer loop
      vertex 119 5 0
      vertex 119 0 0
      vertex 119 5 -3.5
    endloop
  endfacet
  facet normal -2.22045e-16 -1 0
    outer loop
      vertex 114 1.11022e-15 0
      vertex 114 1.11022e-15 -3.5
      vertex 119 0 -3.5
    endloop
  endfacet
  facet normal -2.22045e-16 -1 0
    outer loop
      vertex 119 0 0
      vertex 114 1.11022e-15 0
      vertex 119 0 -3.5
    endloop
  endfacet
  facet normal 0.999507 0.0314096 0
    outer loop
      vertex 5 0 -3.5
      vertex 4.99013 0.313953 -3.5
      vertex 4.99013 0.313953 0
    endloop
  endfacet
  facet normal 0.999507 0.0314096 0
    outer loop
      vertex 5 0 0
      vertex 5 0 -3.5
      vertex 4.99013 0.313953 0
    endloop
  endfacet
  facet normal 0.995562 0.0941081 0
    outer loop
      vertex 4.99013 0.313953 -3.5
      vertex 4.96057 0.626666 -3.5
      vertex 4.96057 0.626666 0
    endloop
  endfacet
  facet normal 0.995562 0.0941081 0
    outer loop
      vertex 4.99013 0.313953 0
      vertex 4.99013 0.313953 -3.5
      vertex 4.96057 0.626666 0
    endloop
  endfacet
  facet normal 0.987688 0.156436 0
    outer loop
      vertex 4.96057 0.626666 -3.5
      vertex 4.91144 0.936907 -3.5
      vertex 4.91144 0.936907 0
    endloop
  endfacet
  facet normal 0.987688 0.156436 0
    outer loop
      vertex 4.96057 0.626666 0
      vertex 4.96057 0.626666 -3.5
      vertex 4.91144 0.936907 0
    endloop
  endfacet
  facet normal 0.975917 0.218142 0
    outer loop
      vertex 4.91144 0.936907 -3.5
      vertex 4.84292 1.24345 -3.5
      vertex 4.84292 1.24345 0
    endloop
  endfacet
  facet normal 0.975917 0.218142 0
    outer loop
      vertex 4.91144 0.936907 0
      vertex 4.91144 0.936907 -3.5
      vertex 4.84292 1.24345 0
    endloop
  endfacet
  facet normal 0.960294 0.27899 0
    outer loop
      vertex 4.84292 1.24345 -3.5
      vertex 4.75528 1.54508 -3.5
      vertex 4.75528 1.54508 0
    endloop
  endfacet
  facet normal 0.960294 0.27899 0
    outer loop
      vertex 4.84292 1.24345 0
      vertex 4.84292 1.24345 -3.5
      vertex 4.75528 1.54508 0
    endloop
  endfacet
  facet normal 0.94088 0.33874 0
    outer loop
      vertex 4.75528 1.54508 -3.5
      vertex 4.64888 1.84062 -3.5
      vertex 4.64888 1.84062 0
    endloop
  endfacet
  facet normal 0.94088 0.33874 0
    outer loop
      vertex 4.75528 1.54508 0
      vertex 4.75528 1.54508 -3.5
      vertex 4.64888 1.84062 0
    endloop
  endfacet
  facet normal 0.917754 0.397148 0
    outer loop
      vertex 4.64888 1.84062 -3.5
      vertex 4.52413 2.1289 -3.5
      vertex 4.52413 2.1289 0
    endloop
  endfacet
  facet normal 0.917754 0.397148 0
    outer loop
      vertex 4.64888 1.84062 0
      vertex 4.64888 1.84062 -3.5
      vertex 4.52413 2.1289 0
    endloop
  endfacet
  facet normal 0.891006 0.453991 0
    outer loop
      vertex 4.52413 2.1289 -3.5
      vertex 4.38153 2.40877 -3.5
      vertex 4.38153 2.40877 0
    endloop
  endfacet
  facet normal 0.891006 0.453991 0
    outer loop
      vertex 4.52413 2.1289 0
      vertex 4.52413 2.1289 -3.5
      vertex 4.38153 2.40877 0
    endloop
  endfacet
  facet normal 0.860743 0.509039 0
    outer loop
      vertex 4.38153 2.40877 -3.5
      vertex 4.22164 2.67913 -3.5
      vertex 4.22164 2.67913 0
    endloop
  endfacet
  facet normal 0.860743 0.509039 0
    outer loop
      vertex 4.38153 2.40877 0
      vertex 4.38153 2.40877 -3.5
      vertex 4.22164 2.67913 0
    endloop
  endfacet
  facet normal 0.82708 0.562085 0
    outer loop
      vertex 4.22164 2.67913 -3.5
      vertex 4.04508 2.93893 -3.5
      vertex 4.04508 2.93893 0
    endloop
  endfacet
  facet normal 0.82708 0.562085 0
    outer loop
      vertex 4.22164 2.67913 0
      vertex 4.22164 2.67913 -3.5
      vertex 4.04508 2.93893 0
    endloop
  endfacet
  facet normal 0.790155 0.612907 0
    outer loop
      vertex 4.04508 2.93893 -3.5
      vertex 3.85257 3.18712 -3.5
      vertex 3.85257 3.18712 0
    endloop
  endfacet
  facet normal 0.790155 0.612907 0
    outer loop
      vertex 4.04508 2.93893 0
      vertex 4.04508 2.93893 -3.5
      vertex 3.85257 3.18712 0
    endloop
  endfacet
  facet normal 0.750112 0.661311 0
    outer loop
      vertex 3.85257 3.18712 -3.5
      vertex 3.64484 3.42274 -3.5
      vertex 3.64484 3.42274 0
    endloop
  endfacet
  facet normal 0.750112 0.661311 0
    outer loop
      vertex 3.85257 3.18712 0
      vertex 3.85257 3.18712 -3.5
      vertex 3.64484 3.42274 0
    endloop
  endfacet
  facet normal 0.707107 0.707107 0
    outer loop
      vertex 3.42274 3.64484 -3.5
      vertex 3.42274 3.64484 0
      vertex 3.64484 3.42274 -3.5
    endloop
  endfacet
  facet normal 0.707107 0.707107 0
    outer loop
      vertex 3.64484 3.42274 -3.5
      vertex 3.42274 3.64484 0
      vertex 3.64484 3.42274 0
    endloop
  endfacet
  facet normal 0.661311 0.750112 0
    outer loop
      vertex 3.18712 3.85257 -3.5
      vertex 3.18712 3.85257 0
      vertex 3.42274 3.64484 -3.5
    endloop
  endfacet
  facet normal 0.661311 0.750112 0
    outer loop
      vertex 3.42274 3.64484 -3.5
      vertex 3.18712 3.85257 0
      vertex 3.42274 3.64484 0
    endloop
  endfacet
  facet normal 0.612907 0.790155 0
    outer loop
      vertex 2.93893 4.04508 -3.5
      vertex 2.93893 4.04508 0
      vertex 3.18712 3.85257 -3.5
    endloop
  endfacet
  facet normal 0.612907 0.790155 0
    outer loop
      vertex 3.18712 3.85257 -3.5
      vertex 2.93893 4.04508 0
      vertex 3.18712 3.85257 0
    endloop
  endfacet
  facet normal 0.562085 0.82708 0
    outer loop
      vertex 2.67913 4.22164 -3.5
      vertex 2.67913 4.22164 0
      vertex 2.93893 4.04508 -3.5
    endloop
  endfacet
  facet normal 0.562085 0.82708 0
    outer loop
      vertex 2.93893 4.04508 -3.5
      vertex 2.67913 4.22164 0
      vertex 2.93893 4.04508 0
    endloop
  endfacet
  facet normal 0.509039 0.860743 0
    outer loop
      vertex 2.40877 4.38153 -3.5
      vertex 2.40877 4.38153 0
      vertex 2.67913 4.22164 -3.5
    endloop
  endfacet
  facet normal 0.509039 0.860743 0
    outer loop
      vertex 2.67913 4.22164 -3.5
      vertex 2.40877 4.38153 0
      vertex 2.67913 4.22164 0
    endloop
  endfacet
  facet normal 0.453991 0.891006 0
    outer loop
      vertex 2.1289 4.52413 -3.5
      vertex 2.1289 4.52413 0
      vertex 2.40877 4.38153 -3.5
    endloop
  endfacet
  facet normal 0.453991 0.891006 0
    outer loop
      vertex 2.40877 4.38153 -3.5
      vertex 2.1289 4.52413 0
      vertex 2.40877 4.38153 0
    endloop
  endfacet
  facet normal 0.397148 0.917754 0
    outer loop
      vertex 1.84062 4.64888 -3.5
      vertex 1.84062 4.64888 0
      vertex 2.1289 4.52413 -3.5
    endloop
  endfacet
  facet normal 0.397148 0.917754 0
    outer loop
      vertex 2.1289 4.52413 -3.5
      vertex 1.84062 4.64888 0
      vertex 2.1289 4.52413 0
    endloop
  endfacet
  facet normal 0.33874 0.94088 0
    outer loop
      vertex 1.54508 4.75528 -3.5
      vertex 1.54508 4.75528 0
      vertex 1.84062 4.64888 -3.5
    endloop
  endfacet
  facet normal 0.33874 0.94088 0
    outer loop
      vertex 1.84062 4.64888 -3.5
      vertex 1.54508 4.75528 0
      vertex 1.84062 4.64888 0
    endloop
  endfacet
  facet normal 0.27899 0.960294 0
    outer loop
      vertex 1.24345 4.84292 -3.5
      vertex 1.24345 4.84292 0
      vertex 1.54508 4.75528 -3.5
    endloop
  endfacet
  facet normal 0.27899 0.960294 0
    outer loop
      vertex 1.54508 4.75528 -3.5
      vertex 1.24345 4.84292 0
      vertex 1.54508 4.75528 0
    endloop
  endfacet
  facet normal 0.218142 0.975917 0
    outer loop
      vertex 0.936907 4.91144 -3.5
      vertex 0.936907 4.91144 0
      vertex 1.24345 4.84292 -3.5
    endloop
  endfacet
  facet normal 0.218142 0.975917 0
    outer loop
      vertex 1.24345 4.84292 -3.5
      vertex 0.936907 4.91144 0
      vertex 1.24345 4.84292 0
    endloop
  endfacet
  facet normal 0.156436 0.987688 0
    outer loop
      vertex 0.626666 4.96057 -3.5
      vertex 0.626666 4.96057 0
      vertex 0.936907 4.91144 -3.5
    endloop
  endfacet
  facet normal 0.156436 0.987688 0
    outer loop
      vertex 0.936907 4.91144 -3.5
      vertex 0.626666 4.96057 0
      vertex 0.936907 4.91144 0
    endloop
  endfacet
  facet normal 0.0941081 0.995562 0
    outer loop
      vertex 0.313953 4.99013 -3.5
      vertex 0.313953 4.99013 0
      vertex 0.626666 4.96057 -3.5
    endloop
  endfacet
  facet normal 0.0941081 0.995562 0
    outer loop
      vertex 0.626666 4.96057 -3.5
      vertex 0.313953 4.99013 0
      vertex 0.626666 4.96057 0
    endloop
  endfacet
  facet normal -0.999507 0.0314096 0
    outer loop
      vertex 114 1.11022e-15 -3.5
      vertex 114 1.11022e-15 0
      vertex 114.01 0.313953 -3.5
    endloop
  endfacet
  facet normal -0.999507 0.0314096 0
    outer loop
      vertex 114.01 0.313953 -3.5
      vertex 114 1.11022e-15 0
      vertex 114.01 0.313953 0
    endloop
  endfacet
  facet normal -0.995562 0.0941081 0
    outer loop
      vertex 114.01 0.313953 -3.5
      vertex 114.01 0.313953 0
      vertex 114.039 0.626666 -3.5
    endloop
  endfacet
  facet normal -0.995562 0.0941081 0
    outer loop
      vertex 114.039 0.626666 -3.5
      vertex 114.01 0.313953 0
      vertex 114.039 0.626666 0
    endloop
  endfacet
  facet normal -0.987688 0.156436 0
    outer loop
      vertex 114.039 0.626666 -3.5
      vertex 114.039 0.626666 0
      vertex 114.089 0.936907 -3.5
    endloop
  endfacet
  facet normal -0.987688 0.156436 0
    outer loop
      vertex 114.089 0.936907 -3.5
      vertex 114.039 0.626666 0
      vertex 114.089 0.936907 0
    endloop
  endfacet
  facet normal -0.975917 0.218142 0
    outer loop
      vertex 114.089 0.936907 -3.5
      vertex 114.089 0.936907 0
      vertex 114.157 1.24345 -3.5
    endloop
  endfacet
  facet normal -0.975917 0.218142 0
    outer loop
      vertex 114.157 1.24345 -3.5
      vertex 114.089 0.936907 0
      vertex 114.157 1.24345 0
    endloop
  endfacet
  facet normal -0.960294 0.27899 0
    outer loop
      vertex 114.157 1.24345 -3.5
      vertex 114.157 1.24345 0
      vertex 114.245 1.54509 -3.5
    endloop
  endfacet
  facet normal -0.960294 0.27899 0
    outer loop
      vertex 114.245 1.54509 -3.5
      vertex 114.157 1.24345 0
      vertex 114.245 1.54509 0
    endloop
  endfacet
  facet normal -0.94088 0.33874 0
    outer loop
      vertex 114.245 1.54509 -3.5
      vertex 114.245 1.54509 0
      vertex 114.351 1.84062 -3.5
    endloop
  endfacet
  facet normal -0.94088 0.33874 0
    outer loop
      vertex 114.351 1.84062 -3.5
      vertex 114.245 1.54509 0
      vertex 114.351 1.84062 0
    endloop
  endfacet
  facet normal -0.917754 0.397148 0
    outer loop
      vertex 114.351 1.84062 -3.5
      vertex 114.351 1.84062 0
      vertex 114.476 2.1289 -3.5
    endloop
  endfacet
  facet normal -0.917754 0.397148 0
    outer loop
      vertex 114.476 2.1289 -3.5
      vertex 114.351 1.84062 0
      vertex 114.476 2.1289 0
    endloop
  endfacet
  facet normal -0.891006 0.453991 0
    outer loop
      vertex 114.476 2.1289 -3.5
      vertex 114.476 2.1289 0
      vertex 114.618 2.40877 -3.5
    endloop
  endfacet
  facet normal -0.891006 0.453991 0
    outer loop
      vertex 114.618 2.40877 -3.5
      vertex 114.476 2.1289 0
      vertex 114.618 2.40877 0
    endloop
  endfacet
  facet normal -0.860743 0.509039 0
    outer loop
      vertex 114.618 2.40877 -3.5
      vertex 114.618 2.40877 0
      vertex 114.778 2.67913 -3.5
    endloop
  endfacet
  facet normal -0.860743 0.509039 0
    outer loop
      vertex 114.778 2.67913 -3.5
      vertex 114.618 2.40877 0
      vertex 114.778 2.67913 0
    endloop
  endfacet
  facet normal -0.82708 0.562085 0
    outer loop
      vertex 114.778 2.67913 -3.5
      vertex 114.778 2.67913 0
      vertex 114.955 2.93893 -3.5
    endloop
  endfacet
  facet normal -0.82708 0.562085 0
    outer loop
      vertex 114.955 2.93893 -3.5
      vertex 114.778 2.67913 0
      vertex 114.955 2.93893 0
    endloop
  endfacet
  facet normal -0.790155 0.612907 0
    outer loop
      vertex 114.955 2.93893 -3.5
      vertex 114.955 2.93893 0
      vertex 115.147 3.18712 -3.5
    endloop
  endfacet
  facet normal -0.790155 0.612907 0
    outer loop
      vertex 115.147 3.18712 -3.5
      vertex 114.955 2.93893 0
      vertex 115.147 3.18712 0
    endloop
  endfacet
  facet normal -0.750112 0.661311 0
    outer loop
      vertex 115.147 3.18712 -3.5
      vertex 115.147 3.18712 0
      vertex 115.355 3.42274 -3.5
    endloop
  endfacet
  facet normal -0.750112 0.661311 0
    outer loop
      vertex 115.355 3.42274 -3.5
      vertex 115.147 3.18712 0
      vertex 115.355 3.42274 0
    endloop
  endfacet
  facet normal -0.707107 0.707107 0
    outer loop
      vertex 115.355 3.42274 -3.5
      vertex 115.355 3.42274 0
      vertex 115.577 3.64484 -3.5
    endloop
  endfacet
  facet normal -0.707107 0.707107 0
    outer loop
      vertex 115.577 3.64484 -3.5
      vertex 115.355 3.42274 0
      vertex 115.577 3.64484 0
    endloop
  endfacet
  facet normal -0.661311 0.750112 0
    outer loop
      vertex 115.577 3.64484 -3.5
      vertex 115.577 3.64484 0
      vertex 115.813 3.85257 -3.5
    endloop
  endfacet
  facet normal -0.661311 0.750112 0
    outer loop
      vertex 115.813 3.85257 -3.5
      vertex 115.577 3.64484 0
      vertex 115.813 3.85257 0
    endloop
  endfacet
  facet normal -0.612907 0.790155 0
    outer loop
      vertex 115.813 3.85257 -3.5
      vertex 115.813 3.85257 0
      vertex 116.061 4.04508 -3.5
    endloop
  endfacet
  facet normal -0.612907 0.790155 0
    outer loop
      vertex 116.061 4.04508 -3.5
      vertex 115.813 3.85257 0
      vertex 116.061 4.04508 0
    endloop
  endfacet
  facet normal -0.562085 0.82708 0
    outer loop
      vertex 116.061 4.04508 -3.5
      vertex 116.061 4.04508 0
      vertex 116.321 4.22164 -3.5
    endloop
  endfacet
  facet normal -0.562085 0.82708 0
    outer loop
      vertex 116.321 4.22164 -3.5
      vertex 116.061 4.04508 0
      vertex 116.321 4.22164 0
    endloop
  endfacet
  facet normal -0.509039 0.860743 0
    outer loop
      vertex 116.321 4.22164 -3.5
      vertex 116.321 4.22164 0
      vertex 116.591 4.38153 -3.5
    endloop
  endfacet
  facet normal -0.509039 0.860743 0
    outer loop
      vertex 116.591 4.38153 -3.5
      vertex 116.321 4.22164 0
      vertex 116.591 4.38153 0
    endloop
  endfacet
  facet normal -0.453991 0.891006 0
    outer loop
      vertex 116.591 4.38153 -3.5
      vertex 116.591 4.38153 0
      vertex 116.871 4.52413 -3.5
    endloop
  endfacet
  facet normal -0.453991 0.891006 0
    outer loop
      vertex 116.871 4.52413 -3.5
      vertex 116.591 4.38153 0
      vertex 116.871 4.52413 0
    endloop
  endfacet
  facet normal -0.397148 0.917754 0
    outer loop
      vertex 116.871 4.52413 -3.5
      vertex 116.871 4.52413 0
      vertex 117.159 4.64888 -3.5
    endloop
  endfacet
  facet normal -0.397148 0.917754 0
    outer loop
      vertex 117.159 4.64888 -3.5
      vertex 116.871 4.52413 0
      vertex 117.159 4.64888 0
    endloop
  endfacet
  facet normal -0.33874 0.94088 0
    outer loop
      vertex 117.159 4.64888 -3.5
      vertex 117.159 4.64888 0
      vertex 117.455 4.75528 -3.5
    endloop
  endfacet
  facet normal -0.33874 0.94088 0
    outer loop
      vertex 117.455 4.75528 -3.5
      vertex 117.159 4.64888 0
      vertex 117.455 4.75528 0
    endloop
  endfacet
  facet normal -0.27899 0.960294 0
    outer loop
      vertex 117.455 4.75528 -3.5
      vertex 117.455 4.75528 0
      vertex 117.757 4.84292 -3.5
    endloop
  endfacet
  facet normal -0.27899 0.960294 0
    outer loop
      vertex 117.757 4.84292 -3.5
      vertex 117.455 4.75528 0
      vertex 117.757 4.84292 0
    endloop
  endfacet
  facet normal -0.218142 0.975917 0
    outer loop
      vertex 117.757 4.84292 -3.5
      vertex 117.757 4.84292 0
      vertex 118.063 4.91144 -3.5
    endloop
  endfacet
  facet normal -0.218142 0.975917 0
    outer loop
      vertex 118.063 4.91144 -3.5
      vertex 117.757 4.84292 0
      vertex 118.063 4.91144 0
    endloop
  endfacet
  facet normal -0.156436 0.987688 0
    outer loop
      vertex 118.063 4.91144 -3.5
      vertex 118.063 4.91144 0
      vertex 118.373 4.96057 -3.5
    endloop
  endfacet
  facet normal -0.156436 0.987688 0
    outer loop
      vertex 118.373 4.96057 -3.5
      vertex 118.063 4.91144 0
      vertex 118.373 4.96057 0
    endloop
  endfacet
  facet normal -0.0941081 0.995562 0
    outer loop
      vertex 118.373 4.96057 -3.5
      vertex 118.373 4.96057 0
      vertex 118.686 4.99013 -3.5
    endloop
  endfacet
  facet normal -0.0941081 0.995562 0
    outer loop
      vertex 118.686 4.99013 -3.5
      vertex 118.373 4.96057 0
      vertex 118.686 4.99013 0
    endloop
  endfacet
  facet normal -0.0314096 0.999507 0
    outer loop
      vertex 118.686 4.99013 -3.5
      vertex 118.686 4.99013 0
      vertex 119 5 -3.5
    endloop
  endfacet
  facet normal -0.0314096 0.999507 0
    outer loop
      vertex 119 5 -3.5
      vertex 118.686 4.99013 0
      vertex 119 5 0
    endloop
  endfacet
  facet normal 1.22465e-16 1 0
    outer loop
      vertex 114 219 -3.5
      vertex 114 219 0
      vertex 119 219 -3.5
    endloop
  endfacet
  facet normal 1.22465e-16 1 0
    outer loop
      vertex 119 219 -3.5
      vertex 114 219 0
      vertex 119 219 0
    endloop
  endfacet
  facet normal 1 -1.22465e-16 0
    outer loop
      vertex 119 214 0
      vertex 119 214 -3.5
      vertex 119 219 -3.5
    endloop
  endfacet
  facet normal 1 -1.22465e-16 0
    outer loop
      vertex 119 219 0
      vertex 119 214 0
      vertex 119 219 -3.5
    endloop
  endfacet
  facet normal -0.0314096 -0.999507 0
    outer loop
      vertex 118.686 214.01 0
      vertex 118.686 214.01 -3.5
      vertex 119 214 -3.5
    endloop
  endfacet
  facet normal -0.0314096 -0.999507 0
    outer loop
      vertex 119 214 0
      vertex 118.686 214.01 0
      vertex 119 214 -3.5
    endloop
  endfacet
  facet normal -0.0941081 -0.995562 0
    outer loop
      vertex 118.373 214.039 0
      vertex 118.373 214.039 -3.5
      vertex 118.686 214.01 -3.5
    endloop
  endfacet
  facet normal -0.0941081 -0.995562 0
    outer loop
      vertex 118.686 214.01 0
      vertex 118.373 214.039 0
      vertex 118.686 214.01 -3.5
    endloop
  endfacet
  facet normal -0.156436 -0.987688 0
    outer loop
      vertex 118.063 214.089 0
      vertex 118.063 214.089 -3.5
      vertex 118.373 214.039 -3.5
    endloop
  endfacet
  facet normal -0.156436 -0.987688 0
    outer loop
      vertex 118.373 214.039 0
      vertex 118.063 214.089 0
      vertex 118.373 214.039 -3.5
    endloop
  endfacet
  facet normal -0.218142 -0.975917 0
    outer loop
      vertex 117.757 214.157 0
      vertex 117.757 214.157 -3.5
      vertex 118.063 214.089 -3.5
    endloop
  endfacet
  facet normal -0.218142 -0.975917 0
    outer loop
      vertex 118.063 214.089 0
      vertex 117.757 214.157 0
      vertex 118.063 214.089 -3.5
    endloop
  endfacet
  facet normal -0.27899 -0.960294 0
    outer loop
      vertex 117.455 214.245 0
      vertex 117.455 214.245 -3.5
      vertex 117.757 214.157 -3.5
    endloop
  endfacet
  facet normal -0.27899 -0.960294 0
    outer loop
      vertex 117.757 214.157 0
      vertex 117.455 214.245 0
      vertex 117.757 214.157 -3.5
    endloop
  endfacet
  facet normal -0.33874 -0.94088 0
    outer loop
      vertex 117.159 214.351 0
      vertex 117.159 214.351 -3.5
      vertex 117.455 214.245 -3.5
    endloop
  endfacet
  facet normal -0.33874 -0.94088 0
    outer loop
      vertex 117.455 214.245 0
      vertex 117.159 214.351 0
      vertex 117.455 214.245 -3.5
    endloop
  endfacet
  facet normal -0.397148 -0.917754 0
    outer loop
      vertex 116.871 214.476 0
      vertex 116.871 214.476 -3.5
      vertex 117.159 214.351 -3.5
    endloop
  endfacet
  facet normal -0.397148 -0.917754 0
    outer loop
      vertex 117.159 214.351 0
      vertex 116.871 214.476 0
      vertex 117.159 214.351 -3.5
    endloop
  endfacet
  facet normal -0.453991 -0.891006 0
    outer loop
      vertex 116.591 214.618 0
      vertex 116.591 214.618 -3.5
      vertex 116.871 214.476 -3.5
    endloop
  endfacet
  facet normal -0.453991 -0.891006 0
    outer loop
      vertex 116.871 214.476 0
      vertex 116.591 214.618 0
      vertex 116.871 214.476 -3.5
    endloop
  endfacet
  facet normal -0.509039 -0.860743 0
    outer loop
      vertex 116.321 214.778 0
      vertex 116.321 214.778 -3.5
      vertex 116.591 214.618 -3.5
    endloop
  endfacet
  facet normal -0.509039 -0.860743 0
    outer loop
      vertex 116.591 214.618 0
      vertex 116.321 214.778 0
      vertex 116.591 214.618 -3.5
    endloop
  endfacet
  facet normal -0.562085 -0.82708 0
    outer loop
      vertex 116.061 214.955 0
      vertex 116.061 214.955 -3.5
      vertex 116.321 214.778 -3.5
    endloop
  endfacet
  facet normal -0.562085 -0.82708 0
    outer loop
      vertex 116.321 214.778 0
      vertex 116.061 214.955 0
      vertex 116.321 214.778 -3.5
    endloop
  endfacet
  facet normal -0.612907 -0.790155 0
    outer loop
      vertex 115.813 215.147 0
      vertex 115.813 215.147 -3.5
      vertex 116.061 214.955 -3.5
    endloop
  endfacet
  facet normal -0.612907 -0.790155 0
    outer loop
      vertex 116.061 214.955 0
      vertex 115.813 215.147 0
      vertex 116.061 214.955 -3.5
    endloop
  endfacet
  facet normal -0.661311 -0.750112 0
    outer loop
      vertex 115.577 215.355 0
      vertex 115.577 215.355 -3.5
      vertex 115.813 215.147 -3.5
    endloop
  endfacet
  facet normal -0.661311 -0.750112 0
    outer loop
      vertex 115.813 215.147 0
      vertex 115.577 215.355 0
      vertex 115.813 215.147 -3.5
    endloop
  endfacet
  facet normal -0.707107 -0.707107 0
    outer loop
      vertex 115.355 215.577 -3.5
      vertex 115.577 215.355 -3.5
      vertex 115.355 215.577 0
    endloop
  endfacet
  facet normal -0.707107 -0.707107 0
    outer loop
      vertex 115.355 215.577 0
      vertex 115.577 215.355 -3.5
      vertex 115.577 215.355 0
    endloop
  endfacet
  facet normal -0.750112 -0.661311 0
    outer loop
      vertex 115.147 215.813 -3.5
      vertex 115.355 215.577 -3.5
      vertex 115.147 215.813 0
    endloop
  endfacet
  facet normal -0.750112 -0.661311 0
    outer loop
      vertex 115.147 215.813 0
      vertex 115.355 215.577 -3.5
      vertex 115.355 215.577 0
    endloop
  endfacet
  facet normal -0.790155 -0.612907 0
    outer loop
      vertex 114.955 216.061 -3.5
      vertex 115.147 215.813 -3.5
      vertex 114.955 216.061 0
    endloop
  endfacet
  facet normal -0.790155 -0.612907 0
    outer loop
      vertex 114.955 216.061 0
      vertex 115.147 215.813 -3.5
      vertex 115.147 215.813 0
    endloop
  endfacet
  facet normal -0.82708 -0.562085 0
    outer loop
      vertex 114.778 216.321 -3.5
      vertex 114.955 216.061 -3.5
      vertex 114.778 216.321 0
    endloop
  endfacet
  facet normal -0.82708 -0.562085 0
    outer loop
      vertex 114.778 216.321 0
      vertex 114.955 216.061 -3.5
      vertex 114.955 216.061 0
    endloop
  endfacet
  facet normal -0.860743 -0.509039 0
    outer loop
      vertex 114.618 216.591 -3.5
      vertex 114.778 216.321 -3.5
      vertex 114.618 216.591 0
    endloop
  endfacet
  facet normal -0.860743 -0.509039 0
    outer loop
      vertex 114.618 216.591 0
      vertex 114.778 216.321 -3.5
      vertex 114.778 216.321 0
    endloop
  endfacet
  facet normal -0.891006 -0.453991 0
    outer loop
      vertex 114.476 216.871 -3.5
      vertex 114.618 216.591 -3.5
      vertex 114.476 216.871 0
    endloop
  endfacet
  facet normal -0.891006 -0.453991 0
    outer loop
      vertex 114.476 216.871 0
      vertex 114.618 216.591 -3.5
      vertex 114.618 216.591 0
    endloop
  endfacet
  facet normal -0.917754 -0.397148 0
    outer loop
      vertex 114.351 217.159 -3.5
      vertex 114.476 216.871 -3.5
      vertex 114.351 217.159 0
    endloop
  endfacet
  facet normal -0.917754 -0.397148 0
    outer loop
      vertex 114.351 217.159 0
      vertex 114.476 216.871 -3.5
      vertex 114.476 216.871 0
    endloop
  endfacet
  facet normal -0.94088 -0.33874 0
    outer loop
      vertex 114.245 217.455 -3.5
      vertex 114.351 217.159 -3.5
      vertex 114.245 217.455 0
    endloop
  endfacet
  facet normal -0.94088 -0.33874 0
    outer loop
      vertex 114.245 217.455 0
      vertex 114.351 217.159 -3.5
      vertex 114.351 217.159 0
    endloop
  endfacet
  facet normal -0.960294 -0.27899 0
    outer loop
      vertex 114.157 217.757 -3.5
      vertex 114.245 217.455 -3.5
      vertex 114.157 217.757 0
    endloop
  endfacet
  facet normal -0.960294 -0.27899 0
    outer loop
      vertex 114.157 217.757 0
      vertex 114.245 217.455 -3.5
      vertex 114.245 217.455 0
    endloop
  endfacet
  facet normal -0.975917 -0.218142 0
    outer loop
      vertex 114.089 218.063 -3.5
      vertex 114.157 217.757 -3.5
      vertex 114.089 218.063 0
    endloop
  endfacet
  facet normal -0.975917 -0.218142 0
    outer loop
      vertex 114.089 218.063 0
      vertex 114.157 217.757 -3.5
      vertex 114.157 217.757 0
    endloop
  endfacet
  facet normal -0.987688 -0.156436 0
    outer loop
      vertex 114.039 218.373 -3.5
      vertex 114.089 218.063 -3.5
      vertex 114.039 218.373 0
    endloop
  endfacet
  facet normal -0.987688 -0.156436 0
    outer loop
      vertex 114.039 218.373 0
      vertex 114.089 218.063 -3.5
      vertex 114.089 218.063 0
    endloop
  endfacet
  facet normal -0.995562 -0.0941081 0
    outer loop
      vertex 114.01 218.686 -3.5
      vertex 114.039 218.373 -3.5
      vertex 114.01 218.686 0
    endloop
  endfacet
  facet normal -0.995562 -0.0941081 0
    outer loop
      vertex 114.01 218.686 0
      vertex 114.039 218.373 -3.5
      vertex 114.039 218.373 0
    endloop
  endfacet
  facet normal -0.999507 -0.0314096 0
    outer loop
      vertex 114 219 -3.5
      vertex 114.01 218.686 -3.5
      vertex 114 219 0
    endloop
  endfacet
  facet normal -0.999507 -0.0314096 0
    outer loop
      vertex 114 219 0
      vertex 114.01 218.686 -3.5
      vertex 114.01 218.686 0
    endloop
  endfacet
  facet normal 0.999507 -0.0314096 0
    outer loop
      vertex 4.99013 218.686 0
      vertex 4.99013 218.686 -3.5
      vertex 5 219 -3.5
    endloop
  endfacet
  facet normal 0.999507 -0.0314096 0
    outer loop
      vertex 5 219 0
      vertex 4.99013 218.686 0
      vertex 5 219 -3.5
    endloop
  endfacet
  facet normal 0.995562 -0.0941081 0
    outer loop
      vertex 4.96057 218.373 0
      vertex 4.96057 218.373 -3.5
      vertex 4.99013 218.686 -3.5
    endloop
  endfacet
  facet normal 0.995562 -0.0941081 0
    outer loop
      vertex 4.99013 218.686 0
      vertex 4.96057 218.373 0
      vertex 4.99013 218.686 -3.5
    endloop
  endfacet
  facet normal 0.987688 -0.156436 0
    outer loop
      vertex 4.91144 218.063 0
      vertex 4.91144 218.063 -3.5
      vertex 4.96057 218.373 -3.5
    endloop
  endfacet
  facet normal 0.987688 -0.156436 0
    outer loop
      vertex 4.96057 218.373 0
      vertex 4.91144 218.063 0
      vertex 4.96057 218.373 -3.5
    endloop
  endfacet
  facet normal 0.975917 -0.218142 0
    outer loop
      vertex 4.84292 217.757 0
      vertex 4.84292 217.757 -3.5
      vertex 4.91144 218.063 -3.5
    endloop
  endfacet
  facet normal 0.975917 -0.218142 0
    outer loop
      vertex 4.91144 218.063 0
      vertex 4.84292 217.757 0
      vertex 4.91144 218.063 -3.5
    endloop
  endfacet
  facet normal 0.960294 -0.27899 0
    outer loop
      vertex 4.75528 217.455 0
      vertex 4.75528 217.455 -3.5
      vertex 4.84292 217.757 -3.5
    endloop
  endfacet
  facet normal 0.960294 -0.27899 0
    outer loop
      vertex 4.84292 217.757 0
      vertex 4.75528 217.455 0
      vertex 4.84292 217.757 -3.5
    endloop
  endfacet
  facet normal 0.94088 -0.33874 0
    outer loop
      vertex 4.64888 217.159 0
      vertex 4.64888 217.159 -3.5
      vertex 4.75528 217.455 -3.5
    endloop
  endfacet
  facet normal 0.94088 -0.33874 0
    outer loop
      vertex 4.75528 217.455 0
      vertex 4.64888 217.159 0
      vertex 4.75528 217.455 -3.5
    endloop
  endfacet
  facet normal 0.917754 -0.397148 0
    outer loop
      vertex 4.52413 216.871 0
      vertex 4.52413 216.871 -3.5
      vertex 4.64888 217.159 -3.5
    endloop
  endfacet
  facet normal 0.917754 -0.397148 0
    outer loop
      vertex 4.64888 217.159 0
      vertex 4.52413 216.871 0
      vertex 4.64888 217.159 -3.5
    endloop
  endfacet
  facet normal 0.891006 -0.453991 0
    outer loop
      vertex 4.38153 216.591 0
      vertex 4.38153 216.591 -3.5
      vertex 4.52413 216.871 -3.5
    endloop
  endfacet
  facet normal 0.891006 -0.453991 0
    outer loop
      vertex 4.52413 216.871 0
      vertex 4.38153 216.591 0
      vertex 4.52413 216.871 -3.5
    endloop
  endfacet
  facet normal 0.860743 -0.509039 0
    outer loop
      vertex 4.22164 216.321 0
      vertex 4.22164 216.321 -3.5
      vertex 4.38153 216.591 -3.5
    endloop
  endfacet
  facet normal 0.860743 -0.509039 0
    outer loop
      vertex 4.38153 216.591 0
      vertex 4.22164 216.321 0
      vertex 4.38153 216.591 -3.5
    endloop
  endfacet
  facet normal 0.82708 -0.562085 0
    outer loop
      vertex 4.04508 216.061 0
      vertex 4.04508 216.061 -3.5
      vertex 4.22164 216.321 -3.5
    endloop
  endfacet
  facet normal 0.82708 -0.562085 0
    outer loop
      vertex 4.22164 216.321 0
      vertex 4.04508 216.061 0
      vertex 4.22164 216.321 -3.5
    endloop
  endfacet
  facet normal 0.790155 -0.612907 0
    outer loop
      vertex 3.85257 215.813 0
      vertex 3.85257 215.813 -3.5
      vertex 4.04508 216.061 -3.5
    endloop
  endfacet
  facet normal 0.790155 -0.612907 0
    outer loop
      vertex 4.04508 216.061 0
      vertex 3.85257 215.813 0
      vertex 4.04508 216.061 -3.5
    endloop
  endfacet
  facet normal 0.750112 -0.661311 0
    outer loop
      vertex 3.64484 215.577 0
      vertex 3.64484 215.577 -3.5
      vertex 3.85257 215.813 -3.5
    endloop
  endfacet
  facet normal 0.750112 -0.661311 0
    outer loop
      vertex 3.85257 215.813 0
      vertex 3.64484 215.577 0
      vertex 3.85257 215.813 -3.5
    endloop
  endfacet
  facet normal 0.707107 -0.707107 0
    outer loop
      vertex 3.42274 215.355 0
      vertex 3.42274 215.355 -3.5
      vertex 3.64484 215.577 -3.5
    endloop
  endfacet
  facet normal 0.707107 -0.707107 0
    outer loop
      vertex 3.64484 215.577 0
      vertex 3.42274 215.355 0
      vertex 3.64484 215.577 -3.5
    endloop
  endfacet
  facet normal 0.661311 -0.750112 0
    outer loop
      vertex 3.18712 215.147 0
      vertex 3.18712 215.147 -3.5
      vertex 3.42274 215.355 -3.5
    endloop
  endfacet
  facet normal 0.661311 -0.750112 0
    outer loop
      vertex 3.42274 215.355 0
      vertex 3.18712 215.147 0
      vertex 3.42274 215.355 -3.5
    endloop
  endfacet
  facet normal 0.612907 -0.790155 0
    outer loop
      vertex 2.93893 214.955 0
      vertex 2.93893 214.955 -3.5
      vertex 3.18712 215.147 -3.5
    endloop
  endfacet
  facet normal 0.612907 -0.790155 0
    outer loop
      vertex 3.18712 215.147 0
      vertex 2.93893 214.955 0
      vertex 3.18712 215.147 -3.5
    endloop
  endfacet
  facet normal 0.562085 -0.82708 0
    outer loop
      vertex 2.67913 214.778 0
      vertex 2.67913 214.778 -3.5
      vertex 2.93893 214.955 -3.5
    endloop
  endfacet
  facet normal 0.562085 -0.82708 0
    outer loop
      vertex 2.93893 214.955 0
      vertex 2.67913 214.778 0
      vertex 2.93893 214.955 -3.5
    endloop
  endfacet
  facet normal 0.509039 -0.860743 0
    outer loop
      vertex 2.40877 214.618 0
      vertex 2.40877 214.618 -3.5
      vertex 2.67913 214.778 -3.5
    endloop
  endfacet
  facet normal 0.509039 -0.860743 0
    outer loop
      vertex 2.67913 214.778 0
      vertex 2.40877 214.618 0
      vertex 2.67913 214.778 -3.5
    endloop
  endfacet
  facet normal 0.453991 -0.891006 0
    outer loop
      vertex 2.1289 214.476 0
      vertex 2.1289 214.476 -3.5
      vertex 2.40877 214.618 -3.5
    endloop
  endfacet
  facet normal 0.453991 -0.891006 0
    outer loop
      vertex 2.40877 214.618 0
      vertex 2.1289 214.476 0
      vertex 2.40877 214.618 -3.5
    endloop
  endfacet
  facet normal 0.397148 -0.917754 0
    outer loop
      vertex 1.84062 214.351 0
      vertex 1.84062 214.351 -3.5
      vertex 2.1289 214.476 -3.5
    endloop
  endfacet
  facet normal 0.397148 -0.917754 0
    outer loop
      vertex 2.1289 214.476 0
      vertex 1.84062 214.351 0
      vertex 2.1289 214.476 -3.5
    endloop
  endfacet
  facet normal 0.33874 -0.94088 0
    outer loop
      vertex 1.54509 214.245 0
      vertex 1.54509 214.245 -3.5
      vertex 1.84062 214.351 -3.5
    endloop
  endfacet
  facet normal 0.33874 -0.94088 0
    outer loop
      vertex 1.84062 214.351 0
      vertex 1.54509 214.245 0
      vertex 1.84062 214.351 -3.5
    endloop
  endfacet
  facet normal 0.27899 -0.960294 0
    outer loop
      vertex 1.24345 214.157 0
      vertex 1.24345 214.157 -3.5
      vertex 1.54509 214.245 -3.5
    endloop
  endfacet
  facet normal 0.27899 -0.960294 0
    outer loop
      vertex 1.54509 214.245 0
      vertex 1.24345 214.157 0
      vertex 1.54509 214.245 -3.5
    endloop
  endfacet
  facet normal 0.218142 -0.975917 0
    outer loop
      vertex 0.936907 214.089 0
      vertex 0.936907 214.089 -3.5
      vertex 1.24345 214.157 -3.5
    endloop
  endfacet
  facet normal 0.218142 -0.975917 0
    outer loop
      vertex 1.24345 214.157 0
      vertex 0.936907 214.089 0
      vertex 1.24345 214.157 -3.5
    endloop
  endfacet
  facet normal 0.156436 -0.987688 0
    outer loop
      vertex 0.626666 214.039 0
      vertex 0.626666 214.039 -3.5
      vertex 0.936907 214.089 -3.5
    endloop
  endfacet
  facet normal 0.156436 -0.987688 0
    outer loop
      vertex 0.936907 214.089 0
      vertex 0.626666 214.039 0
      vertex 0.936907 214.089 -3.5
    endloop
  endfacet
  facet normal 0.0941081 -0.995562 0
    outer loop
      vertex 0.313953 214.01 0
      vertex 0.313953 214.01 -3.5
      vertex 0.626666 214.039 -3.5
    endloop
  endfacet
  facet normal 0.0941081 -0.995562 0
    outer loop
      vertex 0.626666 214.039 0
      vertex 0.313953 214.01 0
      vertex 0.626666 214.039 -3.5
    endloop
  endfacet
  facet normal 0.0314096 -0.999507 0
    outer loop
      vertex 1.11022e-15 214 0
      vertex 1.11022e-15 214 -3.5
      vertex 0.313953 214.01 -3.5
    endloop
  endfacet
  facet normal 0.0314096 -0.999507 0
    outer loop
      vertex 0.313953 214.01 0
      vertex 1.11022e-15 214 0
      vertex 0.313953 214.01 -3.5
    endloop
  endfacet
  facet normal 0 0 -1
    outer loop
      vertex 0 219 -3.5
      vertex 5 219 -3.5
      vertex 1.11022e-15 214 -3.5
    endloop
  endfacet
  facet normal 0 0 -1
    outer loop
      vertex 1.11022e-15 214 -3.5
      vertex 5 219 -3.5
      vertex 4.99013 218.686 -3.5
    endloop
  endfacet
  facet normal 0 0 -1
    outer loop
      vertex 1.11022e-15 214 -3.5
      vertex 4.99013 218.686 -3.5
      vertex 4.96057 218.373 -3.5
    endloop
  endfacet
  facet normal 0 0 -1
    outer loop
      vertex 1.11022e-15 214 -3.5
      vertex 4.96057 218.373 -3.5
      vertex 4.91144 218.063 -3.5
    endloop
  endfacet
  facet normal 0 0 -1
    outer loop
      vertex 1.11022e-15 214 -3.5
      vertex 4.91144 218.063 -3.5
      vertex 4.84292 217.757 -3.5
    endloop
  endfacet
  facet normal 0 0 -1
    outer loop
      vertex 1.11022e-15 214 -3.5
      vertex 4.84292 217.757 -3.5
      vertex 4.75528 217.455 -3.5
    endloop
  endfacet
  facet normal 0 0 -1
    outer loop
      vertex 1.11022e-15 214 -3.5
      vertex 4.75528 217.455 -3.5
      vertex 4.64888 217.159 -3.5
    endloop
  endfacet
  facet normal 0 0 -1
    outer loop
      vertex 1.11022e-15 214 -3.5
      vertex 4.64888 217.159 -3.5
      vertex 4.52413 216.871 -3.5
    endloop
  endfacet
  facet normal 0 0 -1
    outer loop
      vertex 1.11022e-15 214 -3.5
      vertex 4.52413 216.871 -3.5
      vertex 4.38153 216.591 -3.5
    endloop
  endfacet
  facet normal 0 0 -1
    outer loop
      vertex 1.11022e-15 214 -3.5
      vertex 4.38153 216.591 -3.5
      vertex 4.22164 216.321 -3.5
    endloop
  endfacet
  facet normal 0 0 -1
    outer loop
      vertex 1.11022e-15 214 -3.5
      vertex 4.22164 216.321 -3.5
      vertex 4.04508 216.061 -3.5
    endloop
  endfacet
  facet normal 0 0 -1
    outer loop
      vertex 1.11022e-15 214 -3.5
      vertex 4.04508 216.061 -3.5
      vertex 3.85257 215.813 -3.5
    endloop
  endfacet
  facet normal 0 0 -1
    outer loop
      vertex 1.11022e-15 214 -3.5
      vertex 3.85257 215.813 -3.5
      vertex 3.64484 215.577 -3.5
    endloop
  endfacet
  facet normal 0 0 -1
    outer loop
      vertex 1.11022e-15 214 -3.5
      vertex 3.64484 215.577 -3.5
      vertex 3.42274 215.355 -3.5
    endloop
  endfacet
  facet normal 0 0 -1
    outer loop
      vertex 1.11022e-15 214 -3.5
      vertex 3.42274 215.355 -3.5
      vertex 3.18712 215.147 -3.5
    endloop
  endfacet
  facet normal 0 0 -1
    outer loop
      vertex 1.11022e-15 214 -3.5
      vertex 3.18712 215.147 -3.5
      vertex 2.93893 214.955 -3.5
    endloop
  endfacet
  facet normal 0 0 -1
    outer loop
      vertex 1.11022e-15 214 -3.5
      vertex 2.93893 214.955 -3.5
      vertex 2.67913 214.778 -3.5
    endloop
  endfacet
  facet normal 0 0 -1
    outer loop
      vertex 1.11022e-15 214 -3.5
      vertex 2.67913 214.778 -3.5
      vertex 2.40877 214.618 -3.5
    endloop
  endfacet
  facet normal 0 0 -1
    outer loop
      vertex 1.11022e-15 214 -3.5
      vertex 2.40877 214.618 -3.5
      vertex 2.1289 214.476 -3.5
    endloop
  endfacet
  facet normal 0 0 -1
    outer loop
      vertex 1.11022e-15 214 -3.5
      vertex 2.1289 214.476 -3.5
      vertex 1.84062 214.351 -3.5
    endloop
  endfacet
  facet normal 0 0 -1
    outer loop
      vertex 1.11022e-15 214 -3.5
      vertex 1.84062 214.351 -3.5
      vertex 1.54509 214.245 -3.5
    endloop
  endfacet
  facet normal 0 0 -1
    outer loop
      vertex 1.11022e-15 214 -3.5
      vertex 1.54509 214.245 -3.5
      vertex 1.24345 214.157 -3.5
    endloop
  endfacet
  facet normal 0 0 -1
    outer loop
      vertex 1.11022e-15 214 -3.5
      vertex 1.24345 214.157 -3.5
      vertex 0.936907 214.089 -3.5
    endloop
  endfacet
  facet normal 0 0 -1
    outer loop
      vertex 1.11022e-15 214 -3.5
      vertex 0.936907 214.089 -3.5
      vertex 0.626666 214.039 -3.5
    endloop
  endfacet
  facet normal 0 0 -1
    outer loop
      vertex 1.11022e-15 214 -3.5
      vertex 0.626666 214.039 -3.5
      vertex 0.313953 214.01 -3.5
    endloop
  endfacet
  facet normal 1 0 0
    outer loop
      vertex 2 217 2
      vertex 2 217 40
      vertex 2 2 40
    endloop
  endfacet
  facet normal 1 0 0
    outer loop
      vertex 2 2 2
      vertex 2 217 2
      vertex 2 2 40
    endloop
  endfacet
  facet normal 0 1 0
    outer loop
      vertex 117 2 40
      vertex 117 2 2
      vertex 2 2 40
    endloop
  endfacet
  facet normal 0 1 0
    outer loop
      vertex 2 2 40
      vertex 117 2 2
      vertex 2 2 2
    endloop
  endfacet
  facet normal -1 0 0
    outer loop
      vertex 117 217 40
      vertex 117 217 2
      vertex 117 2 40
    endloop
  endfacet
  facet normal -1 0 0
    outer loop
      vertex 117 2 40
      vertex 117 217 2
      vertex 117 2 2
    endloop
  endfacet
  facet normal 0 -1 0
    outer loop
      vertex 117 217 2
      vertex 117 217 40
      vertex 2 217 40
    endloop
  endfacet
  facet normal 0 -1 0
    outer loop
      vertex 2 217 2
      vertex 117 217 2
      vertex 2 217 40
    endloop
  endfacet
  facet normal 0 0 -1
    outer loop
      vertex 114 1.11022e-15 -3.5
      vertex 114.01 0.313953 -3.5
      vertex 119 0 -3.5
    endloop
  endfacet
  facet normal 0 0 -1
    outer loop
      vertex 119 0 -3.5
      vertex 114.01 0.313953 -3.5
      vertex 114.039 0.626666 -3.5
    endloop
  endfacet
  facet normal 0 0 -1
    outer loop
      vertex 119 0 -3.5
      vertex 114.039 0.626666 -3.5
      vertex 114.089 0.936907 -3.5
    endloop
  endfacet
  facet normal 0 0 -1
    outer loop
      vertex 119 0 -3.5
      vertex 114.089 0.936907 -3.5
      vertex 114.157 1.24345 -3.5
    endloop
  endfacet
  facet normal 0 0 -1
    outer loop
      vertex 119 0 -3.5
      vertex 114.157 1.24345 -3.5
      vertex 114.245 1.54509 -3.5
    endloop
  endfacet
  facet normal 0 0 -1
    outer loop
      vertex 119 0 -3.5
      vertex 114.245 1.54509 -3.5
      vertex 114.351 1.84062 -3.5
    endloop
  endfacet
  facet normal 0 0 -1
    outer loop
      vertex 119 0 -3.5
      vertex 114.351 1.84062 -3.5
      vertex 114.476 2.1289 -3.5
    endloop
  endfacet
  facet normal 0 0 -1
    outer loop
      vertex 119 0 -3.5
      vertex 114.476 2.1289 -3.5
      vertex 114.618 2.40877 -3.5
    endloop
  endfacet
  facet normal 0 0 -1
    outer loop
      vertex 119 0 -3.5
      vertex 114.618 2.40877 -3.5
      vertex 114.778 2.67913 -3.5
    endloop
  endfacet
  facet normal 0 0 -1
    outer loop
      vertex 119 0 -3.5
      vertex 114.778 2.67913 -3.5
      vertex 114.955 2.93893 -3.5
    endloop
  endfacet
  facet normal 0 0 -1
    outer loop
      vertex 119 0 -3.5
      vertex 114.955 2.93893 -3.5
      vertex 115.147 3.18712 -3.5
    endloop
  endfacet
  facet normal 0 0 -1
    outer loop
      vertex 119 0 -3.5
      vertex 115.147 3.18712 -3.5
      vertex 115.355 3.42274 -3.5
    endloop
  endfacet
  facet normal 0 0 -1
    outer loop
      vertex 119 0 -3.5
      vertex 115.355 3.42274 -3.5
      vertex 115.577 3.64484 -3.5
    endloop
  endfacet
  facet normal 0 0 -1
    outer loop
      vertex 119 0 -3.5
      vertex 115.577 3.64484 -3.5
      vertex 115.813 3.85257 -3.5
    endloop
  endfacet
  facet normal 0 0 -1
    outer loop
      vertex 119 0 -3.5
      vertex 115.813 3.85257 -3.5
      vertex 116.061 4.04508 -3.5
    endloop
  endfacet
  facet normal 0 0 -1
    outer loop
      vertex 119 0 -3.5
      vertex 116.061 4.04508 -3.5
      vertex 116.321 4.22164 -3.5
    endloop
  endfacet
  facet normal 0 0 -1
    outer loop
      vertex 119 0 -3.5
      vertex 116.321 4.22164 -3.5
      vertex 116.591 4.38153 -3.5
    endloop
  endfacet
  facet normal 0 0 -1
    outer loop
      vertex 119 0 -3.5
      vertex 116.591 4.38153 -3.5
      vertex 116.871 4.52413 -3.5
    endloop
  endfacet
  facet normal 0 0 -1
    outer loop
      vertex 119 0 -3.5
      vertex 116.871 4.52413 -3.5
      vertex 117.159 4.64888 -3.5
    endloop
  endfacet
  facet normal 0 0 -1
    outer loop
      vertex 119 0 -3.5
      vertex 117.159 4.64888 -3.5
      vertex 117.455 4.75528 -3.5
    endloop
  endfacet
  facet normal 0 0 -1
    outer loop
      vertex 119 0 -3.5
      vertex 117.455 4.75528 -3.5
      vertex 117.757 4.84292 -3.5
    endloop
  endfacet
  facet normal 0 0 -1
    outer loop
      vertex 119 0 -3.5
      vertex 117.757 4.84292 -3.5
      vertex 118.063 4.91144 -3.5
    endloop
  endfacet
  facet normal 0 0 -1
    outer loop
      vertex 119 0 -3.5
      vertex 118.063 4.91144 -3.5
      vertex 118.373 4.96057 -3.5
    endloop
  endfacet
  facet normal 0 0 -1
    outer loop
      vertex 119 0 -3.5
      vertex 118.373 4.96057 -3.5
      vertex 118.686 4.99013 -3.5
    endloop
  endfacet
  facet normal 0 0 -1
    outer loop
      vertex 119 0 -3.5
      vertex 118.686 4.99013 -3.5
      vertex 119 5 -3.5
    endloop
  endfacet
  facet normal 0 0 -1
    outer loop
      vertex 114 219 -3.5
      vertex 119 219 -3.5
      vertex 114.01 218.686 -3.5
    endloop
  endfacet
  facet normal 0 0 -1
    outer loop
      vertex 114.01 218.686 -3.5
      vertex 119 219 -3.5
      vertex 119 214 -3.5
    endloop
  endfacet
  facet normal 0 0 -1
    outer loop
      vertex 114.01 218.686 -3.5
      vertex 119 214 -3.5
      vertex 118.686 214.01 -3.5
    endloop
  endfacet
  facet normal 0 0 -1
    outer loop
      vertex 114.01 218.686 -3.5
      vertex 118.686 214.01 -3.5
      vertex 118.373 214.039 -3.5
    endloop
  endfacet
  facet normal 0 0 -1
    outer loop
      vertex 114.01 218.686 -3.5
      vertex 118.373 214.039 -3.5
      vertex 118.063 214.089 -3.5
    endloop
  endfacet
  facet normal 0 0 -1
    outer loop
      vertex 114.01 218.686 -3.5
      vertex 118.063 214.089 -3.5
      vertex 117.757 214.157 -3.5
    endloop
  endfacet
  facet normal 0 0 -1
    outer loop
      vertex 114.01 218.686 -3.5
      vertex 117.757 214.157 -3.5
      vertex 117.455 214.245 -3.5
    endloop
  endfacet
  facet normal 0 0 -1
    outer loop
      vertex 114.01 218.686 -3.5
      vertex 117.455 214.245 -3.5
      vertex 117.159 214.351 -3.5
    endloop
  endfacet
  facet normal 0 0 -1
    outer loop
      vertex 114.01 218.686 -3.5
      vertex 117.159 214.351 -3.5
      vertex 116.871 214.476 -3.5
    endloop
  endfacet
  facet normal 0 0 -1
    outer loop
      vertex 114.01 218.686 -3.5
      vertex 116.871 214.476 -3.5
      vertex 116.591 214.618 -3.5
    endloop
  endfacet
  facet normal 0 0 -1
    outer loop
      vertex 114.01 218.686 -3.5
      vertex 116.591 214.618 -3.5
      vertex 116.321 214.778 -3.5
    endloop
  endfacet
  facet normal 0 0 -1
    outer loop
      vertex 114.01 218.686 -3.5
      vertex 116.321 214.778 -3.5
      vertex 116.061 214.955 -3.5
    endloop
  endfacet
  facet normal 0 0 -1
    outer loop
      vertex 114.01 218.686 -3.5
      vertex 116.061 214.955 -3.5
      vertex 115.813 215.147 -3.5
    endloop
  endfacet
  facet normal 0 0 -1
    outer loop
      vertex 114.01 218.686 -3.5
      vertex 115.813 215.147 -3.5
      vertex 115.577 215.355 -3.5
    endloop
  endfacet
  facet normal 0 0 -1
    outer loop
      vertex 114.01 218.686 -3.5
      vertex 115.577 215.355 -3.5
      vertex 115.355 215.577 -3.5
    endloop
  endfacet
  facet normal 0 0 -1
    outer loop
      vertex 114.01 218.686 -3.5
      vertex 115.355 215.577 -3.5
      vertex 115.147 215.813 -3.5
    endloop
  endfacet
  facet normal 0 0 -1
    outer loop
      vertex 114.01 218.686 -3.5
      vertex 115.147 215.813 -3.5
      vertex 114.955 216.061 -3.5
    endloop
  endfacet
  facet normal 0 0 -1
    outer loop
      vertex 114.01 218.686 -3.5
      vertex 114.955 216.061 -3.5
      vertex 114.778 216.321 -3.5
    endloop
  endfacet
  facet normal 0 0 -1
    outer loop
      vertex 114.01 218.686 -3.5
      vertex 114.778 216.321 -3.5
      vertex 114.618 216.591 -3.5
    endloop
  endfacet
  facet normal 0 0 -1
    outer loop
      vertex 114.01 218.686 -3.5
      vertex 114.618 216.591 -3.5
      vertex 114.476 216.871 -3.5
    endloop
  endfacet
  facet normal 0 0 -1
    outer loop
      vertex 114.01 218.686 -3.5
      vertex 114.476 216.871 -3.5
      vertex 114.351 217.159 -3.5
    endloop
  endfacet
  facet normal 0 0 -1
    outer loop
      vertex 114.01 218.686 -3.5
      vertex 114.351 217.159 -3.5
      vertex 114.245 217.455 -3.5
    endloop
  endfacet
  facet normal 0 0 -1
    outer loop
      vertex 114.01 218.686 -3.5
      vertex 114.245 217.455 -3.5
      vertex 114.157 217.757 -3.5
    endloop
  endfacet
  facet normal 0 0 -1
    outer loop
      vertex 114.01 218.686 -3.5
      vertex 114.157 217.757 -3.5
      vertex 114.089 218.063 -3.5
    endloop
  endfacet
  facet normal 0 0 -1
    outer loop
      vertex 114.01 218.686 -3.5
      vertex 114.089 218.063 -3.5
      vertex 114.039 218.373 -3.5
    endloop
  endfacet
  facet normal 0 0 1
    outer loop
      vertex 117 2 2
      vertex 117 217 2
      vertex 2 217 2
    endloop
  endfacet
  facet normal 0 0 1
    outer loop
      vertex 2 2 2
      vertex 117 2 2
      vertex 2 217 2
    endloop
  endfacet
endsolid OpenSCAD_Model
