solid OpenSCAD_Model
  facet normal -1 0 0
    outer loop
      vertex 0 0 -3.5
      vertex 0 0 40
      vertex 0 5 -3.5
    endloop
  endfacet
  facet normal -1 0 0
    outer loop
      vertex 0 5 0
      vertex 0 0 40
      vertex 0 164 40
    endloop
  endfacet
  facet normal -1 0 0
    outer loop
      vertex 0 5 -3.5
      vertex 0 0 40
      vertex 0 5 0
    endloop
  endfacet
  facet normal -1 0 0
    outer loop
      vertex 0 5 0
      vertex 0 164 40
      vertex 0 164 0
    endloop
  endfacet
  facet normal 0 -1 0
    outer loop
      vertex 0 0 40
      vertex 0 0 -3.5
      vertex 5 0 -3.5
    endloop
  endfacet
  facet normal 0 -1 0
    outer loop
      vertex 159 0 0
      vertex 0 0 40
      vertex 5 0 0
    endloop
  endfacet
  facet normal 0 -1 0
    outer loop
      vertex 5 0 0
      vertex 0 0 40
      vertex 5 0 -3.5
    endloop
  endfacet
  facet normal 0 -1 0
    outer loop
      vertex 159 0 40
      vertex 0 0 40
      vertex 159 0 0
    endloop
  endfacet
  facet normal 0 0 -1
    outer loop
      vertex 0 0 -3.5
      vertex 0 5 -3.5
      vertex 5 0 -3.5
    endloop
  endfacet
  facet normal 0 0 -1
    outer loop
      vertex 5 0 -3.5
      vertex 0 5 -3.5
      vertex 0.313953 4.99013 -3.5
    endloop
  endfacet
  facet normal 0 0 -1
    outer loop
      vertex 5 0 -3.5
      vertex 0.313953 4.99013 -3.5
      vertex 0.626666 4.96057 -3.5
    endloop
  endfacet
  facet normal 0 0 -1
    outer loop
      vertex 5 0 -3.5
      vertex 0.626666 4.96057 -3.5
      vertex 0.936907 4.91144 -3.5
    endloop
  endfacet
  facet normal 0 0 -1
    outer loop
      vertex 5 0 -3.5
      vertex 0.936907 4.91144 -3.5
      vertex 1.24345 4.84292 -3.5
    endloop
  endfacet
  facet normal 0 0 -1
    outer loop
      vertex 5 0 -3.5
      vertex 1.24345 4.84292 -3.5
      vertex 1.54508 4.75528 -3.5
    endloop
  endfacet
  facet normal 0 0 -1
    outer loop
      vertex 5 0 -3.5
      vertex 1.54508 4.75528 -3.5
      vertex 1.84062 4.64888 -3.5
    endloop
  endfacet
  facet normal 0 0 -1
    outer loop
      vertex 5 0 -3.5
      vertex 1.84062 4.64888 -3.5
      vertex 2.1289 4.52413 -3.5
    endloop
  endfacet
  facet normal 0 0 -1
    outer loop
      vertex 5 0 -3.5
      vertex 2.1289 4.52413 -3.5
      vertex 2.40877 4.38153 -3.5
    endloop
  endfacet
  facet normal 0 0 -1
    outer loop
      vertex 5 0 -3.5
      vertex 2.40877 4.38153 -3.5
      vertex 2.67913 4.22164 -3.5
    endloop
  endfacet
  facet normal 0 0 -1
    outer loop
      vertex 5 0 -3.5
      vertex 2.67913 4.22164 -3.5
      vertex 2.93893 4.04508 -3.5
    endloop
  endfacet
  facet normal 0 0 -1
    outer loop
      vertex 5 0 -3.5
      vertex 2.93893 4.04508 -3.5
      vertex 3.18712 3.85257 -3.5
    endloop
  endfacet
  facet normal 0 0 -1
    outer loop
      vertex 5 0 -3.5
      vertex 3.18712 3.85257 -3.5
      vertex 3.42274 3.64484 -3.5
    endloop
  endfacet
  facet normal 0 0 -1
    outer loop
      vertex 5 0 -3.5
      vertex 3.42274 3.64484 -3.5
      vertex 3.64484 3.42274 -3.5
    endloop
  endfacet
  facet normal 0 0 -1
    outer loop
      vertex 5 0 -3.5
      vertex 3.64484 3.42274 -3.5
      vertex 3.85257 3.18712 -3.5
    endloop
  endfacet
  facet normal 0 0 -1
    outer loop
      vertex 5 0 -3.5
      vertex 3.85257 3.18712 -3.5
      vertex 4.04508 2.93893 -3.5
    endloop
  endfacet
  facet normal 0 0 -1
    outer loop
      vertex 5 0 -3.5
      vertex 4.04508 2.93893 -3.5
      vertex 4.22164 2.67913 -3.5
    endloop
  endfacet
  facet normal 0 0 -1
    outer loop
      vertex 5 0 -3.5
      vertex 4.22164 2.67913 -3.5
      vertex 4.38153 2.40877 -3.5
    endloop
  endfacet
  facet normal 0 0 -1
    outer loop
      vertex 5 0 -3.5
      vertex 4.38153 2.40877 -3.5
      vertex 4.52413 2.1289 -3.5
    endloop
  endfacet
  facet normal 0 0 -1
    outer loop
      vertex 5 0 -3.5
      vertex 4.52413 2.1289 -3.5
      vertex 4.64888 1.84062 -3.5
    endloop
  endfacet
  facet normal 0 0 -1
    outer loop
      vertex 5 0 -3.5
      vertex 4.64888 1.84062 -3.5
      vertex 4.75528 1.54508 -3.5
    endloop
  endfacet
  facet normal 0 0 -1
    outer loop
      vertex 5 0 -3.5
      vertex 4.75528 1.54508 -3.5
      vertex 4.84292 1.24345 -3.5
    endloop
  endfacet
  facet normal 0 0 -1
    outer loop
      vertex 5 0 -3.5
      vertex 4.84292 1.24345 -3.5
      vertex 4.91144 0.936907 -3.5
    endloop
  endfacet
  facet normal 0 0 -1
    outer loop
      vertex 5 0 -3.5
      vertex 4.91144 0.936907 -3.5
      vertex 4.96057 0.626666 -3.5
    endloop
  endfacet
  facet normal 0 0 -1
    outer loop
      vertex 5 0 -3.5
      vertex 4.96057 0.626666 -3.5
      vertex 4.99013 0.313953 -3.5
    endloop
  endfacet
  facet normal 0.0314096 0.999507 0
    outer loop
      vertex 0 5 -3.5
      vertex 0 5 0
      vertex 0.313953 4.99013 -3.5
    endloop
  endfacet
  facet normal 0.0314096 0.999507 0
    outer loop
      vertex 0.313953 4.99013 -3.5
      vertex 0 5 0
      vertex 0.313953 4.99013 0
    endloop
  endfacet
  facet normal 0 0 -1
    outer loop
      vertex 0 5 0
      vertex 1.11022e-15 159 0
      vertex 0.313953 4.99013 0
    endloop
  endfacet
  facet normal 0 0 -1
    outer loop
      vertex 0 5 0
      vertex 0 164 0
      vertex 1.11022e-15 159 0
    endloop
  endfacet
  facet normal 0 0 -1
    outer loop
      vertex 0.313953 4.99013 0
      vertex 0.313953 159.01 0
      vertex 0.626666 159.039 0
    endloop
  endfacet
  facet normal 0 0 -1
    outer loop
      vertex 0.626666 159.039 0
      vertex 0.936907 159.089 0
      vertex 0.313953 4.99013 0
    endloop
  endfacet
  facet normal 0 0 -1
    outer loop
      vertex 0.936907 159.089 0
      vertex 1.24345 159.157 0
      vertex 0.313953 4.99013 0
    endloop
  endfacet
  facet normal 0 0 -1
    outer loop
      vertex 1.24345 159.157 0
      vertex 1.54509 159.245 0
      vertex 0.313953 4.99013 0
    endloop
  endfacet
  facet normal 0 0 -1
    outer loop
      vertex 1.54509 159.245 0
      vertex 1.84062 159.351 0
      vertex 0.313953 4.99013 0
    endloop
  endfacet
  facet normal 0 0 -1
    outer loop
      vertex 1.84062 159.351 0
      vertex 2.1289 159.476 0
      vertex 0.313953 4.99013 0
    endloop
  endfacet
  facet normal 0 0 -1
    outer loop
      vertex 2.1289 159.476 0
      vertex 2.40877 159.618 0
      vertex 0.313953 4.99013 0
    endloop
  endfacet
  facet normal 0 0 -1
    outer loop
      vertex 2.40877 159.618 0
      vertex 2.67913 159.778 0
      vertex 0.313953 4.99013 0
    endloop
  endfacet
  facet normal 0 0 -1
    outer loop
      vertex 2.67913 159.778 0
      vertex 2.93893 159.955 0
      vertex 0.313953 4.99013 0
    endloop
  endfacet
  facet normal 0 0 -1
    outer loop
      vertex 2.93893 159.955 0
      vertex 3.18712 160.147 0
      vertex 0.313953 4.99013 0
    endloop
  endfacet
  facet normal 0 0 -1
    outer loop
      vertex 3.18712 160.147 0
      vertex 3.42274 160.355 0
      vertex 0.313953 4.99013 0
    endloop
  endfacet
  facet normal 0 0 -1
    outer loop
      vertex 3.42274 160.355 0
      vertex 3.64484 160.577 0
      vertex 0.313953 4.99013 0
    endloop
  endfacet
  facet normal 0 0 -1
    outer loop
      vertex 3.64484 160.577 0
      vertex 3.85257 160.813 0
      vertex 0.313953 4.99013 0
    endloop
  endfacet
  facet normal 0 0 -1
    outer loop
      vertex 3.85257 160.813 0
      vertex 4.04508 161.061 0
      vertex 0.313953 4.99013 0
    endloop
  endfacet
  facet normal 0 0 -1
    outer loop
      vertex 4.04508 161.061 0
      vertex 4.22164 161.321 0
      vertex 0.313953 4.99013 0
    endloop
  endfacet
  facet normal 0 0 -1
    outer loop
      vertex 4.22164 161.321 0
      vertex 4.38153 161.591 0
      vertex 0.313953 4.99013 0
    endloop
  endfacet
  facet normal 0 0 -1
    outer loop
      vertex 4.38153 161.591 0
      vertex 4.52413 161.871 0
      vertex 0.313953 4.99013 0
    endloop
  endfacet
  facet normal 0 0 -1
    outer loop
      vertex 4.52413 161.871 0
      vertex 4.64888 162.159 0
      vertex 0.313953 4.99013 0
    endloop
  endfacet
  facet normal 0 0 -1
    outer loop
      vertex 4.64888 162.159 0
      vertex 4.75528 162.455 0
      vertex 0.313953 4.99013 0
    endloop
  endfacet
  facet normal 0 0 -1
    outer loop
      vertex 4.75528 162.455 0
      vertex 4.84292 162.757 0
      vertex 0.313953 4.99013 0
    endloop
  endfacet
  facet normal 0 0 -1
    outer loop
      vertex 4.84292 162.757 0
      vertex 4.91144 163.063 0
      vertex 0.313953 4.99013 0
    endloop
  endfacet
  facet normal 0 0 -1
    outer loop
      vertex 4.91144 163.063 0
      vertex 4.96057 163.373 0
      vertex 0.313953 4.99013 0
    endloop
  endfacet
  facet normal 0 0 -1
    outer loop
      vertex 4.96057 163.373 0
      vertex 4.99013 163.686 0
      vertex 0.313953 4.99013 0
    endloop
  endfacet
  facet normal 0 0 -1
    outer loop
      vertex 4.99013 163.686 0
      vertex 5 164 0
      vertex 0.313953 4.99013 0
    endloop
  endfacet
  facet normal 0 0 -1
    outer loop
      vertex 0.313953 4.99013 0
      vertex 5 164 0
      vertex 154 164 0
    endloop
  endfacet
  facet normal 0 0 -1
    outer loop
      vertex 0.313953 4.99013 0
      vertex 154 164 0
      vertex 154.01 163.686 0
    endloop
  endfacet
  facet normal 0 0 -1
    outer loop
      vertex 0.313953 4.99013 0
      vertex 154.01 163.686 0
      vertex 154.039 163.373 0
    endloop
  endfacet
  facet normal 0 0 -1
    outer loop
      vertex 154.039 163.373 0
      vertex 154.089 163.063 0
      vertex 0.313953 4.99013 0
    endloop
  endfacet
  facet normal 0 0 -1
    outer loop
      vertex 154.089 163.063 0
      vertex 154.157 162.757 0
      vertex 0.313953 4.99013 0
    endloop
  endfacet
  facet normal 0 0 -1
    outer loop
      vertex 154.157 162.757 0
      vertex 154.245 162.455 0
      vertex 0.313953 4.99013 0
    endloop
  endfacet
  facet normal 0 0 -1
    outer loop
      vertex 154.245 162.455 0
      vertex 154.351 162.159 0
      vertex 0.313953 4.99013 0
    endloop
  endfacet
  facet normal 0 0 -1
    outer loop
      vertex 154.351 162.159 0
      vertex 154.476 161.871 0
      vertex 0.313953 4.99013 0
    endloop
  endfacet
  facet normal 0 0 -1
    outer loop
      vertex 154.476 161.871 0
      vertex 154.618 161.591 0
      vertex 0.313953 4.99013 0
    endloop
  endfacet
  facet normal 0 0 -1
    outer loop
      vertex 154.618 161.591 0
      vertex 154.778 161.321 0
      vertex 0.313953 4.99013 0
    endloop
  endfacet
  facet normal 0 0 -1
    outer loop
      vertex 154.778 161.321 0
      vertex 154.955 161.061 0
      vertex 0.313953 4.99013 0
    endloop
  endfacet
  facet normal 0 0 -1
    outer loop
      vertex 154.955 161.061 0
      vertex 155.147 160.813 0
      vertex 0.313953 4.99013 0
    endloop
  endfacet
  facet normal 0 0 -1
    outer loop
      vertex 155.147 160.813 0
      vertex 155.355 160.577 0
      vertex 0.313953 4.99013 0
    endloop
  endfacet
  facet normal 0 0 -1
    outer loop
      vertex 155.355 160.577 0
      vertex 155.577 160.355 0
      vertex 0.313953 4.99013 0
    endloop
  endfacet
  facet normal 0 0 -1
    outer loop
      vertex 155.577 160.355 0
      vertex 155.813 160.147 0
      vertex 0.313953 4.99013 0
    endloop
  endfacet
  facet normal 0 0 -1
    outer loop
      vertex 155.813 160.147 0
      vertex 156.061 159.955 0
      vertex 0.313953 4.99013 0
    endloop
  endfacet
  facet normal 0 0 -1
    outer loop
      vertex 156.061 159.955 0
      vertex 156.321 159.778 0
      vertex 0.313953 4.99013 0
    endloop
  endfacet
  facet normal 0 0 -1
    outer loop
      vertex 156.321 159.778 0
      vertex 156.591 159.618 0
      vertex 0.313953 4.99013 0
    endloop
  endfacet
  facet normal 0 0 -1
    outer loop
      vertex 156.591 159.618 0
      vertex 156.871 159.476 0
      vertex 0.313953 4.99013 0
    endloop
  endfacet
  facet normal 0 0 -1
    outer loop
      vertex 156.871 159.476 0
      vertex 157.159 159.351 0
      vertex 0.313953 4.99013 0
    endloop
  endfacet
  facet normal 0 0 -1
    outer loop
      vertex 157.159 159.351 0
      vertex 157.455 159.245 0
      vertex 0.313953 4.99013 0
    endloop
  endfacet
  facet normal 0 0 -1
    outer loop
      vertex 157.455 159.245 0
      vertex 157.757 159.157 0
      vertex 0.313953 4.99013 0
    endloop
  endfacet
  facet normal 0 0 -1
    outer loop
      vertex 157.757 159.157 0
      vertex 158.063 159.089 0
      vertex 0.313953 4.99013 0
    endloop
  endfacet
  facet normal 0 0 -1
    outer loop
      vertex 158.063 159.089 0
      vertex 158.373 159.039 0
      vertex 0.313953 4.99013 0
    endloop
  endfacet
  facet normal 0 0 -1
    outer loop
      vertex 158.373 159.039 0
      vertex 158.686 159.01 0
      vertex 0.313953 4.99013 0
    endloop
  endfacet
  facet normal 0 0 -1
    outer loop
      vertex 158.686 159.01 0
      vertex 159 159 0
      vertex 0.313953 4.99013 0
    endloop
  endfacet
  facet normal 0 0 -1
    outer loop
      vertex 159 159 0
      vertex 159 164 0
      vertex 159 5 0
    endloop
  endfacet
  facet normal 0 0 -1
    outer loop
      vertex 159 159 0
      vertex 159 5 0
      vertex 0.313953 4.99013 0
    endloop
  endfacet
  facet normal 0 0 -1
    outer loop
      vertex 0.313953 4.99013 0
      vertex 159 5 0
      vertex 158.686 4.99013 0
    endloop
  endfacet
  facet normal 0 0 -1
    outer loop
      vertex 0.313953 4.99013 0
      vertex 158.686 4.99013 0
      vertex 158.373 4.96057 0
    endloop
  endfacet
  facet normal 0 0 -1
    outer loop
      vertex 0.313953 159.01 0
      vertex 0.313953 4.99013 0
      vertex 1.11022e-15 159 0
    endloop
  endfacet
  facet normal 0 0 -1
    outer loop
      vertex 158.373 4.96057 0
      vertex 158.063 4.91144 0
      vertex 0.313953 4.99013 0
    endloop
  endfacet
  facet normal 0 0 -1
    outer loop
      vertex 158.063 4.91144 0
      vertex 157.757 4.84292 0
      vertex 0.313953 4.99013 0
    endloop
  endfacet
  facet normal 0 0 -1
    outer loop
      vertex 157.757 4.84292 0
      vertex 157.455 4.75528 0
      vertex 0.313953 4.99013 0
    endloop
  endfacet
  facet normal 0 0 -1
    outer loop
      vertex 157.455 4.75528 0
      vertex 157.159 4.64888 0
      vertex 0.313953 4.99013 0
    endloop
  endfacet
  facet normal 0 0 -1
    outer loop
      vertex 157.159 4.64888 0
      vertex 156.871 4.52413 0
      vertex 0.313953 4.99013 0
    endloop
  endfacet
  facet normal 0 0 -1
    outer loop
      vertex 156.871 4.52413 0
      vertex 156.591 4.38153 0
      vertex 0.313953 4.99013 0
    endloop
  endfacet
  facet normal 0 0 -1
    outer loop
      vertex 156.591 4.38153 0
      vertex 156.321 4.22164 0
      vertex 0.313953 4.99013 0
    endloop
  endfacet
  facet normal 0 0 -1
    outer loop
      vertex 156.321 4.22164 0
      vertex 156.061 4.04508 0
      vertex 0.313953 4.99013 0
    endloop
  endfacet
  facet normal 0 0 -1
    outer loop
      vertex 156.061 4.04508 0
      vertex 155.813 3.85257 0
      vertex 0.313953 4.99013 0
    endloop
  endfacet
  facet normal 0 0 -1
    outer loop
      vertex 155.813 3.85257 0
      vertex 155.577 3.64484 0
      vertex 0.313953 4.99013 0
    endloop
  endfacet
  facet normal 0 0 -1
    outer loop
      vertex 155.577 3.64484 0
      vertex 155.355 3.42274 0
      vertex 0.313953 4.99013 0
    endloop
  endfacet
  facet normal 0 0 -1
    outer loop
      vertex 155.355 3.42274 0
      vertex 155.147 3.18712 0
      vertex 0.313953 4.99013 0
    endloop
  endfacet
  facet normal 0 0 -1
    outer loop
      vertex 155.147 3.18712 0
      vertex 154.955 2.93893 0
      vertex 0.313953 4.99013 0
    endloop
  endfacet
  facet normal 0 0 -1
    outer loop
      vertex 154.955 2.93893 0
      vertex 154.778 2.67913 0
      vertex 0.313953 4.99013 0
    endloop
  endfacet
  facet normal 0 0 -1
    outer loop
      vertex 154.778 2.67913 0
      vertex 154.618 2.40877 0
      vertex 0.313953 4.99013 0
    endloop
  endfacet
  facet normal 0 0 -1
    outer loop
      vertex 154.618 2.40877 0
      vertex 154.476 2.1289 0
      vertex 0.313953 4.99013 0
    endloop
  endfacet
  facet normal 0 0 -1
    outer loop
      vertex 154.476 2.1289 0
      vertex 154.351 1.84062 0
      vertex 0.313953 4.99013 0
    endloop
  endfacet
  facet normal 0 0 -1
    outer loop
      vertex 154.351 1.84062 0
      vertex 154.245 1.54509 0
      vertex 0.313953 4.99013 0
    endloop
  endfacet
  facet normal 0 0 -1
    outer loop
      vertex 154.245 1.54509 0
      vertex 154.157 1.24345 0
      vertex 0.313953 4.99013 0
    endloop
  endfacet
  facet normal 0 0 -1
    outer loop
      vertex 154.157 1.24345 0
      vertex 154.089 0.936907 0
      vertex 0.313953 4.99013 0
    endloop
  endfacet
  facet normal 0 0 -1
    outer loop
      vertex 154.089 0.936907 0
      vertex 154.039 0.626666 0
      vertex 0.313953 4.99013 0
    endloop
  endfacet
  facet normal 0 0 -1
    outer loop
      vertex 154.039 0.626666 0
      vertex 154.01 0.313953 0
      vertex 0.313953 4.99013 0
    endloop
  endfacet
  facet normal 0 0 -1
    outer loop
      vertex 154.01 0.313953 0
      vertex 154 1.11022e-15 0
      vertex 0.313953 4.99013 0
    endloop
  endfacet
  facet normal 0 0 -1
    outer loop
      vertex 154 1.11022e-15 0
      vertex 159 0 0
      vertex 5 0 0
    endloop
  endfacet
  facet normal 0 0 -1
    outer loop
      vertex 154 1.11022e-15 0
      vertex 5 0 0
      vertex 4.99013 0.313953 0
    endloop
  endfacet
  facet normal 0 0 -1
    outer loop
      vertex 154 1.11022e-15 0
      vertex 4.99013 0.313953 0
      vertex 4.96057 0.626666 0
    endloop
  endfacet
  facet normal 0 0 -1
    outer loop
      vertex 154 1.11022e-15 0
      vertex 4.96057 0.626666 0
      vertex 4.91144 0.936907 0
    endloop
  endfacet
  facet normal 0 0 -1
    outer loop
      vertex 154 1.11022e-15 0
      vertex 4.91144 0.936907 0
      vertex 4.84292 1.24345 0
    endloop
  endfacet
  facet normal 0 0 -1
    outer loop
      vertex 154 1.11022e-15 0
      vertex 4.84292 1.24345 0
      vertex 4.75528 1.54508 0
    endloop
  endfacet
  facet normal 0 0 -1
    outer loop
      vertex 154 1.11022e-15 0
      vertex 4.75528 1.54508 0
      vertex 4.64888 1.84062 0
    endloop
  endfacet
  facet normal 0 0 -1
    outer loop
      vertex 154 1.11022e-15 0
      vertex 4.64888 1.84062 0
      vertex 4.52413 2.1289 0
    endloop
  endfacet
  facet normal 0 0 -1
    outer loop
      vertex 154 1.11022e-15 0
      vertex 4.52413 2.1289 0
      vertex 4.38153 2.40877 0
    endloop
  endfacet
  facet normal 0 0 -1
    outer loop
      vertex 154 1.11022e-15 0
      vertex 4.38153 2.40877 0
      vertex 4.22164 2.67913 0
    endloop
  endfacet
  facet normal 0 0 -1
    outer loop
      vertex 154 1.11022e-15 0
      vertex 4.22164 2.67913 0
      vertex 4.04508 2.93893 0
    endloop
  endfacet
  facet normal 0 0 -1
    outer loop
      vertex 154 1.11022e-15 0
      vertex 4.04508 2.93893 0
      vertex 3.85257 3.18712 0
    endloop
  endfacet
  facet normal 0 0 -1
    outer loop
      vertex 154 1.11022e-15 0
      vertex 3.85257 3.18712 0
      vertex 3.64484 3.42274 0
    endloop
  endfacet
  facet normal 0 0 -1
    outer loop
      vertex 154 1.11022e-15 0
      vertex 3.64484 3.42274 0
      vertex 3.42274 3.64484 0
    endloop
  endfacet
  facet normal 0 0 -1
    outer loop
      vertex 154 1.11022e-15 0
      vertex 3.42274 3.64484 0
      vertex 3.18712 3.85257 0
    endloop
  endfacet
  facet normal 0 0 -1
    outer loop
      vertex 154 1.11022e-15 0
      vertex 3.18712 3.85257 0
      vertex 2.93893 4.04508 0
    endloop
  endfacet
  facet normal 0 0 -1
    outer loop
      vertex 154 1.11022e-15 0
      vertex 2.93893 4.04508 0
      vertex 2.67913 4.22164 0
    endloop
  endfacet
  facet normal 0 0 -1
    outer loop
      vertex 154 1.11022e-15 0
      vertex 2.67913 4.22164 0
      vertex 2.40877 4.38153 0
    endloop
  endfacet
  facet normal 0 0 -1
    outer loop
      vertex 154 1.11022e-15 0
      vertex 2.40877 4.38153 0
      vertex 2.1289 4.52413 0
    endloop
  endfacet
  facet normal 0 0 -1
    outer loop
      vertex 154 1.11022e-15 0
      vertex 2.1289 4.52413 0
      vertex 1.84062 4.64888 0
    endloop
  endfacet
  facet normal 0 0 -1
    outer loop
      vertex 154 1.11022e-15 0
      vertex 1.84062 4.64888 0
      vertex 1.54508 4.75528 0
    endloop
  endfacet
  facet normal 0 0 -1
    outer loop
      vertex 154 1.11022e-15 0
      vertex 1.54508 4.75528 0
      vertex 1.24345 4.84292 0
    endloop
  endfacet
  facet normal 0 0 -1
    outer loop
      vertex 154 1.11022e-15 0
      vertex 1.24345 4.84292 0
      vertex 0.936907 4.91144 0
    endloop
  endfacet
  facet normal 0 0 -1
    outer loop
      vertex 154 1.11022e-15 0
      vertex 0.936907 4.91144 0
      vertex 0.626666 4.96057 0
    endloop
  endfacet
  facet normal 0 0 -1
    outer loop
      vertex 0.313953 4.99013 0
      vertex 154 1.11022e-15 0
      vertex 0.626666 4.96057 0
    endloop
  endfacet
  facet normal -1 -2.22045e-16 0
    outer loop
      vertex 0 164 -3.5
      vertex 1.11022e-15 159 -3.5
      vertex 0 164 0
    endloop
  endfacet
  facet normal -1 -2.22045e-16 0
    outer loop
      vertex 0 164 0
      vertex 1.11022e-15 159 -3.5
      vertex 1.11022e-15 159 0
    endloop
  endfacet
  facet normal -2.22045e-16 1 0
    outer loop
      vertex 0 164 -3.5
      vertex 0 164 0
      vertex 5 164 -3.5
    endloop
  endfacet
  facet normal -2.22045e-16 1 0
    outer loop
      vertex 5 164 -3.5
      vertex 0 164 0
      vertex 5 164 0
    endloop
  endfacet
  facet normal 0 1 0
    outer loop
      vertex 0 164 0
      vertex 0 164 40
      vertex 5 164 0
    endloop
  endfacet
  facet normal 0 1 0
    outer loop
      vertex 5 164 0
      vertex 0 164 40
      vertex 159 164 40
    endloop
  endfacet
  facet normal 0 1 0
    outer loop
      vertex 154 164 0
      vertex 159 164 40
      vertex 159 164 0
    endloop
  endfacet
  facet normal 0 1 0
    outer loop
      vertex 5 164 0
      vertex 159 164 40
      vertex 154 164 0
    endloop
  endfacet
  facet normal 0 0 1
    outer loop
      vertex 2 2 40
      vertex 0 0 40
      vertex 159 0 40
    endloop
  endfacet
  facet normal 0 0 1
    outer loop
      vertex 157 2 40
      vertex 2 2 40
      vertex 159 0 40
    endloop
  endfacet
  facet normal 0 0 1
    outer loop
      vertex 0 164 40
      vertex 0 0 40
      vertex 2 2 40
    endloop
  endfacet
  facet normal 0 0 1
    outer loop
      vertex 159 164 40
      vertex 0 164 40
      vertex 2 162 40
    endloop
  endfacet
  facet normal 0 0 1
    outer loop
      vertex 159 164 40
      vertex 157 162 40
      vertex 159 0 40
    endloop
  endfacet
  facet normal 0 0 1
    outer loop
      vertex 159 164 40
      vertex 2 162 40
      vertex 157 162 40
    endloop
  endfacet
  facet normal 0 0 1
    outer loop
      vertex 157 162 40
      vertex 157 2 40
      vertex 159 0 40
    endloop
  endfacet
  facet normal 0 0 1
    outer loop
      vertex 2 2 40
      vertex 2 162 40
      vertex 0 164 40
    endloop
  endfacet
  facet normal 1 0 0
    outer loop
      vertex 159 0 40
      vertex 159 0 0
      vertex 159 5 0
    endloop
  endfacet
  facet normal 1 0 0
    outer loop
      vertex 159 164 40
      vertex 159 0 40
      vertex 159 164 0
    endloop
  endfacet
  facet normal 1 0 0
    outer loop
      vertex 159 164 0
      vertex 159 0 40
      vertex 159 5 0
    endloop
  endfacet
  facet normal 1 -2.22045e-16 0
    outer loop
      vertex 159 0 0
      vertex 159 0 -3.5
      vertex 159 5 -3.5
    endloop
  endfacet
  facet normal 1 -2.22045e-16 0
    outer loop
      vertex 159 5 0
      vertex 159 0 0
      vertex 159 5 -3.5
    endloop
  endfacet
  facet normal -2.22045e-16 -1 0
    outer loop
      vertex 154 1.11022e-15 0
      vertex 154 1.11022e-15 -3.5
      vertex 159 0 -3.5
    endloop
  endfacet
  facet normal -2.22045e-16 -1 0
    outer loop
      vertex 159 0 0
      vertex 154 1.11022e-15 0
      vertex 159 0 -3.5
    endloop
  endfacet
  facet normal 0.999507 0.0314096 0
    outer loop
      vertex 5 0 -3.5
      vertex 4.99013 0.313953 -3.5
      vertex 4.99013 0.313953 0
    endloop
  endfacet
  facet normal 0.999507 0.0314096 0
    outer loop
      vertex 5 0 0
      vertex 5 0 -3.5
      vertex 4.99013 0.313953 0
    endloop
  endfacet
  facet normal 0.995562 0.0941081 0
    outer loop
      vertex 4.99013 0.313953 -3.5
      vertex 4.96057 0.626666 -3.5
      vertex 4.96057 0.626666 0
    endloop
  endfacet
  facet normal 0.995562 0.0941081 0
    outer loop
      vertex 4.99013 0.313953 0
      vertex 4.99013 0.313953 -3.5
      vertex 4.96057 0.626666 0
    endloop
  endfacet
  facet normal 0.987688 0.156436 0
    outer loop
      vertex 4.96057 0.626666 -3.5
      vertex 4.91144 0.936907 -3.5
      vertex 4.91144 0.936907 0
    endloop
  endfacet
  facet normal 0.987688 0.156436 0
    outer loop
      vertex 4.96057 0.626666 0
      vertex 4.96057 0.626666 -3.5
      vertex 4.91144 0.936907 0
    endloop
  endfacet
  facet normal 0.975917 0.218142 0
    outer loop
      vertex 4.91144 0.936907 -3.5
      vertex 4.84292 1.24345 -3.5
      vertex 4.84292 1.24345 0
    endloop
  endfacet
  facet normal 0.975917 0.218142 0
    outer loop
      vertex 4.91144 0.936907 0
      vertex 4.91144 0.936907 -3.5
      vertex 4.84292 1.24345 0
    endloop
  endfacet
  facet normal 0.960294 0.27899 0
    outer loop
      vertex 4.84292 1.24345 -3.5
      vertex 4.75528 1.54508 -3.5
      vertex 4.75528 1.54508 0
    endloop
  endfacet
  facet normal 0.960294 0.27899 0
    outer loop
      vertex 4.84292 1.24345 0
      vertex 4.84292 1.24345 -3.5
      vertex 4.75528 1.54508 0
    endloop
  endfacet
  facet normal 0.94088 0.33874 0
    outer loop
      vertex 4.75528 1.54508 -3.5
      vertex 4.64888 1.84062 -3.5
      vertex 4.64888 1.84062 0
    endloop
  endfacet
  facet normal 0.94088 0.33874 0
    outer loop
      vertex 4.75528 1.54508 0
      vertex 4.75528 1.54508 -3.5
      vertex 4.64888 1.84062 0
    endloop
  endfacet
  facet normal 0.917754 0.397148 0
    outer loop
      vertex 4.64888 1.84062 -3.5
      vertex 4.52413 2.1289 -3.5
      vertex 4.52413 2.1289 0
    endloop
  endfacet
  facet normal 0.917754 0.397148 0
    outer loop
      vertex 4.64888 1.84062 0
      vertex 4.64888 1.84062 -3.5
      vertex 4.52413 2.1289 0
    endloop
  endfacet
  facet normal 0.891006 0.453991 0
    outer loop
      vertex 4.52413 2.1289 -3.5
      vertex 4.38153 2.40877 -3.5
      vertex 4.38153 2.40877 0
    endloop
  endfacet
  facet normal 0.891006 0.453991 0
    outer loop
      vertex 4.52413 2.1289 0
      vertex 4.52413 2.1289 -3.5
      vertex 4.38153 2.40877 0
    endloop
  endfacet
  facet normal 0.860743 0.509039 0
    outer loop
      vertex 4.38153 2.40877 -3.5
      vertex 4.22164 2.67913 -3.5
      vertex 4.22164 2.67913 0
    endloop
  endfacet
  facet normal 0.860743 0.509039 0
    outer loop
      vertex 4.38153 2.40877 0
      vertex 4.38153 2.40877 -3.5
      vertex 4.22164 2.67913 0
    endloop
  endfacet
  facet normal 0.82708 0.562085 0
    outer loop
      vertex 4.22164 2.67913 -3.5
      vertex 4.04508 2.93893 -3.5
      vertex 4.04508 2.93893 0
    endloop
  endfacet
  facet normal 0.82708 0.562085 0
    outer loop
      vertex 4.22164 2.67913 0
      vertex 4.22164 2.67913 -3.5
      vertex 4.04508 2.93893 0
    endloop
  endfacet
  facet normal 0.790155 0.612907 0
    outer loop
      vertex 4.04508 2.93893 -3.5
      vertex 3.85257 3.18712 -3.5
      vertex 3.85257 3.18712 0
    endloop
  endfacet
  facet normal 0.790155 0.612907 0
    outer loop
      vertex 4.04508 2.93893 0
      vertex 4.04508 2.93893 -3.5
      vertex 3.85257 3.18712 0
    endloop
  endfacet
  facet normal 0.750112 0.661311 0
    outer loop
      vertex 3.85257 3.18712 -3.5
      vertex 3.64484 3.42274 -3.5
      vertex 3.64484 3.42274 0
    endloop
  endfacet
  facet normal 0.750112 0.661311 0
    outer loop
      vertex 3.85257 3.18712 0
      vertex 3.85257 3.18712 -3.5
      vertex 3.64484 3.42274 0
    endloop
  endfacet
  facet normal 0.707107 0.707107 0
    outer loop
      vertex 3.42274 3.64484 -3.5
      vertex 3.42274 3.64484 0
      vertex 3.64484 3.42274 -3.5
    endloop
  endfacet
  facet normal 0.707107 0.707107 0
    outer loop
      vertex 3.64484 3.42274 -3.5
      vertex 3.42274 3.64484 0
      vertex 3.64484 3.42274 0
    endloop
  endfacet
  facet normal 0.661311 0.750112 0
    outer loop
      vertex 3.18712 3.85257 -3.5
      vertex 3.18712 3.85257 0
      vertex 3.42274 3.64484 -3.5
    endloop
  endfacet
  facet normal 0.661311 0.750112 0
    outer loop
      vertex 3.42274 3.64484 -3.5
      vertex 3.18712 3.85257 0
      vertex 3.42274 3.64484 0
    endloop
  endfacet
  facet normal 0.612907 0.790155 0
    outer loop
      vertex 2.93893 4.04508 -3.5
      vertex 2.93893 4.04508 0
      vertex 3.18712 3.85257 -3.5
    endloop
  endfacet
  facet normal 0.612907 0.790155 0
    outer loop
      vertex 3.18712 3.85257 -3.5
      vertex 2.93893 4.04508 0
      vertex 3.18712 3.85257 0
    endloop
  endfacet
  facet normal 0.562085 0.82708 0
    outer loop
      vertex 2.67913 4.22164 -3.5
      vertex 2.67913 4.22164 0
      vertex 2.93893 4.04508 -3.5
    endloop
  endfacet
  facet normal 0.562085 0.82708 0
    outer loop
      vertex 2.93893 4.04508 -3.5
      vertex 2.67913 4.22164 0
      vertex 2.93893 4.04508 0
    endloop
  endfacet
  facet normal 0.509039 0.860743 0
    outer loop
      vertex 2.40877 4.38153 -3.5
      vertex 2.40877 4.38153 0
      vertex 2.67913 4.22164 -3.5
    endloop
  endfacet
  facet normal 0.509039 0.860743 0
    outer loop
      vertex 2.67913 4.22164 -3.5
      vertex 2.40877 4.38153 0
      vertex 2.67913 4.22164 0
    endloop
  endfacet
  facet normal 0.453991 0.891006 0
    outer loop
      vertex 2.1289 4.52413 -3.5
      vertex 2.1289 4.52413 0
      vertex 2.40877 4.38153 -3.5
    endloop
  endfacet
  facet normal 0.453991 0.891006 0
    outer loop
      vertex 2.40877 4.38153 -3.5
      vertex 2.1289 4.52413 0
      vertex 2.40877 4.38153 0
    endloop
  endfacet
  facet normal 0.397148 0.917754 0
    outer loop
      vertex 1.84062 4.64888 -3.5
      vertex 1.84062 4.64888 0
      vertex 2.1289 4.52413 -3.5
    endloop
  endfacet
  facet normal 0.397148 0.917754 0
    outer loop
      vertex 2.1289 4.52413 -3.5
      vertex 1.84062 4.64888 0
      vertex 2.1289 4.52413 0
    endloop
  endfacet
  facet normal 0.33874 0.94088 0
    outer loop
      vertex 1.54508 4.75528 -3.5
      vertex 1.54508 4.75528 0
      vertex 1.84062 4.64888 -3.5
    endloop
  endfacet
  facet normal 0.33874 0.94088 0
    outer loop
      vertex 1.84062 4.64888 -3.5
      vertex 1.54508 4.75528 0
      vertex 1.84062 4.64888 0
    endloop
  endfacet
  facet normal 0.27899 0.960294 0
    outer loop
      vertex 1.24345 4.84292 -3.5
      vertex 1.24345 4.84292 0
      vertex 1.54508 4.75528 -3.5
    endloop
  endfacet
  facet normal 0.27899 0.960294 0
    outer loop
      vertex 1.54508 4.75528 -3.5
      vertex 1.24345 4.84292 0
      vertex 1.54508 4.75528 0
    endloop
  endfacet
  facet normal 0.218142 0.975917 0
    outer loop
      vertex 0.936907 4.91144 -3.5
      vertex 0.936907 4.91144 0
      vertex 1.24345 4.84292 -3.5
    endloop
  endfacet
  facet normal 0.218142 0.975917 0
    outer loop
      vertex 1.24345 4.84292 -3.5
      vertex 0.936907 4.91144 0
      vertex 1.24345 4.84292 0
    endloop
  endfacet
  facet normal 0.156436 0.987688 0
    outer loop
      vertex 0.626666 4.96057 -3.5
      vertex 0.626666 4.96057 0
      vertex 0.936907 4.91144 -3.5
    endloop
  endfacet
  facet normal 0.156436 0.987688 0
    outer loop
      vertex 0.936907 4.91144 -3.5
      vertex 0.626666 4.96057 0
      vertex 0.936907 4.91144 0
    endloop
  endfacet
  facet normal 0.0941081 0.995562 0
    outer loop
      vertex 0.313953 4.99013 -3.5
      vertex 0.313953 4.99013 0
      vertex 0.626666 4.96057 -3.5
    endloop
  endfacet
  facet normal 0.0941081 0.995562 0
    outer loop
      vertex 0.626666 4.96057 -3.5
      vertex 0.313953 4.99013 0
      vertex 0.626666 4.96057 0
    endloop
  endfacet
  facet normal -0.999507 0.0314096 0
    outer loop
      vertex 154 1.11022e-15 -3.5
      vertex 154 1.11022e-15 0
      vertex 154.01 0.313953 -3.5
    endloop
  endfacet
  facet normal -0.999507 0.0314096 0
    outer loop
      vertex 154.01 0.313953 -3.5
      vertex 154 1.11022e-15 0
      vertex 154.01 0.313953 0
    endloop
  endfacet
  facet normal -0.995562 0.0941081 0
    outer loop
      vertex 154.01 0.313953 -3.5
      vertex 154.01 0.313953 0
      vertex 154.039 0.626666 -3.5
    endloop
  endfacet
  facet normal -0.995562 0.0941081 0
    outer loop
      vertex 154.039 0.626666 -3.5
      vertex 154.01 0.313953 0
      vertex 154.039 0.626666 0
    endloop
  endfacet
  facet normal -0.987688 0.156436 0
    outer loop
      vertex 154.039 0.626666 -3.5
      vertex 154.039 0.626666 0
      vertex 154.089 0.936907 -3.5
    endloop
  endfacet
  facet normal -0.987688 0.156436 0
    outer loop
      vertex 154.089 0.936907 -3.5
      vertex 154.039 0.626666 0
      vertex 154.089 0.936907 0
    endloop
  endfacet
  facet normal -0.975917 0.218142 0
    outer loop
      vertex 154.089 0.936907 -3.5
      vertex 154.089 0.936907 0
      vertex 154.157 1.24345 -3.5
    endloop
  endfacet
  facet normal -0.975917 0.218142 0
    outer loop
      vertex 154.157 1.24345 -3.5
      vertex 154.089 0.936907 0
      vertex 154.157 1.24345 0
    endloop
  endfacet
  facet normal -0.960294 0.27899 0
    outer loop
      vertex 154.157 1.24345 -3.5
      vertex 154.157 1.24345 0
      vertex 154.245 1.54509 -3.5
    endloop
  endfacet
  facet normal -0.960294 0.27899 0
    outer loop
      vertex 154.245 1.54509 -3.5
      vertex 154.157 1.24345 0
      vertex 154.245 1.54509 0
    endloop
  endfacet
  facet normal -0.94088 0.33874 0
    outer loop
      vertex 154.245 1.54509 -3.5
      vertex 154.245 1.54509 0
      vertex 154.351 1.84062 -3.5
    endloop
  endfacet
  facet normal -0.94088 0.33874 0
    outer loop
      vertex 154.351 1.84062 -3.5
      vertex 154.245 1.54509 0
      vertex 154.351 1.84062 0
    endloop
  endfacet
  facet normal -0.917754 0.397148 0
    outer loop
      vertex 154.351 1.84062 -3.5
      vertex 154.351 1.84062 0
      vertex 154.476 2.1289 -3.5
    endloop
  endfacet
  facet normal -0.917754 0.397148 0
    outer loop
      vertex 154.476 2.1289 -3.5
      vertex 154.351 1.84062 0
      vertex 154.476 2.1289 0
    endloop
  endfacet
  facet normal -0.891006 0.453991 0
    outer loop
      vertex 154.476 2.1289 -3.5
      vertex 154.476 2.1289 0
      vertex 154.618 2.40877 -3.5
    endloop
  endfacet
  facet normal -0.891006 0.453991 0
    outer loop
      vertex 154.618 2.40877 -3.5
      vertex 154.476 2.1289 0
      vertex 154.618 2.40877 0
    endloop
  endfacet
  facet normal -0.860743 0.509039 0
    outer loop
      vertex 154.618 2.40877 -3.5
      vertex 154.618 2.40877 0
      vertex 154.778 2.67913 -3.5
    endloop
  endfacet
  facet normal -0.860743 0.509039 0
    outer loop
      vertex 154.778 2.67913 -3.5
      vertex 154.618 2.40877 0
      vertex 154.778 2.67913 0
    endloop
  endfacet
  facet normal -0.82708 0.562085 0
    outer loop
      vertex 154.778 2.67913 -3.5
      vertex 154.778 2.67913 0
      vertex 154.955 2.93893 -3.5
    endloop
  endfacet
  facet normal -0.82708 0.562085 0
    outer loop
      vertex 154.955 2.93893 -3.5
      vertex 154.778 2.67913 0
      vertex 154.955 2.93893 0
    endloop
  endfacet
  facet normal -0.790155 0.612907 0
    outer loop
      vertex 154.955 2.93893 -3.5
      vertex 154.955 2.93893 0
      vertex 155.147 3.18712 -3.5
    endloop
  endfacet
  facet normal -0.790155 0.612907 0
    outer loop
      vertex 155.147 3.18712 -3.5
      vertex 154.955 2.93893 0
      vertex 155.147 3.18712 0
    endloop
  endfacet
  facet normal -0.750112 0.661311 0
    outer loop
      vertex 155.147 3.18712 -3.5
      vertex 155.147 3.18712 0
      vertex 155.355 3.42274 -3.5
    endloop
  endfacet
  facet normal -0.750112 0.661311 0
    outer loop
      vertex 155.355 3.42274 -3.5
      vertex 155.147 3.18712 0
      vertex 155.355 3.42274 0
    endloop
  endfacet
  facet normal -0.707107 0.707107 0
    outer loop
      vertex 155.355 3.42274 -3.5
      vertex 155.355 3.42274 0
      vertex 155.577 3.64484 -3.5
    endloop
  endfacet
  facet normal -0.707107 0.707107 0
    outer loop
      vertex 155.577 3.64484 -3.5
      vertex 155.355 3.42274 0
      vertex 155.577 3.64484 0
    endloop
  endfacet
  facet normal -0.661311 0.750112 0
    outer loop
      vertex 155.577 3.64484 -3.5
      vertex 155.577 3.64484 0
      vertex 155.813 3.85257 -3.5
    endloop
  endfacet
  facet normal -0.661311 0.750112 0
    outer loop
      vertex 155.813 3.85257 -3.5
      vertex 155.577 3.64484 0
      vertex 155.813 3.85257 0
    endloop
  endfacet
  facet normal -0.612907 0.790155 0
    outer loop
      vertex 155.813 3.85257 -3.5
      vertex 155.813 3.85257 0
      vertex 156.061 4.04508 -3.5
    endloop
  endfacet
  facet normal -0.612907 0.790155 0
    outer loop
      vertex 156.061 4.04508 -3.5
      vertex 155.813 3.85257 0
      vertex 156.061 4.04508 0
    endloop
  endfacet
  facet normal -0.562085 0.82708 0
    outer loop
      vertex 156.061 4.04508 -3.5
      vertex 156.061 4.04508 0
      vertex 156.321 4.22164 -3.5
    endloop
  endfacet
  facet normal -0.562085 0.82708 0
    outer loop
      vertex 156.321 4.22164 -3.5
      vertex 156.061 4.04508 0
      vertex 156.321 4.22164 0
    endloop
  endfacet
  facet normal -0.509039 0.860743 0
    outer loop
      vertex 156.321 4.22164 -3.5
      vertex 156.321 4.22164 0
      vertex 156.591 4.38153 -3.5
    endloop
  endfacet
  facet normal -0.509039 0.860743 0
    outer loop
      vertex 156.591 4.38153 -3.5
      vertex 156.321 4.22164 0
      vertex 156.591 4.38153 0
    endloop
  endfacet
  facet normal -0.453991 0.891006 0
    outer loop
      vertex 156.591 4.38153 -3.5
      vertex 156.591 4.38153 0
      vertex 156.871 4.52413 -3.5
    endloop
  endfacet
  facet normal -0.453991 0.891006 0
    outer loop
      vertex 156.871 4.52413 -3.5
      vertex 156.591 4.38153 0
      vertex 156.871 4.52413 0
    endloop
  endfacet
  facet normal -0.397148 0.917754 0
    outer loop
      vertex 156.871 4.52413 -3.5
      vertex 156.871 4.52413 0
      vertex 157.159 4.64888 -3.5
    endloop
  endfacet
  facet normal -0.397148 0.917754 0
    outer loop
      vertex 157.159 4.64888 -3.5
      vertex 156.871 4.52413 0
      vertex 157.159 4.64888 0
    endloop
  endfacet
  facet normal -0.33874 0.94088 0
    outer loop
      vertex 157.159 4.64888 -3.5
      vertex 157.159 4.64888 0
      vertex 157.455 4.75528 -3.5
    endloop
  endfacet
  facet normal -0.33874 0.94088 0
    outer loop
      vertex 157.455 4.75528 -3.5
      vertex 157.159 4.64888 0
      vertex 157.455 4.75528 0
    endloop
  endfacet
  facet normal -0.27899 0.960294 0
    outer loop
      vertex 157.455 4.75528 -3.5
      vertex 157.455 4.75528 0
      vertex 157.757 4.84292 -3.5
    endloop
  endfacet
  facet normal -0.27899 0.960294 0
    outer loop
      vertex 157.757 4.84292 -3.5
      vertex 157.455 4.75528 0
      vertex 157.757 4.84292 0
    endloop
  endfacet
  facet normal -0.218142 0.975917 0
    outer loop
      vertex 157.757 4.84292 -3.5
      vertex 157.757 4.84292 0
      vertex 158.063 4.91144 -3.5
    endloop
  endfacet
  facet normal -0.218142 0.975917 0
    outer loop
      vertex 158.063 4.91144 -3.5
      vertex 157.757 4.84292 0
      vertex 158.063 4.91144 0
    endloop
  endfacet
  facet normal -0.156436 0.987688 0
    outer loop
      vertex 158.063 4.91144 -3.5
      vertex 158.063 4.91144 0
      vertex 158.373 4.96057 -3.5
    endloop
  endfacet
  facet normal -0.156436 0.987688 0
    outer loop
      vertex 158.373 4.96057 -3.5
      vertex 158.063 4.91144 0
      vertex 158.373 4.96057 0
    endloop
  endfacet
  facet normal -0.0941081 0.995562 0
    outer loop
      vertex 158.373 4.96057 -3.5
      vertex 158.373 4.96057 0
      vertex 158.686 4.99013 -3.5
    endloop
  endfacet
  facet normal -0.0941081 0.995562 0
    outer loop
      vertex 158.686 4.99013 -3.5
      vertex 158.373 4.96057 0
      vertex 158.686 4.99013 0
    endloop
  endfacet
  facet normal -0.0314096 0.999507 0
    outer loop
      vertex 158.686 4.99013 -3.5
      vertex 158.686 4.99013 0
      vertex 159 5 -3.5
    endloop
  endfacet
  facet normal -0.0314096 0.999507 0
    outer loop
      vertex 159 5 -3.5
      vertex 158.686 4.99013 0
      vertex 159 5 0
    endloop
  endfacet
  facet normal 1.22465e-16 1 0
    outer loop
      vertex 154 164 -3.5
      vertex 154 164 0
      vertex 159 164 -3.5
    endloop
  endfacet
  facet normal 1.22465e-16 1 0
    outer loop
      vertex 159 164 -3.5
      vertex 154 164 0
      vertex 159 164 0
    endloop
  endfacet
  facet normal 1 -1.22465e-16 0
    outer loop
      vertex 159 159 0
      vertex 159 159 -3.5
      vertex 159 164 -3.5
    endloop
  endfacet
  facet normal 1 -1.22465e-16 0
    outer loop
      vertex 159 164 0
      vertex 159 159 0
      vertex 159 164 -3.5
    endloop
  endfacet
  facet normal -0.0314096 -0.999507 0
    outer loop
      vertex 158.686 159.01 0
      vertex 158.686 159.01 -3.5
      vertex 159 159 -3.5
    endloop
  endfacet
  facet normal -0.0314096 -0.999507 0
    outer loop
      vertex 159 159 0
      vertex 158.686 159.01 0
      vertex 159 159 -3.5
    endloop
  endfacet
  facet normal -0.0941081 -0.995562 0
    outer loop
      vertex 158.373 159.039 0
      vertex 158.373 159.039 -3.5
      vertex 158.686 159.01 -3.5
    endloop
  endfacet
  facet normal -0.0941081 -0.995562 0
    outer loop
      vertex 158.686 159.01 0
      vertex 158.373 159.039 0
      vertex 158.686 159.01 -3.5
    endloop
  endfacet
  facet normal -0.156436 -0.987688 0
    outer loop
      vertex 158.063 159.089 0
      vertex 158.063 159.089 -3.5
      vertex 158.373 159.039 -3.5
    endloop
  endfacet
  facet normal -0.156436 -0.987688 0
    outer loop
      vertex 158.373 159.039 0
      vertex 158.063 159.089 0
      vertex 158.373 159.039 -3.5
    endloop
  endfacet
  facet normal -0.218142 -0.975917 0
    outer loop
      vertex 157.757 159.157 0
      vertex 157.757 159.157 -3.5
      vertex 158.063 159.089 -3.5
    endloop
  endfacet
  facet normal -0.218142 -0.975917 0
    outer loop
      vertex 158.063 159.089 0
      vertex 157.757 159.157 0
      vertex 158.063 159.089 -3.5
    endloop
  endfacet
  facet normal -0.27899 -0.960294 0
    outer loop
      vertex 157.455 159.245 0
      vertex 157.455 159.245 -3.5
      vertex 157.757 159.157 -3.5
    endloop
  endfacet
  facet normal -0.27899 -0.960294 0
    outer loop
      vertex 157.757 159.157 0
      vertex 157.455 159.245 0
      vertex 157.757 159.157 -3.5
    endloop
  endfacet
  facet normal -0.33874 -0.94088 0
    outer loop
      vertex 157.159 159.351 0
      vertex 157.159 159.351 -3.5
      vertex 157.455 159.245 -3.5
    endloop
  endfacet
  facet normal -0.33874 -0.94088 0
    outer loop
      vertex 157.455 159.245 0
      vertex 157.159 159.351 0
      vertex 157.455 159.245 -3.5
    endloop
  endfacet
  facet normal -0.397148 -0.917754 0
    outer loop
      vertex 156.871 159.476 0
      vertex 156.871 159.476 -3.5
      vertex 157.159 159.351 -3.5
    endloop
  endfacet
  facet normal -0.397148 -0.917754 0
    outer loop
      vertex 157.159 159.351 0
      vertex 156.871 159.476 0
      vertex 157.159 159.351 -3.5
    endloop
  endfacet
  facet normal -0.453991 -0.891006 0
    outer loop
      vertex 156.591 159.618 0
      vertex 156.591 159.618 -3.5
      vertex 156.871 159.476 -3.5
    endloop
  endfacet
  facet normal -0.453991 -0.891006 0
    outer loop
      vertex 156.871 159.476 0
      vertex 156.591 159.618 0
      vertex 156.871 159.476 -3.5
    endloop
  endfacet
  facet normal -0.509039 -0.860743 0
    outer loop
      vertex 156.321 159.778 0
      vertex 156.321 159.778 -3.5
      vertex 156.591 159.618 -3.5
    endloop
  endfacet
  facet normal -0.509039 -0.860743 0
    outer loop
      vertex 156.591 159.618 0
      vertex 156.321 159.778 0
      vertex 156.591 159.618 -3.5
    endloop
  endfacet
  facet normal -0.562085 -0.82708 0
    outer loop
      vertex 156.061 159.955 0
      vertex 156.061 159.955 -3.5
      vertex 156.321 159.778 -3.5
    endloop
  endfacet
  facet normal -0.562085 -0.82708 0
    outer loop
      vertex 156.321 159.778 0
      vertex 156.061 159.955 0
      vertex 156.321 159.778 -3.5
    endloop
  endfacet
  facet normal -0.612907 -0.790155 0
    outer loop
      vertex 155.813 160.147 0
      vertex 155.813 160.147 -3.5
      vertex 156.061 159.955 -3.5
    endloop
  endfacet
  facet normal -0.612907 -0.790155 0
    outer loop
      vertex 156.061 159.955 0
      vertex 155.813 160.147 0
      vertex 156.061 159.955 -3.5
    endloop
  endfacet
  facet normal -0.661311 -0.750112 0
    outer loop
      vertex 155.577 160.355 0
      vertex 155.577 160.355 -3.5
      vertex 155.813 160.147 -3.5
    endloop
  endfacet
  facet normal -0.661311 -0.750112 0
    outer loop
      vertex 155.813 160.147 0
      vertex 155.577 160.355 0
      vertex 155.813 160.147 -3.5
    endloop
  endfacet
  facet normal -0.707107 -0.707107 0
    outer loop
      vertex 155.355 160.577 -3.5
      vertex 155.577 160.355 -3.5
      vertex 155.355 160.577 0
    endloop
  endfacet
  facet normal -0.707107 -0.707107 0
    outer loop
      vertex 155.355 160.577 0
      vertex 155.577 160.355 -3.5
      vertex 155.577 160.355 0
    endloop
  endfacet
  facet normal -0.750112 -0.661311 0
    outer loop
      vertex 155.147 160.813 -3.5
      vertex 155.355 160.577 -3.5
      vertex 155.147 160.813 0
    endloop
  endfacet
  facet normal -0.750112 -0.661311 0
    outer loop
      vertex 155.147 160.813 0
      vertex 155.355 160.577 -3.5
      vertex 155.355 160.577 0
    endloop
  endfacet
  facet normal -0.790155 -0.612907 0
    outer loop
      vertex 154.955 161.061 -3.5
      vertex 155.147 160.813 -3.5
      vertex 154.955 161.061 0
    endloop
  endfacet
  facet normal -0.790155 -0.612907 0
    outer loop
      vertex 154.955 161.061 0
      vertex 155.147 160.813 -3.5
      vertex 155.147 160.813 0
    endloop
  endfacet
  facet normal -0.82708 -0.562085 0
    outer loop
      vertex 154.778 161.321 -3.5
      vertex 154.955 161.061 -3.5
      vertex 154.778 161.321 0
    endloop
  endfacet
  facet normal -0.82708 -0.562085 0
    outer loop
      vertex 154.778 161.321 0
      vertex 154.955 161.061 -3.5
      vertex 154.955 161.061 0
    endloop
  endfacet
  facet normal -0.860743 -0.509039 0
    outer loop
      vertex 154.618 161.591 -3.5
      vertex 154.778 161.321 -3.5
      vertex 154.618 161.591 0
    endloop
  endfacet
  facet normal -0.860743 -0.509039 0
    outer loop
      vertex 154.618 161.591 0
      vertex 154.778 161.321 -3.5
      vertex 154.778 161.321 0
    endloop
  endfacet
  facet normal -0.891006 -0.453991 0
    outer loop
      vertex 154.476 161.871 -3.5
      vertex 154.618 161.591 -3.5
      vertex 154.476 161.871 0
    endloop
  endfacet
  facet normal -0.891006 -0.453991 0
    outer loop
      vertex 154.476 161.871 0
      vertex 154.618 161.591 -3.5
      vertex 154.618 161.591 0
    endloop
  endfacet
  facet normal -0.917754 -0.397148 0
    outer loop
      vertex 154.351 162.159 -3.5
      vertex 154.476 161.871 -3.5
      vertex 154.351 162.159 0
    endloop
  endfacet
  facet normal -0.917754 -0.397148 0
    outer loop
      vertex 154.351 162.159 0
      vertex 154.476 161.871 -3.5
      vertex 154.476 161.871 0
    endloop
  endfacet
  facet normal -0.94088 -0.33874 0
    outer loop
      vertex 154.245 162.455 -3.5
      vertex 154.351 162.159 -3.5
      vertex 154.245 162.455 0
    endloop
  endfacet
  facet normal -0.94088 -0.33874 0
    outer loop
      vertex 154.245 162.455 0
      vertex 154.351 162.159 -3.5
      vertex 154.351 162.159 0
    endloop
  endfacet
  facet normal -0.960294 -0.27899 0
    outer loop
      vertex 154.157 162.757 -3.5
      vertex 154.245 162.455 -3.5
      vertex 154.157 162.757 0
    endloop
  endfacet
  facet normal -0.960294 -0.27899 0
    outer loop
      vertex 154.157 162.757 0
      vertex 154.245 162.455 -3.5
      vertex 154.245 162.455 0
    endloop
  endfacet
  facet normal -0.975917 -0.218142 0
    outer loop
      vertex 154.089 163.063 -3.5
      vertex 154.157 162.757 -3.5
      vertex 154.089 163.063 0
    endloop
  endfacet
  facet normal -0.975917 -0.218142 0
    outer loop
      vertex 154.089 163.063 0
      vertex 154.157 162.757 -3.5
      vertex 154.157 162.757 0
    endloop
  endfacet
  facet normal -0.987688 -0.156436 0
    outer loop
      vertex 154.039 163.373 -3.5
      vertex 154.089 163.063 -3.5
      vertex 154.039 163.373 0
    endloop
  endfacet
  facet normal -0.987688 -0.156436 0
    outer loop
      vertex 154.039 163.373 0
      vertex 154.089 163.063 -3.5
      vertex 154.089 163.063 0
    endloop
  endfacet
  facet normal -0.995562 -0.0941081 0
    outer loop
      vertex 154.01 163.686 -3.5
      vertex 154.039 163.373 -3.5
      vertex 154.01 163.686 0
    endloop
  endfacet
  facet normal -0.995562 -0.0941081 0
    outer loop
      vertex 154.01 163.686 0
      vertex 154.039 163.373 -3.5
      vertex 154.039 163.373 0
    endloop
  endfacet
  facet normal -0.999507 -0.0314096 0
    outer loop
      vertex 154 164 -3.5
      vertex 154.01 163.686 -3.5
      vertex 154 164 0
    endloop
  endfacet
  facet normal -0.999507 -0.0314096 0
    outer loop
      vertex 154 164 0
      vertex 154.01 163.686 -3.5
      vertex 154.01 163.686 0
    endloop
  endfacet
  facet normal 0.999507 -0.0314096 0
    outer loop
      vertex 4.99013 163.686 0
      vertex 4.99013 163.686 -3.5
      vertex 5 164 -3.5
    endloop
  endfacet
  facet normal 0.999507 -0.0314096 0
    outer loop
      vertex 5 164 0
      vertex 4.99013 163.686 0
      vertex 5 164 -3.5
    endloop
  endfacet
  facet normal 0.995562 -0.0941081 0
    outer loop
      vertex 4.96057 163.373 0
      vertex 4.96057 163.373 -3.5
      vertex 4.99013 163.686 -3.5
    endloop
  endfacet
  facet normal 0.995562 -0.0941081 0
    outer loop
      vertex 4.99013 163.686 0
      vertex 4.96057 163.373 0
      vertex 4.99013 163.686 -3.5
    endloop
  endfacet
  facet normal 0.987688 -0.156436 0
    outer loop
      vertex 4.91144 163.063 0
      vertex 4.91144 163.063 -3.5
      vertex 4.96057 163.373 -3.5
    endloop
  endfacet
  facet normal 0.987688 -0.156436 0
    outer loop
      vertex 4.96057 163.373 0
      vertex 4.91144 163.063 0
      vertex 4.96057 163.373 -3.5
    endloop
  endfacet
  facet normal 0.975917 -0.218142 0
    outer loop
      vertex 4.84292 162.757 0
      vertex 4.84292 162.757 -3.5
      vertex 4.91144 163.063 -3.5
    endloop
  endfacet
  facet normal 0.975917 -0.218142 0
    outer loop
      vertex 4.91144 163.063 0
      vertex 4.84292 162.757 0
      vertex 4.91144 163.063 -3.5
    endloop
  endfacet
  facet normal 0.960294 -0.27899 0
    outer loop
      vertex 4.75528 162.455 0
      vertex 4.75528 162.455 -3.5
      vertex 4.84292 162.757 -3.5
    endloop
  endfacet
  facet normal 0.960294 -0.27899 0
    outer loop
      vertex 4.84292 162.757 0
      vertex 4.75528 162.455 0
      vertex 4.84292 162.757 -3.5
    endloop
  endfacet
  facet normal 0.94088 -0.33874 0
    outer loop
      vertex 4.64888 162.159 0
      vertex 4.64888 162.159 -3.5
      vertex 4.75528 162.455 -3.5
    endloop
  endfacet
  facet normal 0.94088 -0.33874 0
    outer loop
      vertex 4.75528 162.455 0
      vertex 4.64888 162.159 0
      vertex 4.75528 162.455 -3.5
    endloop
  endfacet
  facet normal 0.917754 -0.397148 0
    outer loop
      vertex 4.52413 161.871 0
      vertex 4.52413 161.871 -3.5
      vertex 4.64888 162.159 -3.5
    endloop
  endfacet
  facet normal 0.917754 -0.397148 0
    outer loop
      vertex 4.64888 162.159 0
      vertex 4.52413 161.871 0
      vertex 4.64888 162.159 -3.5
    endloop
  endfacet
  facet normal 0.891006 -0.453991 0
    outer loop
      vertex 4.38153 161.591 0
      vertex 4.38153 161.591 -3.5
      vertex 4.52413 161.871 -3.5
    endloop
  endfacet
  facet normal 0.891006 -0.453991 0
    outer loop
      vertex 4.52413 161.871 0
      vertex 4.38153 161.591 0
      vertex 4.52413 161.871 -3.5
    endloop
  endfacet
  facet normal 0.860743 -0.509039 0
    outer loop
      vertex 4.22164 161.321 0
      vertex 4.22164 161.321 -3.5
      vertex 4.38153 161.591 -3.5
    endloop
  endfacet
  facet normal 0.860743 -0.509039 0
    outer loop
      vertex 4.38153 161.591 0
      vertex 4.22164 161.321 0
      vertex 4.38153 161.591 -3.5
    endloop
  endfacet
  facet normal 0.82708 -0.562085 0
    outer loop
      vertex 4.04508 161.061 0
      vertex 4.04508 161.061 -3.5
      vertex 4.22164 161.321 -3.5
    endloop
  endfacet
  facet normal 0.82708 -0.562085 0
    outer loop
      vertex 4.22164 161.321 0
      vertex 4.04508 161.061 0
      vertex 4.22164 161.321 -3.5
    endloop
  endfacet
  facet normal 0.790155 -0.612907 0
    outer loop
      vertex 3.85257 160.813 0
      vertex 3.85257 160.813 -3.5
      vertex 4.04508 161.061 -3.5
    endloop
  endfacet
  facet normal 0.790155 -0.612907 0
    outer loop
      vertex 4.04508 161.061 0
      vertex 3.85257 160.813 0
      vertex 4.04508 161.061 -3.5
    endloop
  endfacet
  facet normal 0.750112 -0.661311 0
    outer loop
      vertex 3.64484 160.577 0
      vertex 3.64484 160.577 -3.5
      vertex 3.85257 160.813 -3.5
    endloop
  endfacet
  facet normal 0.750112 -0.661311 0
    outer loop
      vertex 3.85257 160.813 0
      vertex 3.64484 160.577 0
      vertex 3.85257 160.813 -3.5
    endloop
  endfacet
  facet normal 0.707107 -0.707107 0
    outer loop
      vertex 3.42274 160.355 0
      vertex 3.42274 160.355 -3.5
      vertex 3.64484 160.577 -3.5
    endloop
  endfacet
  facet normal 0.707107 -0.707107 0
    outer loop
      vertex 3.64484 160.577 0
      vertex 3.42274 160.355 0
      vertex 3.64484 160.577 -3.5
    endloop
  endfacet
  facet normal 0.661311 -0.750112 0
    outer loop
      vertex 3.18712 160.147 0
      vertex 3.18712 160.147 -3.5
      vertex 3.42274 160.355 -3.5
    endloop
  endfacet
  facet normal 0.661311 -0.750112 0
    outer loop
      vertex 3.42274 160.355 0
      vertex 3.18712 160.147 0
      vertex 3.42274 160.355 -3.5
    endloop
  endfacet
  facet normal 0.612907 -0.790155 0
    outer loop
      vertex 2.93893 159.955 0
      vertex 2.93893 159.955 -3.5
      vertex 3.18712 160.147 -3.5
    endloop
  endfacet
  facet normal 0.612907 -0.790155 0
    outer loop
      vertex 3.18712 160.147 0
      vertex 2.93893 159.955 0
      vertex 3.18712 160.147 -3.5
    endloop
  endfacet
  facet normal 0.562085 -0.82708 0
    outer loop
      vertex 2.67913 159.778 0
      vertex 2.67913 159.778 -3.5
      vertex 2.93893 159.955 -3.5
    endloop
  endfacet
  facet normal 0.562085 -0.82708 0
    outer loop
      vertex 2.93893 159.955 0
      vertex 2.67913 159.778 0
      vertex 2.93893 159.955 -3.5
    endloop
  endfacet
  facet normal 0.509039 -0.860743 0
    outer loop
      vertex 2.40877 159.618 0
      vertex 2.40877 159.618 -3.5
      vertex 2.67913 159.778 -3.5
    endloop
  endfacet
  facet normal 0.509039 -0.860743 0
    outer loop
      vertex 2.67913 159.778 0
      vertex 2.40877 159.618 0
      vertex 2.67913 159.778 -3.5
    endloop
  endfacet
  facet normal 0.453991 -0.891006 0
    outer loop
      vertex 2.1289 159.476 0
      vertex 2.1289 159.476 -3.5
      vertex 2.40877 159.618 -3.5
    endloop
  endfacet
  facet normal 0.453991 -0.891006 0
    outer loop
      vertex 2.40877 159.618 0
      vertex 2.1289 159.476 0
      vertex 2.40877 159.618 -3.5
    endloop
  endfacet
  facet normal 0.397148 -0.917754 0
    outer loop
      vertex 1.84062 159.351 0
      vertex 1.84062 159.351 -3.5
      vertex 2.1289 159.476 -3.5
    endloop
  endfacet
  facet normal 0.397148 -0.917754 0
    outer loop
      vertex 2.1289 159.476 0
      vertex 1.84062 159.351 0
      vertex 2.1289 159.476 -3.5
    endloop
  endfacet
  facet normal 0.33874 -0.94088 0
    outer loop
      vertex 1.54509 159.245 0
      vertex 1.54509 159.245 -3.5
      vertex 1.84062 159.351 -3.5
    endloop
  endfacet
  facet normal 0.33874 -0.94088 0
    outer loop
      vertex 1.84062 159.351 0
      vertex 1.54509 159.245 0
      vertex 1.84062 159.351 -3.5
    endloop
  endfacet
  facet normal 0.27899 -0.960294 0
    outer loop
      vertex 1.24345 159.157 0
      vertex 1.24345 159.157 -3.5
      vertex 1.54509 159.245 -3.5
    endloop
  endfacet
  facet normal 0.27899 -0.960294 0
    outer loop
      vertex 1.54509 159.245 0
      vertex 1.24345 159.157 0
      vertex 1.54509 159.245 -3.5
    endloop
  endfacet
  facet normal 0.218142 -0.975917 0
    outer loop
      vertex 0.936907 159.089 0
      vertex 0.936907 159.089 -3.5
      vertex 1.24345 159.157 -3.5
    endloop
  endfacet
  facet normal 0.218142 -0.975917 0
    outer loop
      vertex 1.24345 159.157 0
      vertex 0.936907 159.089 0
      vertex 1.24345 159.157 -3.5
    endloop
  endfacet
  facet normal 0.156436 -0.987688 0
    outer loop
      vertex 0.626666 159.039 0
      vertex 0.626666 159.039 -3.5
      vertex 0.936907 159.089 -3.5
    endloop
  endfacet
  facet normal 0.156436 -0.987688 0
    outer loop
      vertex 0.936907 159.089 0
      vertex 0.626666 159.039 0
      vertex 0.936907 159.089 -3.5
    endloop
  endfacet
  facet normal 0.0941081 -0.995562 0
    outer loop
      vertex 0.313953 159.01 0
      vertex 0.313953 159.01 -3.5
      vertex 0.626666 159.039 -3.5
    endloop
  endfacet
  facet normal 0.0941081 -0.995562 0
    outer loop
      vertex 0.626666 159.039 0
      vertex 0.313953 159.01 0
      vertex 0.626666 159.039 -3.5
    endloop
  endfacet
  facet normal 0.0314096 -0.999507 0
    outer loop
      vertex 1.11022e-15 159 0
      vertex 1.11022e-15 159 -3.5
      vertex 0.313953 159.01 -3.5
    endloop
  endfacet
  facet normal 0.0314096 -0.999507 0
    outer loop
      vertex 0.313953 159.01 0
      vertex 1.11022e-15 159 0
      vertex 0.313953 159.01 -3.5
    endloop
  endfacet
  facet normal 0 0 -1
    outer loop
      vertex 0 164 -3.5
      vertex 5 164 -3.5
      vertex 1.11022e-15 159 -3.5
    endloop
  endfacet
  facet normal 0 0 -1
    outer loop
      vertex 1.11022e-15 159 -3.5
      vertex 5 164 -3.5
      vertex 4.99013 163.686 -3.5
    endloop
  endfacet
  facet normal 0 0 -1
    outer loop
      vertex 1.11022e-15 159 -3.5
      vertex 4.99013 163.686 -3.5
      vertex 4.96057 163.373 -3.5
    endloop
  endfacet
  facet normal 0 0 -1
    outer loop
      vertex 1.11022e-15 159 -3.5
      vertex 4.96057 163.373 -3.5
      vertex 4.91144 163.063 -3.5
    endloop
  endfacet
  facet normal 0 0 -1
    outer loop
      vertex 1.11022e-15 159 -3.5
      vertex 4.91144 163.063 -3.5
      vertex 4.84292 162.757 -3.5
    endloop
  endfacet
  facet normal 0 0 -1
    outer loop
      vertex 1.11022e-15 159 -3.5
      vertex 4.84292 162.757 -3.5
      vertex 4.75528 162.455 -3.5
    endloop
  endfacet
  facet normal 0 0 -1
    outer loop
      vertex 1.11022e-15 159 -3.5
      vertex 4.75528 162.455 -3.5
      vertex 4.64888 162.159 -3.5
    endloop
  endfacet
  facet normal 0 0 -1
    outer loop
      vertex 1.11022e-15 159 -3.5
      vertex 4.64888 162.159 -3.5
      vertex 4.52413 161.871 -3.5
    endloop
  endfacet
  facet normal 0 0 -1
    outer loop
      vertex 1.11022e-15 159 -3.5
      vertex 4.52413 161.871 -3.5
      vertex 4.38153 161.591 -3.5
    endloop
  endfacet
  facet normal 0 0 -1
    outer loop
      vertex 1.11022e-15 159 -3.5
      vertex 4.38153 161.591 -3.5
      vertex 4.22164 161.321 -3.5
    endloop
  endfacet
  facet normal 0 0 -1
    outer loop
      vertex 1.11022e-15 159 -3.5
      vertex 4.22164 161.321 -3.5
      vertex 4.04508 161.061 -3.5
    endloop
  endfacet
  facet normal 0 0 -1
    outer loop
      vertex 1.11022e-15 159 -3.5
      vertex 4.04508 161.061 -3.5
      vertex 3.85257 160.813 -3.5
    endloop
  endfacet
  facet normal 0 0 -1
    outer loop
      vertex 1.11022e-15 159 -3.5
      vertex 3.85257 160.813 -3.5
      vertex 3.64484 160.577 -3.5
    endloop
  endfacet
  facet normal 0 0 -1
    outer loop
      vertex 1.11022e-15 159 -3.5
      vertex 3.64484 160.577 -3.5
      vertex 3.42274 160.355 -3.5
    endloop
  endfacet
  facet normal 0 0 -1
    outer loop
      vertex 1.11022e-15 159 -3.5
      vertex 3.42274 160.355 -3.5
      vertex 3.18712 160.147 -3.5
    endloop
  endfacet
  facet normal 0 0 -1
    outer loop
      vertex 1.11022e-15 159 -3.5
      vertex 3.18712 160.147 -3.5
      vertex 2.93893 159.955 -3.5
    endloop
  endfacet
  facet normal 0 0 -1
    outer loop
      vertex 1.11022e-15 159 -3.5
      vertex 2.93893 159.955 -3.5
      vertex 2.67913 159.778 -3.5
    endloop
  endfacet
  facet normal 0 0 -1
    outer loop
      vertex 1.11022e-15 159 -3.5
      vertex 2.67913 159.778 -3.5
      vertex 2.40877 159.618 -3.5
    endloop
  endfacet
  facet normal 0 0 -1
    outer loop
      vertex 1.11022e-15 159 -3.5
      vertex 2.40877 159.618 -3.5
      vertex 2.1289 159.476 -3.5
    endloop
  endfacet
  facet normal 0 0 -1
    outer loop
      vertex 1.11022e-15 159 -3.5
      vertex 2.1289 159.476 -3.5
      vertex 1.84062 159.351 -3.5
    endloop
  endfacet
  facet normal 0 0 -1
    outer loop
      vertex 1.11022e-15 159 -3.5
      vertex 1.84062 159.351 -3.5
      vertex 1.54509 159.245 -3.5
    endloop
  endfacet
  facet normal 0 0 -1
    outer loop
      vertex 1.11022e-15 159 -3.5
      vertex 1.54509 159.245 -3.5
      vertex 1.24345 159.157 -3.5
    endloop
  endfacet
  facet normal 0 0 -1
    outer loop
      vertex 1.11022e-15 159 -3.5
      vertex 1.24345 159.157 -3.5
      vertex 0.936907 159.089 -3.5
    endloop
  endfacet
  facet normal 0 0 -1
    outer loop
      vertex 1.11022e-15 159 -3.5
      vertex 0.936907 159.089 -3.5
      vertex 0.626666 159.039 -3.5
    endloop
  endfacet
  facet normal 0 0 -1
    outer loop
      vertex 1.11022e-15 159 -3.5
      vertex 0.626666 159.039 -3.5
      vertex 0.313953 159.01 -3.5
    endloop
  endfacet
  facet normal 1 0 0
    outer loop
      vertex 2 162 2
      vertex 2 162 40
      vertex 2 2 40
    endloop
  endfacet
  facet normal 1 0 0
    outer loop
      vertex 2 2 2
      vertex 2 162 2
      vertex 2 2 40
    endloop
  endfacet
  facet normal 0 1 0
    outer loop
      vertex 157 2 40
      vertex 157 2 2
      vertex 2 2 40
    endloop
  endfacet
  facet normal 0 1 0
    outer loop
      vertex 2 2 40
      vertex 157 2 2
      vertex 2 2 2
    endloop
  endfacet
  facet normal -1 0 0
    outer loop
      vertex 157 162 40
      vertex 157 162 2
      vertex 157 2 40
    endloop
  endfacet
  facet normal -1 0 0
    outer loop
      vertex 157 2 40
      vertex 157 162 2
      vertex 157 2 2
    endloop
  endfacet
  facet normal 0 -1 0
    outer loop
      vertex 157 162 2
      vertex 157 162 40
      vertex 2 162 40
    endloop
  endfacet
  facet normal 0 -1 0
    outer loop
      vertex 2 162 2
      vertex 157 162 2
      vertex 2 162 40
    endloop
  endfacet
  facet normal 0 0 -1
    outer loop
      vertex 154 1.11022e-15 -3.5
      vertex 154.01 0.313953 -3.5
      vertex 159 0 -3.5
    endloop
  endfacet
  facet normal 0 0 -1
    outer loop
      vertex 159 0 -3.5
      vertex 154.01 0.313953 -3.5
      vertex 154.039 0.626666 -3.5
    endloop
  endfacet
  facet normal 0 0 -1
    outer loop
      vertex 159 0 -3.5
      vertex 154.039 0.626666 -3.5
      vertex 154.089 0.936907 -3.5
    endloop
  endfacet
  facet normal 0 0 -1
    outer loop
      vertex 159 0 -3.5
      vertex 154.089 0.936907 -3.5
      vertex 154.157 1.24345 -3.5
    endloop
  endfacet
  facet normal 0 0 -1
    outer loop
      vertex 159 0 -3.5
      vertex 154.157 1.24345 -3.5
      vertex 154.245 1.54509 -3.5
    endloop
  endfacet
  facet normal 0 0 -1
    outer loop
      vertex 159 0 -3.5
      vertex 154.245 1.54509 -3.5
      vertex 154.351 1.84062 -3.5
    endloop
  endfacet
  facet normal 0 0 -1
    outer loop
      vertex 159 0 -3.5
      vertex 154.351 1.84062 -3.5
      vertex 154.476 2.1289 -3.5
    endloop
  endfacet
  facet normal 0 0 -1
    outer loop
      vertex 159 0 -3.5
      vertex 154.476 2.1289 -3.5
      vertex 154.618 2.40877 -3.5
    endloop
  endfacet
  facet normal 0 0 -1
    outer loop
      vertex 159 0 -3.5
      vertex 154.618 2.40877 -3.5
      vertex 154.778 2.67913 -3.5
    endloop
  endfacet
  facet normal 0 0 -1
    outer loop
      vertex 159 0 -3.5
      vertex 154.778 2.67913 -3.5
      vertex 154.955 2.93893 -3.5
    endloop
  endfacet
  facet normal 0 0 -1
    outer loop
      vertex 159 0 -3.5
      vertex 154.955 2.93893 -3.5
      vertex 155.147 3.18712 -3.5
    endloop
  endfacet
  facet normal 0 0 -1
    outer loop
      vertex 159 0 -3.5
      vertex 155.147 3.18712 -3.5
      vertex 155.355 3.42274 -3.5
    endloop
  endfacet
  facet normal 0 0 -1
    outer loop
      vertex 159 0 -3.5
      vertex 155.355 3.42274 -3.5
      vertex 155.577 3.64484 -3.5
    endloop
  endfacet
  facet normal 0 0 -1
    outer loop
      vertex 159 0 -3.5
      vertex 155.577 3.64484 -3.5
      vertex 155.813 3.85257 -3.5
    endloop
  endfacet
  facet normal 0 0 -1
    outer loop
      vertex 159 0 -3.5
      vertex 155.813 3.85257 -3.5
      vertex 156.061 4.04508 -3.5
    endloop
  endfacet
  facet normal 0 0 -1
    outer loop
      vertex 159 0 -3.5
      vertex 156.061 4.04508 -3.5
      vertex 156.321 4.22164 -3.5
    endloop
  endfacet
  facet normal 0 0 -1
    outer loop
      vertex 159 0 -3.5
      vertex 156.321 4.22164 -3.5
      vertex 156.591 4.38153 -3.5
    endloop
  endfacet
  facet normal 0 0 -1
    outer loop
      vertex 159 0 -3.5
      vertex 156.591 4.38153 -3.5
      vertex 156.871 4.52413 -3.5
    endloop
  endfacet
  facet normal 0 0 -1
    outer loop
      vertex 159 0 -3.5
      vertex 156.871 4.52413 -3.5
      vertex 157.159 4.64888 -3.5
    endloop
  endfacet
  facet normal 0 0 -1
    outer loop
      vertex 159 0 -3.5
      vertex 157.159 4.64888 -3.5
      vertex 157.455 4.75528 -3.5
    endloop
  endfacet
  facet normal 0 0 -1
    outer loop
      vertex 159 0 -3.5
      vertex 157.455 4.75528 -3.5
      vertex 157.757 4.84292 -3.5
    endloop
  endfacet
  facet normal 0 0 -1
    outer loop
      vertex 159 0 -3.5
      vertex 157.757 4.84292 -3.5
      vertex 158.063 4.91144 -3.5
    endloop
  endfacet
  facet normal 0 0 -1
    outer loop
      vertex 159 0 -3.5
      vertex 158.063 4.91144 -3.5
      vertex 158.373 4.96057 -3.5
    endloop
  endfacet
  facet normal 0 0 -1
    outer loop
      vertex 159 0 -3.5
      vertex 158.373 4.96057 -3.5
      vertex 158.686 4.99013 -3.5
    endloop
  endfacet
  facet normal 0 0 -1
    outer loop
      vertex 159 0 -3.5
      vertex 158.686 4.99013 -3.5
      vertex 159 5 -3.5
    endloop
  endfacet
  facet normal 0 0 -1
    outer loop
      vertex 154 164 -3.5
      vertex 159 164 -3.5
      vertex 154.01 163.686 -3.5
    endloop
  endfacet
  facet normal 0 0 -1
    outer loop
      vertex 154.01 163.686 -3.5
      vertex 159 164 -3.5
      vertex 159 159 -3.5
    endloop
  endfacet
  facet normal 0 0 -1
    outer loop
      vertex 154.01 163.686 -3.5
      vertex 159 159 -3.5
      vertex 158.686 159.01 -3.5
    endloop
  endfacet
  facet normal 0 0 -1
    outer loop
      vertex 154.01 163.686 -3.5
      vertex 158.686 159.01 -3.5
      vertex 158.373 159.039 -3.5
    endloop
  endfacet
  facet normal 0 0 -1
    outer loop
      vertex 154.01 163.686 -3.5
      vertex 158.373 159.039 -3.5
      vertex 158.063 159.089 -3.5
    endloop
  endfacet
  facet normal 0 0 -1
    outer loop
      vertex 154.01 163.686 -3.5
      vertex 158.063 159.089 -3.5
      vertex 157.757 159.157 -3.5
    endloop
  endfacet
  facet normal 0 0 -1
    outer loop
      vertex 154.01 163.686 -3.5
      vertex 157.757 159.157 -3.5
      vertex 157.455 159.245 -3.5
    endloop
  endfacet
  facet normal 0 0 -1
    outer loop
      vertex 154.01 163.686 -3.5
      vertex 157.455 159.245 -3.5
      vertex 157.159 159.351 -3.5
    endloop
  endfacet
  facet normal 0 0 -1
    outer loop
      vertex 154.01 163.686 -3.5
      vertex 157.159 159.351 -3.5
      vertex 156.871 159.476 -3.5
    endloop
  endfacet
  facet normal 0 0 -1
    outer loop
      vertex 154.01 163.686 -3.5
      vertex 156.871 159.476 -3.5
      vertex 156.591 159.618 -3.5
    endloop
  endfacet
  facet normal 0 0 -1
    outer loop
      vertex 154.01 163.686 -3.5
      vertex 156.591 159.618 -3.5
      vertex 156.321 159.778 -3.5
    endloop
  endfacet
  facet normal 0 0 -1
    outer loop
      vertex 154.01 163.686 -3.5
      vertex 156.321 159.778 -3.5
      vertex 156.061 159.955 -3.5
    endloop
  endfacet
  facet normal 0 0 -1
    outer loop
      vertex 154.01 163.686 -3.5
      vertex 156.061 159.955 -3.5
      vertex 155.813 160.147 -3.5
    endloop
  endfacet
  facet normal 0 0 -1
    outer loop
      vertex 154.01 163.686 -3.5
      vertex 155.813 160.147 -3.5
      vertex 155.577 160.355 -3.5
    endloop
  endfacet
  facet normal 0 0 -1
    outer loop
      vertex 154.01 163.686 -3.5
      vertex 155.577 160.355 -3.5
      vertex 155.355 160.577 -3.5
    endloop
  endfacet
  facet normal 0 0 -1
    outer loop
      vertex 154.01 163.686 -3.5
      vertex 155.355 160.577 -3.5
      vertex 155.147 160.813 -3.5
    endloop
  endfacet
  facet normal 0 0 -1
    outer loop
      vertex 154.01 163.686 -3.5
      vertex 155.147 160.813 -3.5
      vertex 154.955 161.061 -3.5
    endloop
  endfacet
  facet normal 0 0 -1
    outer loop
      vertex 154.01 163.686 -3.5
      vertex 154.955 161.061 -3.5
      vertex 154.778 161.321 -3.5
    endloop
  endfacet
  facet normal 0 0 -1
    outer loop
      vertex 154.01 163.686 -3.5
      vertex 154.778 161.321 -3.5
      vertex 154.618 161.591 -3.5
    endloop
  endfacet
  facet normal 0 0 -1
    outer loop
      vertex 154.01 163.686 -3.5
      vertex 154.618 161.591 -3.5
      vertex 154.476 161.871 -3.5
    endloop
  endfacet
  facet normal 0 0 -1
    outer loop
      vertex 154.01 163.686 -3.5
      vertex 154.476 161.871 -3.5
      vertex 154.351 162.159 -3.5
    endloop
  endfacet
  facet normal 0 0 -1
    outer loop
      vertex 154.01 163.686 -3.5
      vertex 154.351 162.159 -3.5
      vertex 154.245 162.455 -3.5
    endloop
  endfacet
  facet normal 0 0 -1
    outer loop
      vertex 154.01 163.686 -3.5
      vertex 154.245 162.455 -3.5
      vertex 154.157 162.757 -3.5
    endloop
  endfacet
  facet normal 0 0 -1
    outer loop
      vertex 154.01 163.686 -3.5
      vertex 154.157 162.757 -3.5
      vertex 154.089 163.063 -3.5
    endloop
  endfacet
  facet normal 0 0 -1
    outer loop
      vertex 154.01 163.686 -3.5
      vertex 154.089 163.063 -3.5
      vertex 154.039 163.373 -3.5
    endloop
  endfacet
  facet normal 0 0 1
    outer loop
      vertex 157 2 2
      vertex 157 162 2
      vertex 2 162 2
    endloop
  endfacet
  facet normal 0 0 1
    outer loop
      vertex 2 2 2
      vertex 157 2 2
      vertex 2 162 2
    endloop
  endfacet
endsolid OpenSCAD_Model
