solid OpenSCAD_Model
  facet normal -1 0 0
    outer loop
      vertex 0 0 0
      vertex 0 0 40
      vertex 0 219 0
    endloop
  endfacet
  facet normal -1 0 0
    outer loop
      vertex 0 219 0
      vertex 0 0 40
      vertex 0 219 40
    endloop
  endfacet
  facet normal 0 -1 0
    outer loop
      vertex 0 0 40
      vertex 0 0 0
      vertex 119 0 0
    endloop
  endfacet
  facet normal 0 -1 0
    outer loop
      vertex 119 0 40
      vertex 0 0 40
      vertex 119 0 0
    endloop
  endfacet
  facet normal 0 0 -1
    outer loop
      vertex 0 0 0
      vertex 0 219 0
      vertex 119 0 0
    endloop
  endfacet
  facet normal 0 0 -1
    outer loop
      vertex 119 0 0
      vertex 0 219 0
      vertex 119 219 0
    endloop
  endfacet
  facet normal 0 1 0
    outer loop
      vertex 0 219 0
      vertex 0 219 40
      vertex 119 219 0
    endloop
  endfacet
  facet normal 0 1 0
    outer loop
      vertex 119 219 0
      vertex 0 219 40
      vertex 119 219 40
    endloop
  endfacet
  facet normal 0 0 1
    outer loop
      vertex 2 2 40
      vertex 0 0 40
      vertex 119 0 40
    endloop
  endfacet
  facet normal 0 0 1
    outer loop
      vertex 117 2 40
      vertex 2 2 40
      vertex 119 0 40
    endloop
  endfacet
  facet normal 0 0 1
    outer loop
      vertex 0 219 40
      vertex 0 0 40
      vertex 2 2 40
    endloop
  endfacet
  facet normal 0 0 1
    outer loop
      vertex 119 219 40
      vertex 0 219 40
      vertex 2 217 40
    endloop
  endfacet
  facet normal 0 0 1
    outer loop
      vertex 119 219 40
      vertex 117 217 40
      vertex 119 0 40
    endloop
  endfacet
  facet normal 0 0 1
    outer loop
      vertex 119 219 40
      vertex 2 217 40
      vertex 117 217 40
    endloop
  endfacet
  facet normal 0 0 1
    outer loop
      vertex 117 217 40
      vertex 117 2 40
      vertex 119 0 40
    endloop
  endfacet
  facet normal 0 0 1
    outer loop
      vertex 2 2 40
      vertex 2 217 40
      vertex 0 219 40
    endloop
  endfacet
  facet normal 1 0 0
    outer loop
      vertex 119 0 40
      vertex 119 0 0
      vertex 119 219 0
    endloop
  endfacet
  facet normal 1 0 0
    outer loop
      vertex 119 219 40
      vertex 119 0 40
      vertex 119 219 0
    endloop
  endfacet
  facet normal 1 0 0
    outer loop
      vertex 2 217 2
      vertex 2 217 40
      vertex 2 2 40
    endloop
  endfacet
  facet normal 1 0 0
    outer loop
      vertex 2 2 2
      vertex 2 217 2
      vertex 2 2 40
    endloop
  endfacet
  facet normal 0 1 0
    outer loop
      vertex 117 2 40
      vertex 117 2 2
      vertex 2 2 40
    endloop
  endfacet
  facet normal 0 1 0
    outer loop
      vertex 2 2 40
      vertex 117 2 2
      vertex 2 2 2
    endloop
  endfacet
  facet normal -1 0 0
    outer loop
      vertex 117 217 40
      vertex 117 217 2
      vertex 117 2 40
    endloop
  endfacet
  facet normal -1 0 0
    outer loop
      vertex 117 2 40
      vertex 117 217 2
      vertex 117 2 2
    endloop
  endfacet
  facet normal 0 -1 0
    outer loop
      vertex 117 217 2
      vertex 117 217 40
      vertex 2 217 40
    endloop
  endfacet
  facet normal 0 -1 0
    outer loop
      vertex 2 217 2
      vertex 117 217 2
      vertex 2 217 40
    endloop
  endfacet
  facet normal 0 0 1
    outer loop
      vertex 117 2 2
      vertex 117 217 2
      vertex 2 217 2
    endloop
  endfacet
  facet normal 0 0 1
    outer loop
      vertex 2 2 2
      vertex 117 2 2
      vertex 2 217 2
    endloop
  endfacet
  facet normal -1 0 0
    outer loop
      vertex 0 0 -2.7
      vertex 0 0 -4.44089e-16
      vertex 0 6 -2.7
    endloop
  endfacet
  facet normal -1 0 0
    outer loop
      vertex 0 6 -2.7
      vertex 0 0 -4.44089e-16
      vertex 0 6 -4.44089e-16
    endloop
  endfacet
  facet normal 0 -1 0
    outer loop
      vertex 0 0 -4.44089e-16
      vertex 0 0 -2.7
      vertex 6 0 -2.7
    endloop
  endfacet
  facet normal 0 -1 0
    outer loop
      vertex 6 0 -4.44089e-16
      vertex 0 0 -4.44089e-16
      vertex 6 0 -2.7
    endloop
  endfacet
  facet normal 0 0 -1
    outer loop
      vertex 0 0 -2.7
      vertex 0 6 -2.7
      vertex 6 0 -2.7
    endloop
  endfacet
  facet normal 0 0 -1
    outer loop
      vertex 6 0 -2.7
      vertex 0 6 -2.7
      vertex 0.376743 5.98816 -2.7
    endloop
  endfacet
  facet normal 0 0 -1
    outer loop
      vertex 6 0 -2.7
      vertex 0.376743 5.98816 -2.7
      vertex 0.751999 5.95269 -2.7
    endloop
  endfacet
  facet normal 0 0 -1
    outer loop
      vertex 6 0 -2.7
      vertex 0.751999 5.95269 -2.7
      vertex 1.12429 5.89372 -2.7
    endloop
  endfacet
  facet normal 0 0 -1
    outer loop
      vertex 6 0 -2.7
      vertex 1.12429 5.89372 -2.7
      vertex 1.49214 5.8115 -2.7
    endloop
  endfacet
  facet normal 0 0 -1
    outer loop
      vertex 6 0 -2.7
      vertex 1.49214 5.8115 -2.7
      vertex 1.8541 5.70634 -2.7
    endloop
  endfacet
  facet normal 0 0 -1
    outer loop
      vertex 6 0 -2.7
      vertex 1.8541 5.70634 -2.7
      vertex 2.20875 5.57866 -2.7
    endloop
  endfacet
  facet normal 0 0 -1
    outer loop
      vertex 6 0 -2.7
      vertex 2.20875 5.57866 -2.7
      vertex 2.55468 5.42896 -2.7
    endloop
  endfacet
  facet normal 0 0 -1
    outer loop
      vertex 6 0 -2.7
      vertex 2.55468 5.42896 -2.7
      vertex 2.89052 5.25784 -2.7
    endloop
  endfacet
  facet normal 0 0 -1
    outer loop
      vertex 6 0 -2.7
      vertex 2.89052 5.25784 -2.7
      vertex 3.21496 5.06597 -2.7
    endloop
  endfacet
  facet normal 0 0 -1
    outer loop
      vertex 6 0 -2.7
      vertex 3.21496 5.06597 -2.7
      vertex 3.52671 4.8541 -2.7
    endloop
  endfacet
  facet normal 0 0 -1
    outer loop
      vertex 6 0 -2.7
      vertex 3.52671 4.8541 -2.7
      vertex 3.82454 4.62308 -2.7
    endloop
  endfacet
  facet normal 0 0 -1
    outer loop
      vertex 6 0 -2.7
      vertex 3.82454 4.62308 -2.7
      vertex 4.10728 4.37381 -2.7
    endloop
  endfacet
  facet normal 0 0 -1
    outer loop
      vertex 6 0 -2.7
      vertex 4.10728 4.37381 -2.7
      vertex 4.37381 4.10728 -2.7
    endloop
  endfacet
  facet normal 0 0 -1
    outer loop
      vertex 6 0 -2.7
      vertex 4.37381 4.10728 -2.7
      vertex 4.62308 3.82454 -2.7
    endloop
  endfacet
  facet normal 0 0 -1
    outer loop
      vertex 6 0 -2.7
      vertex 4.62308 3.82454 -2.7
      vertex 4.8541 3.52671 -2.7
    endloop
  endfacet
  facet normal 0 0 -1
    outer loop
      vertex 6 0 -2.7
      vertex 4.8541 3.52671 -2.7
      vertex 5.06597 3.21496 -2.7
    endloop
  endfacet
  facet normal 0 0 -1
    outer loop
      vertex 6 0 -2.7
      vertex 5.06597 3.21496 -2.7
      vertex 5.25784 2.89052 -2.7
    endloop
  endfacet
  facet normal 0 0 -1
    outer loop
      vertex 6 0 -2.7
      vertex 5.25784 2.89052 -2.7
      vertex 5.42896 2.55468 -2.7
    endloop
  endfacet
  facet normal 0 0 -1
    outer loop
      vertex 6 0 -2.7
      vertex 5.42896 2.55468 -2.7
      vertex 5.57866 2.20875 -2.7
    endloop
  endfacet
  facet normal 0 0 -1
    outer loop
      vertex 6 0 -2.7
      vertex 5.57866 2.20875 -2.7
      vertex 5.70634 1.8541 -2.7
    endloop
  endfacet
  facet normal 0 0 -1
    outer loop
      vertex 6 0 -2.7
      vertex 5.70634 1.8541 -2.7
      vertex 5.8115 1.49214 -2.7
    endloop
  endfacet
  facet normal 0 0 -1
    outer loop
      vertex 6 0 -2.7
      vertex 5.8115 1.49214 -2.7
      vertex 5.89372 1.12429 -2.7
    endloop
  endfacet
  facet normal 0 0 -1
    outer loop
      vertex 6 0 -2.7
      vertex 5.89372 1.12429 -2.7
      vertex 5.95269 0.751999 -2.7
    endloop
  endfacet
  facet normal 0 0 -1
    outer loop
      vertex 6 0 -2.7
      vertex 5.95269 0.751999 -2.7
      vertex 5.98816 0.376743 -2.7
    endloop
  endfacet
  facet normal 0.0314118 0.999507 0
    outer loop
      vertex 0 6 -2.7
      vertex 0 6 -4.44089e-16
      vertex 0.376743 5.98816 -2.7
    endloop
  endfacet
  facet normal 0.0314118 0.999507 0
    outer loop
      vertex 0.376743 5.98816 -2.7
      vertex 0 6 -4.44089e-16
      vertex 0.376743 5.98816 -4.44089e-16
    endloop
  endfacet
  facet normal 0 0 1
    outer loop
      vertex 0 6 -4.44089e-16
      vertex 0 0 -4.44089e-16
      vertex 6 0 -4.44089e-16
    endloop
  endfacet
  facet normal 0 0 1
    outer loop
      vertex 5.95269 0.751999 -4.44089e-16
      vertex 0 6 -4.44089e-16
      vertex 5.98816 0.376743 -4.44089e-16
    endloop
  endfacet
  facet normal 0 0 1
    outer loop
      vertex 5.98816 0.376743 -4.44089e-16
      vertex 0 6 -4.44089e-16
      vertex 6 0 -4.44089e-16
    endloop
  endfacet
  facet normal 0 0 1
    outer loop
      vertex 5.89372 1.12429 -4.44089e-16
      vertex 0 6 -4.44089e-16
      vertex 5.95269 0.751999 -4.44089e-16
    endloop
  endfacet
  facet normal 0 0 1
    outer loop
      vertex 5.8115 1.49214 -4.44089e-16
      vertex 0 6 -4.44089e-16
      vertex 5.89372 1.12429 -4.44089e-16
    endloop
  endfacet
  facet normal 0 0 1
    outer loop
      vertex 5.70634 1.8541 -4.44089e-16
      vertex 0 6 -4.44089e-16
      vertex 5.8115 1.49214 -4.44089e-16
    endloop
  endfacet
  facet normal 0 0 1
    outer loop
      vertex 5.57866 2.20875 -4.44089e-16
      vertex 0 6 -4.44089e-16
      vertex 5.70634 1.8541 -4.44089e-16
    endloop
  endfacet
  facet normal 0 0 1
    outer loop
      vertex 5.42896 2.55468 -4.44089e-16
      vertex 0 6 -4.44089e-16
      vertex 5.57866 2.20875 -4.44089e-16
    endloop
  endfacet
  facet normal 0 0 1
    outer loop
      vertex 5.25784 2.89052 -4.44089e-16
      vertex 0 6 -4.44089e-16
      vertex 5.42896 2.55468 -4.44089e-16
    endloop
  endfacet
  facet normal 0 0 1
    outer loop
      vertex 5.06597 3.21496 -4.44089e-16
      vertex 0 6 -4.44089e-16
      vertex 5.25784 2.89052 -4.44089e-16
    endloop
  endfacet
  facet normal 0 0 1
    outer loop
      vertex 4.8541 3.52671 -4.44089e-16
      vertex 0 6 -4.44089e-16
      vertex 5.06597 3.21496 -4.44089e-16
    endloop
  endfacet
  facet normal 0 0 1
    outer loop
      vertex 4.62308 3.82454 -4.44089e-16
      vertex 0 6 -4.44089e-16
      vertex 4.8541 3.52671 -4.44089e-16
    endloop
  endfacet
  facet normal 0 0 1
    outer loop
      vertex 4.37381 4.10728 -4.44089e-16
      vertex 0 6 -4.44089e-16
      vertex 4.62308 3.82454 -4.44089e-16
    endloop
  endfacet
  facet normal 0 0 1
    outer loop
      vertex 4.10728 4.37381 -4.44089e-16
      vertex 0 6 -4.44089e-16
      vertex 4.37381 4.10728 -4.44089e-16
    endloop
  endfacet
  facet normal 0 0 1
    outer loop
      vertex 3.82454 4.62308 -4.44089e-16
      vertex 0 6 -4.44089e-16
      vertex 4.10728 4.37381 -4.44089e-16
    endloop
  endfacet
  facet normal 0 0 1
    outer loop
      vertex 3.52671 4.8541 -4.44089e-16
      vertex 0 6 -4.44089e-16
      vertex 3.82454 4.62308 -4.44089e-16
    endloop
  endfacet
  facet normal 0 0 1
    outer loop
      vertex 3.21496 5.06597 -4.44089e-16
      vertex 0 6 -4.44089e-16
      vertex 3.52671 4.8541 -4.44089e-16
    endloop
  endfacet
  facet normal 0 0 1
    outer loop
      vertex 2.89052 5.25784 -4.44089e-16
      vertex 0 6 -4.44089e-16
      vertex 3.21496 5.06597 -4.44089e-16
    endloop
  endfacet
  facet normal 0 0 1
    outer loop
      vertex 2.55468 5.42896 -4.44089e-16
      vertex 0 6 -4.44089e-16
      vertex 2.89052 5.25784 -4.44089e-16
    endloop
  endfacet
  facet normal 0 0 1
    outer loop
      vertex 2.20875 5.57866 -4.44089e-16
      vertex 0 6 -4.44089e-16
      vertex 2.55468 5.42896 -4.44089e-16
    endloop
  endfacet
  facet normal 0 0 1
    outer loop
      vertex 1.8541 5.70634 -4.44089e-16
      vertex 0 6 -4.44089e-16
      vertex 2.20875 5.57866 -4.44089e-16
    endloop
  endfacet
  facet normal 0 0 1
    outer loop
      vertex 1.49214 5.8115 -4.44089e-16
      vertex 0 6 -4.44089e-16
      vertex 1.8541 5.70634 -4.44089e-16
    endloop
  endfacet
  facet normal 0 0 1
    outer loop
      vertex 1.12429 5.89372 -4.44089e-16
      vertex 0 6 -4.44089e-16
      vertex 1.49214 5.8115 -4.44089e-16
    endloop
  endfacet
  facet normal 0 0 1
    outer loop
      vertex 0.751999 5.95269 -4.44089e-16
      vertex 0 6 -4.44089e-16
      vertex 1.12429 5.89372 -4.44089e-16
    endloop
  endfacet
  facet normal 0 0 1
    outer loop
      vertex 0.376743 5.98816 -4.44089e-16
      vertex 0 6 -4.44089e-16
      vertex 0.751999 5.95269 -4.44089e-16
    endloop
  endfacet
  facet normal 0.999507 0.0314118 0
    outer loop
      vertex 6 0 -2.7
      vertex 5.98816 0.376743 -2.7
      vertex 5.98816 0.376743 -4.44089e-16
    endloop
  endfacet
  facet normal 0.999507 0.0314118 0
    outer loop
      vertex 6 0 -4.44089e-16
      vertex 6 0 -2.7
      vertex 5.98816 0.376743 -4.44089e-16
    endloop
  endfacet
  facet normal 0.995562 0.094108 0
    outer loop
      vertex 5.98816 0.376743 -2.7
      vertex 5.95269 0.751999 -2.7
      vertex 5.95269 0.751999 -4.44089e-16
    endloop
  endfacet
  facet normal 0.995562 0.094108 0
    outer loop
      vertex 5.98816 0.376743 -4.44089e-16
      vertex 5.98816 0.376743 -2.7
      vertex 5.95269 0.751999 -4.44089e-16
    endloop
  endfacet
  facet normal 0.987689 0.156432 0
    outer loop
      vertex 5.95269 0.751999 -2.7
      vertex 5.89372 1.12429 -2.7
      vertex 5.89372 1.12429 -4.44089e-16
    endloop
  endfacet
  facet normal 0.987689 0.156432 0
    outer loop
      vertex 5.95269 0.751999 -4.44089e-16
      vertex 5.95269 0.751999 -2.7
      vertex 5.89372 1.12429 -4.44089e-16
    endloop
  endfacet
  facet normal 0.975916 0.218145 0
    outer loop
      vertex 5.89372 1.12429 -2.7
      vertex 5.8115 1.49214 -2.7
      vertex 5.8115 1.49214 -4.44089e-16
    endloop
  endfacet
  facet normal 0.975916 0.218145 0
    outer loop
      vertex 5.89372 1.12429 -4.44089e-16
      vertex 5.89372 1.12429 -2.7
      vertex 5.8115 1.49214 -4.44089e-16
    endloop
  endfacet
  facet normal 0.960294 0.278991 0
    outer loop
      vertex 5.8115 1.49214 -2.7
      vertex 5.70634 1.8541 -2.7
      vertex 5.70634 1.8541 -4.44089e-16
    endloop
  endfacet
  facet normal 0.960294 0.278991 0
    outer loop
      vertex 5.8115 1.49214 -4.44089e-16
      vertex 5.8115 1.49214 -2.7
      vertex 5.70634 1.8541 -4.44089e-16
    endloop
  endfacet
  facet normal 0.940881 0.338738 0
    outer loop
      vertex 5.70634 1.8541 -2.7
      vertex 5.57866 2.20875 -2.7
      vertex 5.57866 2.20875 -4.44089e-16
    endloop
  endfacet
  facet normal 0.940881 0.338738 0
    outer loop
      vertex 5.70634 1.8541 -4.44089e-16
      vertex 5.70634 1.8541 -2.7
      vertex 5.57866 2.20875 -4.44089e-16
    endloop
  endfacet
  facet normal 0.917754 0.397148 0
    outer loop
      vertex 5.57866 2.20875 -2.7
      vertex 5.42896 2.55468 -2.7
      vertex 5.42896 2.55468 -4.44089e-16
    endloop
  endfacet
  facet normal 0.917754 0.397148 0
    outer loop
      vertex 5.57866 2.20875 -4.44089e-16
      vertex 5.57866 2.20875 -2.7
      vertex 5.42896 2.55468 -4.44089e-16
    endloop
  endfacet
  facet normal 0.891007 0.45399 0
    outer loop
      vertex 5.42896 2.55468 -2.7
      vertex 5.25784 2.89052 -2.7
      vertex 5.25784 2.89052 -4.44089e-16
    endloop
  endfacet
  facet normal 0.891007 0.45399 0
    outer loop
      vertex 5.42896 2.55468 -4.44089e-16
      vertex 5.42896 2.55468 -2.7
      vertex 5.25784 2.89052 -4.44089e-16
    endloop
  endfacet
  facet normal 0.860743 0.50904 0
    outer loop
      vertex 5.25784 2.89052 -2.7
      vertex 5.06597 3.21496 -2.7
      vertex 5.06597 3.21496 -4.44089e-16
    endloop
  endfacet
  facet normal 0.860743 0.50904 0
    outer loop
      vertex 5.25784 2.89052 -4.44089e-16
      vertex 5.25784 2.89052 -2.7
      vertex 5.06597 3.21496 -4.44089e-16
    endloop
  endfacet
  facet normal 0.82708 0.562084 0
    outer loop
      vertex 5.06597 3.21496 -2.7
      vertex 4.8541 3.52671 -2.7
      vertex 4.8541 3.52671 -4.44089e-16
    endloop
  endfacet
  facet normal 0.82708 0.562084 0
    outer loop
      vertex 5.06597 3.21496 -4.44089e-16
      vertex 5.06597 3.21496 -2.7
      vertex 4.8541 3.52671 -4.44089e-16
    endloop
  endfacet
  facet normal 0.790154 0.612908 0
    outer loop
      vertex 4.8541 3.52671 -2.7
      vertex 4.62308 3.82454 -2.7
      vertex 4.62308 3.82454 -4.44089e-16
    endloop
  endfacet
  facet normal 0.790154 0.612908 0
    outer loop
      vertex 4.8541 3.52671 -4.44089e-16
      vertex 4.8541 3.52671 -2.7
      vertex 4.62308 3.82454 -4.44089e-16
    endloop
  endfacet
  facet normal 0.750112 0.66131 0
    outer loop
      vertex 4.62308 3.82454 -2.7
      vertex 4.37381 4.10728 -2.7
      vertex 4.37381 4.10728 -4.44089e-16
    endloop
  endfacet
  facet normal 0.750112 0.66131 0
    outer loop
      vertex 4.62308 3.82454 -4.44089e-16
      vertex 4.62308 3.82454 -2.7
      vertex 4.37381 4.10728 -4.44089e-16
    endloop
  endfacet
  facet normal 0.707107 0.707107 0
    outer loop
      vertex 4.10728 4.37381 -2.7
      vertex 4.10728 4.37381 -4.44089e-16
      vertex 4.37381 4.10728 -2.7
    endloop
  endfacet
  facet normal 0.707107 0.707107 0
    outer loop
      vertex 4.37381 4.10728 -2.7
      vertex 4.10728 4.37381 -4.44089e-16
      vertex 4.37381 4.10728 -4.44089e-16
    endloop
  endfacet
  facet normal 0.66131 0.750112 0
    outer loop
      vertex 3.82454 4.62308 -2.7
      vertex 3.82454 4.62308 -4.44089e-16
      vertex 4.10728 4.37381 -2.7
    endloop
  endfacet
  facet normal 0.66131 0.750112 0
    outer loop
      vertex 4.10728 4.37381 -2.7
      vertex 3.82454 4.62308 -4.44089e-16
      vertex 4.10728 4.37381 -4.44089e-16
    endloop
  endfacet
  facet normal 0.612908 0.790154 0
    outer loop
      vertex 3.52671 4.8541 -2.7
      vertex 3.52671 4.8541 -4.44089e-16
      vertex 3.82454 4.62308 -2.7
    endloop
  endfacet
  facet normal 0.612908 0.790154 0
    outer loop
      vertex 3.82454 4.62308 -2.7
      vertex 3.52671 4.8541 -4.44089e-16
      vertex 3.82454 4.62308 -4.44089e-16
    endloop
  endfacet
  facet normal 0.562084 0.82708 0
    outer loop
      vertex 3.21496 5.06597 -2.7
      vertex 3.21496 5.06597 -4.44089e-16
      vertex 3.52671 4.8541 -2.7
    endloop
  endfacet
  facet normal 0.562084 0.82708 0
    outer loop
      vertex 3.52671 4.8541 -2.7
      vertex 3.21496 5.06597 -4.44089e-16
      vertex 3.52671 4.8541 -4.44089e-16
    endloop
  endfacet
  facet normal 0.50904 0.860743 0
    outer loop
      vertex 2.89052 5.25784 -2.7
      vertex 2.89052 5.25784 -4.44089e-16
      vertex 3.21496 5.06597 -2.7
    endloop
  endfacet
  facet normal 0.50904 0.860743 0
    outer loop
      vertex 3.21496 5.06597 -2.7
      vertex 2.89052 5.25784 -4.44089e-16
      vertex 3.21496 5.06597 -4.44089e-16
    endloop
  endfacet
  facet normal 0.45399 0.891007 0
    outer loop
      vertex 2.55468 5.42896 -2.7
      vertex 2.55468 5.42896 -4.44089e-16
      vertex 2.89052 5.25784 -2.7
    endloop
  endfacet
  facet normal 0.45399 0.891007 0
    outer loop
      vertex 2.89052 5.25784 -2.7
      vertex 2.55468 5.42896 -4.44089e-16
      vertex 2.89052 5.25784 -4.44089e-16
    endloop
  endfacet
  facet normal 0.397148 0.917754 0
    outer loop
      vertex 2.20875 5.57866 -2.7
      vertex 2.20875 5.57866 -4.44089e-16
      vertex 2.55468 5.42896 -2.7
    endloop
  endfacet
  facet normal 0.397148 0.917754 0
    outer loop
      vertex 2.55468 5.42896 -2.7
      vertex 2.20875 5.57866 -4.44089e-16
      vertex 2.55468 5.42896 -4.44089e-16
    endloop
  endfacet
  facet normal 0.338738 0.940881 0
    outer loop
      vertex 1.8541 5.70634 -2.7
      vertex 1.8541 5.70634 -4.44089e-16
      vertex 2.20875 5.57866 -2.7
    endloop
  endfacet
  facet normal 0.338738 0.940881 0
    outer loop
      vertex 2.20875 5.57866 -2.7
      vertex 1.8541 5.70634 -4.44089e-16
      vertex 2.20875 5.57866 -4.44089e-16
    endloop
  endfacet
  facet normal 0.278991 0.960294 0
    outer loop
      vertex 1.49214 5.8115 -2.7
      vertex 1.49214 5.8115 -4.44089e-16
      vertex 1.8541 5.70634 -2.7
    endloop
  endfacet
  facet normal 0.278991 0.960294 0
    outer loop
      vertex 1.8541 5.70634 -2.7
      vertex 1.49214 5.8115 -4.44089e-16
      vertex 1.8541 5.70634 -4.44089e-16
    endloop
  endfacet
  facet normal 0.218145 0.975916 0
    outer loop
      vertex 1.12429 5.89372 -2.7
      vertex 1.12429 5.89372 -4.44089e-16
      vertex 1.49214 5.8115 -2.7
    endloop
  endfacet
  facet normal 0.218145 0.975916 0
    outer loop
      vertex 1.49214 5.8115 -2.7
      vertex 1.12429 5.89372 -4.44089e-16
      vertex 1.49214 5.8115 -4.44089e-16
    endloop
  endfacet
  facet normal 0.156432 0.987689 0
    outer loop
      vertex 0.751999 5.95269 -2.7
      vertex 0.751999 5.95269 -4.44089e-16
      vertex 1.12429 5.89372 -2.7
    endloop
  endfacet
  facet normal 0.156432 0.987689 0
    outer loop
      vertex 1.12429 5.89372 -2.7
      vertex 0.751999 5.95269 -4.44089e-16
      vertex 1.12429 5.89372 -4.44089e-16
    endloop
  endfacet
  facet normal 0.094108 0.995562 0
    outer loop
      vertex 0.376743 5.98816 -2.7
      vertex 0.376743 5.98816 -4.44089e-16
      vertex 0.751999 5.95269 -2.7
    endloop
  endfacet
  facet normal 0.094108 0.995562 0
    outer loop
      vertex 0.751999 5.95269 -2.7
      vertex 0.376743 5.98816 -4.44089e-16
      vertex 0.751999 5.95269 -4.44089e-16
    endloop
  endfacet
  facet normal 0 0 -1
    outer loop
      vertex 113 219 -2.7
      vertex 119 219 -2.7
      vertex 113.012 218.623 -2.7
    endloop
  endfacet
  facet normal 0 0 -1
    outer loop
      vertex 113.012 218.623 -2.7
      vertex 119 219 -2.7
      vertex 119 213 -2.7
    endloop
  endfacet
  facet normal 0 0 -1
    outer loop
      vertex 113.012 218.623 -2.7
      vertex 119 213 -2.7
      vertex 118.623 213.012 -2.7
    endloop
  endfacet
  facet normal 0 0 -1
    outer loop
      vertex 113.012 218.623 -2.7
      vertex 118.623 213.012 -2.7
      vertex 118.248 213.047 -2.7
    endloop
  endfacet
  facet normal 0 0 -1
    outer loop
      vertex 113.012 218.623 -2.7
      vertex 118.248 213.047 -2.7
      vertex 117.876 213.106 -2.7
    endloop
  endfacet
  facet normal 0 0 -1
    outer loop
      vertex 113.012 218.623 -2.7
      vertex 117.876 213.106 -2.7
      vertex 117.508 213.189 -2.7
    endloop
  endfacet
  facet normal 0 0 -1
    outer loop
      vertex 113.012 218.623 -2.7
      vertex 117.508 213.189 -2.7
      vertex 117.146 213.294 -2.7
    endloop
  endfacet
  facet normal 0 0 -1
    outer loop
      vertex 113.012 218.623 -2.7
      vertex 117.146 213.294 -2.7
      vertex 116.791 213.421 -2.7
    endloop
  endfacet
  facet normal 0 0 -1
    outer loop
      vertex 113.012 218.623 -2.7
      vertex 116.791 213.421 -2.7
      vertex 116.445 213.571 -2.7
    endloop
  endfacet
  facet normal 0 0 -1
    outer loop
      vertex 113.012 218.623 -2.7
      vertex 116.445 213.571 -2.7
      vertex 116.109 213.742 -2.7
    endloop
  endfacet
  facet normal 0 0 -1
    outer loop
      vertex 113.012 218.623 -2.7
      vertex 116.109 213.742 -2.7
      vertex 115.785 213.934 -2.7
    endloop
  endfacet
  facet normal 0 0 -1
    outer loop
      vertex 113.012 218.623 -2.7
      vertex 115.785 213.934 -2.7
      vertex 115.473 214.146 -2.7
    endloop
  endfacet
  facet normal 0 0 -1
    outer loop
      vertex 113.012 218.623 -2.7
      vertex 115.473 214.146 -2.7
      vertex 115.175 214.377 -2.7
    endloop
  endfacet
  facet normal 0 0 -1
    outer loop
      vertex 113.012 218.623 -2.7
      vertex 115.175 214.377 -2.7
      vertex 114.893 214.626 -2.7
    endloop
  endfacet
  facet normal 0 0 -1
    outer loop
      vertex 113.012 218.623 -2.7
      vertex 114.893 214.626 -2.7
      vertex 114.626 214.893 -2.7
    endloop
  endfacet
  facet normal 0 0 -1
    outer loop
      vertex 113.012 218.623 -2.7
      vertex 114.626 214.893 -2.7
      vertex 114.377 215.175 -2.7
    endloop
  endfacet
  facet normal 0 0 -1
    outer loop
      vertex 113.012 218.623 -2.7
      vertex 114.377 215.175 -2.7
      vertex 114.146 215.473 -2.7
    endloop
  endfacet
  facet normal 0 0 -1
    outer loop
      vertex 113.012 218.623 -2.7
      vertex 114.146 215.473 -2.7
      vertex 113.934 215.785 -2.7
    endloop
  endfacet
  facet normal 0 0 -1
    outer loop
      vertex 113.012 218.623 -2.7
      vertex 113.934 215.785 -2.7
      vertex 113.742 216.109 -2.7
    endloop
  endfacet
  facet normal 0 0 -1
    outer loop
      vertex 113.012 218.623 -2.7
      vertex 113.742 216.109 -2.7
      vertex 113.571 216.445 -2.7
    endloop
  endfacet
  facet normal 0 0 -1
    outer loop
      vertex 113.012 218.623 -2.7
      vertex 113.571 216.445 -2.7
      vertex 113.421 216.791 -2.7
    endloop
  endfacet
  facet normal 0 0 -1
    outer loop
      vertex 113.012 218.623 -2.7
      vertex 113.421 216.791 -2.7
      vertex 113.294 217.146 -2.7
    endloop
  endfacet
  facet normal 0 0 -1
    outer loop
      vertex 113.012 218.623 -2.7
      vertex 113.294 217.146 -2.7
      vertex 113.189 217.508 -2.7
    endloop
  endfacet
  facet normal 0 0 -1
    outer loop
      vertex 113.012 218.623 -2.7
      vertex 113.189 217.508 -2.7
      vertex 113.106 217.876 -2.7
    endloop
  endfacet
  facet normal 0 0 -1
    outer loop
      vertex 113.012 218.623 -2.7
      vertex 113.106 217.876 -2.7
      vertex 113.047 218.248 -2.7
    endloop
  endfacet
  facet normal 1.22465e-16 1 0
    outer loop
      vertex 113 219 -2.7
      vertex 113 219 -4.44089e-16
      vertex 119 219 -2.7
    endloop
  endfacet
  facet normal 1.22465e-16 1 0
    outer loop
      vertex 119 219 -2.7
      vertex 113 219 -4.44089e-16
      vertex 119 219 -4.44089e-16
    endloop
  endfacet
  facet normal -0.999507 -0.0314118 0
    outer loop
      vertex 113 219 -2.7
      vertex 113.012 218.623 -2.7
      vertex 113 219 -4.44089e-16
    endloop
  endfacet
  facet normal -0.999507 -0.0314118 0
    outer loop
      vertex 113 219 -4.44089e-16
      vertex 113.012 218.623 -2.7
      vertex 113.012 218.623 -4.44089e-16
    endloop
  endfacet
  facet normal -0.995562 -0.094108 0
    outer loop
      vertex 113.012 218.623 -2.7
      vertex 113.047 218.248 -2.7
      vertex 113.012 218.623 -4.44089e-16
    endloop
  endfacet
  facet normal -0.995562 -0.094108 0
    outer loop
      vertex 113.012 218.623 -4.44089e-16
      vertex 113.047 218.248 -2.7
      vertex 113.047 218.248 -4.44089e-16
    endloop
  endfacet
  facet normal -0.987689 -0.156432 0
    outer loop
      vertex 113.047 218.248 -2.7
      vertex 113.106 217.876 -2.7
      vertex 113.047 218.248 -4.44089e-16
    endloop
  endfacet
  facet normal -0.987689 -0.156432 0
    outer loop
      vertex 113.047 218.248 -4.44089e-16
      vertex 113.106 217.876 -2.7
      vertex 113.106 217.876 -4.44089e-16
    endloop
  endfacet
  facet normal -0.975916 -0.218145 0
    outer loop
      vertex 113.106 217.876 -2.7
      vertex 113.189 217.508 -2.7
      vertex 113.106 217.876 -4.44089e-16
    endloop
  endfacet
  facet normal -0.975916 -0.218145 0
    outer loop
      vertex 113.106 217.876 -4.44089e-16
      vertex 113.189 217.508 -2.7
      vertex 113.189 217.508 -4.44089e-16
    endloop
  endfacet
  facet normal -0.960294 -0.278991 0
    outer loop
      vertex 113.189 217.508 -2.7
      vertex 113.294 217.146 -2.7
      vertex 113.189 217.508 -4.44089e-16
    endloop
  endfacet
  facet normal -0.960294 -0.278991 0
    outer loop
      vertex 113.189 217.508 -4.44089e-16
      vertex 113.294 217.146 -2.7
      vertex 113.294 217.146 -4.44089e-16
    endloop
  endfacet
  facet normal -0.940881 -0.338738 0
    outer loop
      vertex 113.294 217.146 -2.7
      vertex 113.421 216.791 -2.7
      vertex 113.294 217.146 -4.44089e-16
    endloop
  endfacet
  facet normal -0.940881 -0.338738 0
    outer loop
      vertex 113.294 217.146 -4.44089e-16
      vertex 113.421 216.791 -2.7
      vertex 113.421 216.791 -4.44089e-16
    endloop
  endfacet
  facet normal -0.917754 -0.397148 0
    outer loop
      vertex 113.421 216.791 -2.7
      vertex 113.571 216.445 -2.7
      vertex 113.421 216.791 -4.44089e-16
    endloop
  endfacet
  facet normal -0.917754 -0.397148 0
    outer loop
      vertex 113.421 216.791 -4.44089e-16
      vertex 113.571 216.445 -2.7
      vertex 113.571 216.445 -4.44089e-16
    endloop
  endfacet
  facet normal -0.891007 -0.45399 0
    outer loop
      vertex 113.571 216.445 -2.7
      vertex 113.742 216.109 -2.7
      vertex 113.571 216.445 -4.44089e-16
    endloop
  endfacet
  facet normal -0.891007 -0.45399 0
    outer loop
      vertex 113.571 216.445 -4.44089e-16
      vertex 113.742 216.109 -2.7
      vertex 113.742 216.109 -4.44089e-16
    endloop
  endfacet
  facet normal -0.860743 -0.50904 0
    outer loop
      vertex 113.742 216.109 -2.7
      vertex 113.934 215.785 -2.7
      vertex 113.742 216.109 -4.44089e-16
    endloop
  endfacet
  facet normal -0.860743 -0.50904 0
    outer loop
      vertex 113.742 216.109 -4.44089e-16
      vertex 113.934 215.785 -2.7
      vertex 113.934 215.785 -4.44089e-16
    endloop
  endfacet
  facet normal -0.82708 -0.562084 0
    outer loop
      vertex 113.934 215.785 -2.7
      vertex 114.146 215.473 -2.7
      vertex 113.934 215.785 -4.44089e-16
    endloop
  endfacet
  facet normal -0.82708 -0.562084 0
    outer loop
      vertex 113.934 215.785 -4.44089e-16
      vertex 114.146 215.473 -2.7
      vertex 114.146 215.473 -4.44089e-16
    endloop
  endfacet
  facet normal -0.790154 -0.612908 0
    outer loop
      vertex 114.146 215.473 -2.7
      vertex 114.377 215.175 -2.7
      vertex 114.146 215.473 -4.44089e-16
    endloop
  endfacet
  facet normal -0.790154 -0.612908 0
    outer loop
      vertex 114.146 215.473 -4.44089e-16
      vertex 114.377 215.175 -2.7
      vertex 114.377 215.175 -4.44089e-16
    endloop
  endfacet
  facet normal -0.750112 -0.66131 0
    outer loop
      vertex 114.377 215.175 -2.7
      vertex 114.626 214.893 -2.7
      vertex 114.377 215.175 -4.44089e-16
    endloop
  endfacet
  facet normal -0.750112 -0.66131 0
    outer loop
      vertex 114.377 215.175 -4.44089e-16
      vertex 114.626 214.893 -2.7
      vertex 114.626 214.893 -4.44089e-16
    endloop
  endfacet
  facet normal -0.707107 -0.707107 0
    outer loop
      vertex 114.626 214.893 -2.7
      vertex 114.893 214.626 -2.7
      vertex 114.626 214.893 -4.44089e-16
    endloop
  endfacet
  facet normal -0.707107 -0.707107 0
    outer loop
      vertex 114.626 214.893 -4.44089e-16
      vertex 114.893 214.626 -2.7
      vertex 114.893 214.626 -4.44089e-16
    endloop
  endfacet
  facet normal -0.66131 -0.750112 0
    outer loop
      vertex 114.893 214.626 -4.44089e-16
      vertex 114.893 214.626 -2.7
      vertex 115.175 214.377 -2.7
    endloop
  endfacet
  facet normal -0.66131 -0.750112 0
    outer loop
      vertex 115.175 214.377 -4.44089e-16
      vertex 114.893 214.626 -4.44089e-16
      vertex 115.175 214.377 -2.7
    endloop
  endfacet
  facet normal -0.612908 -0.790154 0
    outer loop
      vertex 115.175 214.377 -4.44089e-16
      vertex 115.175 214.377 -2.7
      vertex 115.473 214.146 -2.7
    endloop
  endfacet
  facet normal -0.612908 -0.790154 0
    outer loop
      vertex 115.473 214.146 -4.44089e-16
      vertex 115.175 214.377 -4.44089e-16
      vertex 115.473 214.146 -2.7
    endloop
  endfacet
  facet normal -0.562084 -0.82708 0
    outer loop
      vertex 115.473 214.146 -4.44089e-16
      vertex 115.473 214.146 -2.7
      vertex 115.785 213.934 -2.7
    endloop
  endfacet
  facet normal -0.562084 -0.82708 0
    outer loop
      vertex 115.785 213.934 -4.44089e-16
      vertex 115.473 214.146 -4.44089e-16
      vertex 115.785 213.934 -2.7
    endloop
  endfacet
  facet normal -0.50904 -0.860743 0
    outer loop
      vertex 115.785 213.934 -4.44089e-16
      vertex 115.785 213.934 -2.7
      vertex 116.109 213.742 -2.7
    endloop
  endfacet
  facet normal -0.50904 -0.860743 0
    outer loop
      vertex 116.109 213.742 -4.44089e-16
      vertex 115.785 213.934 -4.44089e-16
      vertex 116.109 213.742 -2.7
    endloop
  endfacet
  facet normal -0.45399 -0.891007 0
    outer loop
      vertex 116.109 213.742 -4.44089e-16
      vertex 116.109 213.742 -2.7
      vertex 116.445 213.571 -2.7
    endloop
  endfacet
  facet normal -0.45399 -0.891007 0
    outer loop
      vertex 116.445 213.571 -4.44089e-16
      vertex 116.109 213.742 -4.44089e-16
      vertex 116.445 213.571 -2.7
    endloop
  endfacet
  facet normal -0.397148 -0.917754 0
    outer loop
      vertex 116.445 213.571 -4.44089e-16
      vertex 116.445 213.571 -2.7
      vertex 116.791 213.421 -2.7
    endloop
  endfacet
  facet normal -0.397148 -0.917754 0
    outer loop
      vertex 116.791 213.421 -4.44089e-16
      vertex 116.445 213.571 -4.44089e-16
      vertex 116.791 213.421 -2.7
    endloop
  endfacet
  facet normal -0.338738 -0.940881 0
    outer loop
      vertex 116.791 213.421 -4.44089e-16
      vertex 116.791 213.421 -2.7
      vertex 117.146 213.294 -2.7
    endloop
  endfacet
  facet normal -0.338738 -0.940881 0
    outer loop
      vertex 117.146 213.294 -4.44089e-16
      vertex 116.791 213.421 -4.44089e-16
      vertex 117.146 213.294 -2.7
    endloop
  endfacet
  facet normal -0.278991 -0.960294 0
    outer loop
      vertex 117.146 213.294 -4.44089e-16
      vertex 117.146 213.294 -2.7
      vertex 117.508 213.189 -2.7
    endloop
  endfacet
  facet normal -0.278991 -0.960294 0
    outer loop
      vertex 117.508 213.189 -4.44089e-16
      vertex 117.146 213.294 -4.44089e-16
      vertex 117.508 213.189 -2.7
    endloop
  endfacet
  facet normal -0.218145 -0.975916 0
    outer loop
      vertex 117.508 213.189 -4.44089e-16
      vertex 117.508 213.189 -2.7
      vertex 117.876 213.106 -2.7
    endloop
  endfacet
  facet normal -0.218145 -0.975916 0
    outer loop
      vertex 117.876 213.106 -4.44089e-16
      vertex 117.508 213.189 -4.44089e-16
      vertex 117.876 213.106 -2.7
    endloop
  endfacet
  facet normal -0.156432 -0.987689 0
    outer loop
      vertex 117.876 213.106 -4.44089e-16
      vertex 117.876 213.106 -2.7
      vertex 118.248 213.047 -2.7
    endloop
  endfacet
  facet normal -0.156432 -0.987689 0
    outer loop
      vertex 118.248 213.047 -4.44089e-16
      vertex 117.876 213.106 -4.44089e-16
      vertex 118.248 213.047 -2.7
    endloop
  endfacet
  facet normal -0.094108 -0.995562 0
    outer loop
      vertex 118.248 213.047 -4.44089e-16
      vertex 118.248 213.047 -2.7
      vertex 118.623 213.012 -2.7
    endloop
  endfacet
  facet normal -0.094108 -0.995562 0
    outer loop
      vertex 118.623 213.012 -4.44089e-16
      vertex 118.248 213.047 -4.44089e-16
      vertex 118.623 213.012 -2.7
    endloop
  endfacet
  facet normal -0.0314118 -0.999507 0
    outer loop
      vertex 118.623 213.012 -4.44089e-16
      vertex 118.623 213.012 -2.7
      vertex 119 213 -2.7
    endloop
  endfacet
  facet normal -0.0314118 -0.999507 0
    outer loop
      vertex 119 213 -4.44089e-16
      vertex 118.623 213.012 -4.44089e-16
      vertex 119 213 -2.7
    endloop
  endfacet
  facet normal 1 -1.22465e-16 0
    outer loop
      vertex 119 213 -4.44089e-16
      vertex 119 213 -2.7
      vertex 119 219 -2.7
    endloop
  endfacet
  facet normal 1 -1.22465e-16 0
    outer loop
      vertex 119 219 -4.44089e-16
      vertex 119 213 -4.44089e-16
      vertex 119 219 -2.7
    endloop
  endfacet
  facet normal 0 0 1
    outer loop
      vertex 119 219 -4.44089e-16
      vertex 113 219 -4.44089e-16
      vertex 113.012 218.623 -4.44089e-16
    endloop
  endfacet
  facet normal 0 0 1
    outer loop
      vertex 113.106 217.876 -4.44089e-16
      vertex 119 219 -4.44089e-16
      vertex 113.047 218.248 -4.44089e-16
    endloop
  endfacet
  facet normal 0 0 1
    outer loop
      vertex 113.047 218.248 -4.44089e-16
      vertex 119 219 -4.44089e-16
      vertex 113.012 218.623 -4.44089e-16
    endloop
  endfacet
  facet normal 0 0 1
    outer loop
      vertex 113.189 217.508 -4.44089e-16
      vertex 119 219 -4.44089e-16
      vertex 113.106 217.876 -4.44089e-16
    endloop
  endfacet
  facet normal 0 0 1
    outer loop
      vertex 113.294 217.146 -4.44089e-16
      vertex 119 219 -4.44089e-16
      vertex 113.189 217.508 -4.44089e-16
    endloop
  endfacet
  facet normal 0 0 1
    outer loop
      vertex 113.421 216.791 -4.44089e-16
      vertex 119 219 -4.44089e-16
      vertex 113.294 217.146 -4.44089e-16
    endloop
  endfacet
  facet normal 0 0 1
    outer loop
      vertex 113.571 216.445 -4.44089e-16
      vertex 119 219 -4.44089e-16
      vertex 113.421 216.791 -4.44089e-16
    endloop
  endfacet
  facet normal 0 0 1
    outer loop
      vertex 113.742 216.109 -4.44089e-16
      vertex 119 219 -4.44089e-16
      vertex 113.571 216.445 -4.44089e-16
    endloop
  endfacet
  facet normal 0 0 1
    outer loop
      vertex 113.934 215.785 -4.44089e-16
      vertex 119 219 -4.44089e-16
      vertex 113.742 216.109 -4.44089e-16
    endloop
  endfacet
  facet normal 0 0 1
    outer loop
      vertex 114.146 215.473 -4.44089e-16
      vertex 119 219 -4.44089e-16
      vertex 113.934 215.785 -4.44089e-16
    endloop
  endfacet
  facet normal 0 0 1
    outer loop
      vertex 114.377 215.175 -4.44089e-16
      vertex 119 219 -4.44089e-16
      vertex 114.146 215.473 -4.44089e-16
    endloop
  endfacet
  facet normal 0 0 1
    outer loop
      vertex 114.626 214.893 -4.44089e-16
      vertex 119 219 -4.44089e-16
      vertex 114.377 215.175 -4.44089e-16
    endloop
  endfacet
  facet normal 0 0 1
    outer loop
      vertex 114.893 214.626 -4.44089e-16
      vertex 119 219 -4.44089e-16
      vertex 114.626 214.893 -4.44089e-16
    endloop
  endfacet
  facet normal 0 0 1
    outer loop
      vertex 115.175 214.377 -4.44089e-16
      vertex 119 219 -4.44089e-16
      vertex 114.893 214.626 -4.44089e-16
    endloop
  endfacet
  facet normal 0 0 1
    outer loop
      vertex 115.473 214.146 -4.44089e-16
      vertex 119 219 -4.44089e-16
      vertex 115.175 214.377 -4.44089e-16
    endloop
  endfacet
  facet normal 0 0 1
    outer loop
      vertex 115.785 213.934 -4.44089e-16
      vertex 119 219 -4.44089e-16
      vertex 115.473 214.146 -4.44089e-16
    endloop
  endfacet
  facet normal 0 0 1
    outer loop
      vertex 116.109 213.742 -4.44089e-16
      vertex 119 219 -4.44089e-16
      vertex 115.785 213.934 -4.44089e-16
    endloop
  endfacet
  facet normal 0 0 1
    outer loop
      vertex 116.445 213.571 -4.44089e-16
      vertex 119 219 -4.44089e-16
      vertex 116.109 213.742 -4.44089e-16
    endloop
  endfacet
  facet normal 0 0 1
    outer loop
      vertex 116.791 213.421 -4.44089e-16
      vertex 119 219 -4.44089e-16
      vertex 116.445 213.571 -4.44089e-16
    endloop
  endfacet
  facet normal 0 0 1
    outer loop
      vertex 117.146 213.294 -4.44089e-16
      vertex 119 219 -4.44089e-16
      vertex 116.791 213.421 -4.44089e-16
    endloop
  endfacet
  facet normal 0 0 1
    outer loop
      vertex 117.508 213.189 -4.44089e-16
      vertex 119 219 -4.44089e-16
      vertex 117.146 213.294 -4.44089e-16
    endloop
  endfacet
  facet normal 0 0 1
    outer loop
      vertex 117.876 213.106 -4.44089e-16
      vertex 119 219 -4.44089e-16
      vertex 117.508 213.189 -4.44089e-16
    endloop
  endfacet
  facet normal 0 0 1
    outer loop
      vertex 118.248 213.047 -4.44089e-16
      vertex 119 219 -4.44089e-16
      vertex 117.876 213.106 -4.44089e-16
    endloop
  endfacet
  facet normal 0 0 1
    outer loop
      vertex 118.623 213.012 -4.44089e-16
      vertex 119 219 -4.44089e-16
      vertex 118.248 213.047 -4.44089e-16
    endloop
  endfacet
  facet normal 0 0 1
    outer loop
      vertex 119 213 -4.44089e-16
      vertex 119 219 -4.44089e-16
      vertex 118.623 213.012 -4.44089e-16
    endloop
  endfacet
  facet normal -2.22045e-16 1 0
    outer loop
      vertex 0 219 -2.7
      vertex 0 219 -4.44089e-16
      vertex 6 219 -2.7
    endloop
  endfacet
  facet normal -2.22045e-16 1 0
    outer loop
      vertex 6 219 -2.7
      vertex 0 219 -4.44089e-16
      vertex 6 219 -4.44089e-16
    endloop
  endfacet
  facet normal -1 -2.22045e-16 0
    outer loop
      vertex 0 219 -2.7
      vertex 1.33227e-15 213 -2.7
      vertex 0 219 -4.44089e-16
    endloop
  endfacet
  facet normal -1 -2.22045e-16 0
    outer loop
      vertex 0 219 -4.44089e-16
      vertex 1.33227e-15 213 -2.7
      vertex 1.33227e-15 213 -4.44089e-16
    endloop
  endfacet
  facet normal 0 0 -1
    outer loop
      vertex 0 219 -2.7
      vertex 6 219 -2.7
      vertex 1.33227e-15 213 -2.7
    endloop
  endfacet
  facet normal 0 0 -1
    outer loop
      vertex 1.33227e-15 213 -2.7
      vertex 6 219 -2.7
      vertex 5.98816 218.623 -2.7
    endloop
  endfacet
  facet normal 0 0 -1
    outer loop
      vertex 1.33227e-15 213 -2.7
      vertex 5.98816 218.623 -2.7
      vertex 5.95269 218.248 -2.7
    endloop
  endfacet
  facet normal 0 0 -1
    outer loop
      vertex 1.33227e-15 213 -2.7
      vertex 5.95269 218.248 -2.7
      vertex 5.89372 217.876 -2.7
    endloop
  endfacet
  facet normal 0 0 -1
    outer loop
      vertex 1.33227e-15 213 -2.7
      vertex 5.89372 217.876 -2.7
      vertex 5.8115 217.508 -2.7
    endloop
  endfacet
  facet normal 0 0 -1
    outer loop
      vertex 1.33227e-15 213 -2.7
      vertex 5.8115 217.508 -2.7
      vertex 5.70634 217.146 -2.7
    endloop
  endfacet
  facet normal 0 0 -1
    outer loop
      vertex 1.33227e-15 213 -2.7
      vertex 5.70634 217.146 -2.7
      vertex 5.57866 216.791 -2.7
    endloop
  endfacet
  facet normal 0 0 -1
    outer loop
      vertex 1.33227e-15 213 -2.7
      vertex 5.57866 216.791 -2.7
      vertex 5.42896 216.445 -2.7
    endloop
  endfacet
  facet normal 0 0 -1
    outer loop
      vertex 1.33227e-15 213 -2.7
      vertex 5.42896 216.445 -2.7
      vertex 5.25784 216.109 -2.7
    endloop
  endfacet
  facet normal 0 0 -1
    outer loop
      vertex 1.33227e-15 213 -2.7
      vertex 5.25784 216.109 -2.7
      vertex 5.06597 215.785 -2.7
    endloop
  endfacet
  facet normal 0 0 -1
    outer loop
      vertex 1.33227e-15 213 -2.7
      vertex 5.06597 215.785 -2.7
      vertex 4.8541 215.473 -2.7
    endloop
  endfacet
  facet normal 0 0 -1
    outer loop
      vertex 1.33227e-15 213 -2.7
      vertex 4.8541 215.473 -2.7
      vertex 4.62308 215.175 -2.7
    endloop
  endfacet
  facet normal 0 0 -1
    outer loop
      vertex 1.33227e-15 213 -2.7
      vertex 4.62308 215.175 -2.7
      vertex 4.37381 214.893 -2.7
    endloop
  endfacet
  facet normal 0 0 -1
    outer loop
      vertex 1.33227e-15 213 -2.7
      vertex 4.37381 214.893 -2.7
      vertex 4.10728 214.626 -2.7
    endloop
  endfacet
  facet normal 0 0 -1
    outer loop
      vertex 1.33227e-15 213 -2.7
      vertex 4.10728 214.626 -2.7
      vertex 3.82454 214.377 -2.7
    endloop
  endfacet
  facet normal 0 0 -1
    outer loop
      vertex 1.33227e-15 213 -2.7
      vertex 3.82454 214.377 -2.7
      vertex 3.52671 214.146 -2.7
    endloop
  endfacet
  facet normal 0 0 -1
    outer loop
      vertex 1.33227e-15 213 -2.7
      vertex 3.52671 214.146 -2.7
      vertex 3.21496 213.934 -2.7
    endloop
  endfacet
  facet normal 0 0 -1
    outer loop
      vertex 1.33227e-15 213 -2.7
      vertex 3.21496 213.934 -2.7
      vertex 2.89052 213.742 -2.7
    endloop
  endfacet
  facet normal 0 0 -1
    outer loop
      vertex 1.33227e-15 213 -2.7
      vertex 2.89052 213.742 -2.7
      vertex 2.55468 213.571 -2.7
    endloop
  endfacet
  facet normal 0 0 -1
    outer loop
      vertex 1.33227e-15 213 -2.7
      vertex 2.55468 213.571 -2.7
      vertex 2.20875 213.421 -2.7
    endloop
  endfacet
  facet normal 0 0 -1
    outer loop
      vertex 1.33227e-15 213 -2.7
      vertex 2.20875 213.421 -2.7
      vertex 1.8541 213.294 -2.7
    endloop
  endfacet
  facet normal 0 0 -1
    outer loop
      vertex 1.33227e-15 213 -2.7
      vertex 1.8541 213.294 -2.7
      vertex 1.49214 213.189 -2.7
    endloop
  endfacet
  facet normal 0 0 -1
    outer loop
      vertex 1.33227e-15 213 -2.7
      vertex 1.49214 213.189 -2.7
      vertex 1.12429 213.106 -2.7
    endloop
  endfacet
  facet normal 0 0 -1
    outer loop
      vertex 1.33227e-15 213 -2.7
      vertex 1.12429 213.106 -2.7
      vertex 0.751999 213.047 -2.7
    endloop
  endfacet
  facet normal 0 0 -1
    outer loop
      vertex 1.33227e-15 213 -2.7
      vertex 0.751999 213.047 -2.7
      vertex 0.376743 213.012 -2.7
    endloop
  endfacet
  facet normal 0.999507 -0.0314118 0
    outer loop
      vertex 5.98816 218.623 -4.44089e-16
      vertex 5.98816 218.623 -2.7
      vertex 6 219 -2.7
    endloop
  endfacet
  facet normal 0.999507 -0.0314118 0
    outer loop
      vertex 6 219 -4.44089e-16
      vertex 5.98816 218.623 -4.44089e-16
      vertex 6 219 -2.7
    endloop
  endfacet
  facet normal 0 0 1
    outer loop
      vertex 6 219 -4.44089e-16
      vertex 0 219 -4.44089e-16
      vertex 1.33227e-15 213 -4.44089e-16
    endloop
  endfacet
  facet normal 0 0 1
    outer loop
      vertex 0.751999 213.047 -4.44089e-16
      vertex 6 219 -4.44089e-16
      vertex 0.376743 213.012 -4.44089e-16
    endloop
  endfacet
  facet normal 0 0 1
    outer loop
      vertex 0.376743 213.012 -4.44089e-16
      vertex 6 219 -4.44089e-16
      vertex 1.33227e-15 213 -4.44089e-16
    endloop
  endfacet
  facet normal 0 0 1
    outer loop
      vertex 1.12429 213.106 -4.44089e-16
      vertex 6 219 -4.44089e-16
      vertex 0.751999 213.047 -4.44089e-16
    endloop
  endfacet
  facet normal 0 0 1
    outer loop
      vertex 1.49214 213.189 -4.44089e-16
      vertex 6 219 -4.44089e-16
      vertex 1.12429 213.106 -4.44089e-16
    endloop
  endfacet
  facet normal 0 0 1
    outer loop
      vertex 1.8541 213.294 -4.44089e-16
      vertex 6 219 -4.44089e-16
      vertex 1.49214 213.189 -4.44089e-16
    endloop
  endfacet
  facet normal 0 0 1
    outer loop
      vertex 2.20875 213.421 -4.44089e-16
      vertex 6 219 -4.44089e-16
      vertex 1.8541 213.294 -4.44089e-16
    endloop
  endfacet
  facet normal 0 0 1
    outer loop
      vertex 2.55468 213.571 -4.44089e-16
      vertex 6 219 -4.44089e-16
      vertex 2.20875 213.421 -4.44089e-16
    endloop
  endfacet
  facet normal 0 0 1
    outer loop
      vertex 2.89052 213.742 -4.44089e-16
      vertex 6 219 -4.44089e-16
      vertex 2.55468 213.571 -4.44089e-16
    endloop
  endfacet
  facet normal 0 0 1
    outer loop
      vertex 3.21496 213.934 -4.44089e-16
      vertex 6 219 -4.44089e-16
      vertex 2.89052 213.742 -4.44089e-16
    endloop
  endfacet
  facet normal 0 0 1
    outer loop
      vertex 3.52671 214.146 -4.44089e-16
      vertex 6 219 -4.44089e-16
      vertex 3.21496 213.934 -4.44089e-16
    endloop
  endfacet
  facet normal 0 0 1
    outer loop
      vertex 3.82454 214.377 -4.44089e-16
      vertex 6 219 -4.44089e-16
      vertex 3.52671 214.146 -4.44089e-16
    endloop
  endfacet
  facet normal 0 0 1
    outer loop
      vertex 4.10728 214.626 -4.44089e-16
      vertex 6 219 -4.44089e-16
      vertex 3.82454 214.377 -4.44089e-16
    endloop
  endfacet
  facet normal 0 0 1
    outer loop
      vertex 4.37381 214.893 -4.44089e-16
      vertex 6 219 -4.44089e-16
      vertex 4.10728 214.626 -4.44089e-16
    endloop
  endfacet
  facet normal 0 0 1
    outer loop
      vertex 4.62308 215.175 -4.44089e-16
      vertex 6 219 -4.44089e-16
      vertex 4.37381 214.893 -4.44089e-16
    endloop
  endfacet
  facet normal 0 0 1
    outer loop
      vertex 4.8541 215.473 -4.44089e-16
      vertex 6 219 -4.44089e-16
      vertex 4.62308 215.175 -4.44089e-16
    endloop
  endfacet
  facet normal 0 0 1
    outer loop
      vertex 5.06597 215.785 -4.44089e-16
      vertex 6 219 -4.44089e-16
      vertex 4.8541 215.473 -4.44089e-16
    endloop
  endfacet
  facet normal 0 0 1
    outer loop
      vertex 5.25784 216.109 -4.44089e-16
      vertex 6 219 -4.44089e-16
      vertex 5.06597 215.785 -4.44089e-16
    endloop
  endfacet
  facet normal 0 0 1
    outer loop
      vertex 5.42896 216.445 -4.44089e-16
      vertex 6 219 -4.44089e-16
      vertex 5.25784 216.109 -4.44089e-16
    endloop
  endfacet
  facet normal 0 0 1
    outer loop
      vertex 5.57866 216.791 -4.44089e-16
      vertex 6 219 -4.44089e-16
      vertex 5.42896 216.445 -4.44089e-16
    endloop
  endfacet
  facet normal 0 0 1
    outer loop
      vertex 5.70634 217.146 -4.44089e-16
      vertex 6 219 -4.44089e-16
      vertex 5.57866 216.791 -4.44089e-16
    endloop
  endfacet
  facet normal 0 0 1
    outer loop
      vertex 5.8115 217.508 -4.44089e-16
      vertex 6 219 -4.44089e-16
      vertex 5.70634 217.146 -4.44089e-16
    endloop
  endfacet
  facet normal 0 0 1
    outer loop
      vertex 5.89372 217.876 -4.44089e-16
      vertex 6 219 -4.44089e-16
      vertex 5.8115 217.508 -4.44089e-16
    endloop
  endfacet
  facet normal 0 0 1
    outer loop
      vertex 5.95269 218.248 -4.44089e-16
      vertex 6 219 -4.44089e-16
      vertex 5.89372 217.876 -4.44089e-16
    endloop
  endfacet
  facet normal 0 0 1
    outer loop
      vertex 5.98816 218.623 -4.44089e-16
      vertex 6 219 -4.44089e-16
      vertex 5.95269 218.248 -4.44089e-16
    endloop
  endfacet
  facet normal 0.0314118 -0.999507 0
    outer loop
      vertex 1.33227e-15 213 -4.44089e-16
      vertex 1.33227e-15 213 -2.7
      vertex 0.376743 213.012 -2.7
    endloop
  endfacet
  facet normal 0.0314118 -0.999507 0
    outer loop
      vertex 0.376743 213.012 -4.44089e-16
      vertex 1.33227e-15 213 -4.44089e-16
      vertex 0.376743 213.012 -2.7
    endloop
  endfacet
  facet normal 0.094108 -0.995562 0
    outer loop
      vertex 0.376743 213.012 -4.44089e-16
      vertex 0.376743 213.012 -2.7
      vertex 0.751999 213.047 -2.7
    endloop
  endfacet
  facet normal 0.094108 -0.995562 0
    outer loop
      vertex 0.751999 213.047 -4.44089e-16
      vertex 0.376743 213.012 -4.44089e-16
      vertex 0.751999 213.047 -2.7
    endloop
  endfacet
  facet normal 0.156432 -0.987689 0
    outer loop
      vertex 0.751999 213.047 -4.44089e-16
      vertex 0.751999 213.047 -2.7
      vertex 1.12429 213.106 -2.7
    endloop
  endfacet
  facet normal 0.156432 -0.987689 0
    outer loop
      vertex 1.12429 213.106 -4.44089e-16
      vertex 0.751999 213.047 -4.44089e-16
      vertex 1.12429 213.106 -2.7
    endloop
  endfacet
  facet normal 0.218145 -0.975916 0
    outer loop
      vertex 1.12429 213.106 -4.44089e-16
      vertex 1.12429 213.106 -2.7
      vertex 1.49214 213.189 -2.7
    endloop
  endfacet
  facet normal 0.218145 -0.975916 0
    outer loop
      vertex 1.49214 213.189 -4.44089e-16
      vertex 1.12429 213.106 -4.44089e-16
      vertex 1.49214 213.189 -2.7
    endloop
  endfacet
  facet normal 0.278991 -0.960294 0
    outer loop
      vertex 1.49214 213.189 -4.44089e-16
      vertex 1.49214 213.189 -2.7
      vertex 1.8541 213.294 -2.7
    endloop
  endfacet
  facet normal 0.278991 -0.960294 0
    outer loop
      vertex 1.8541 213.294 -4.44089e-16
      vertex 1.49214 213.189 -4.44089e-16
      vertex 1.8541 213.294 -2.7
    endloop
  endfacet
  facet normal 0.338738 -0.940881 0
    outer loop
      vertex 1.8541 213.294 -4.44089e-16
      vertex 1.8541 213.294 -2.7
      vertex 2.20875 213.421 -2.7
    endloop
  endfacet
  facet normal 0.338738 -0.940881 0
    outer loop
      vertex 2.20875 213.421 -4.44089e-16
      vertex 1.8541 213.294 -4.44089e-16
      vertex 2.20875 213.421 -2.7
    endloop
  endfacet
  facet normal 0.397148 -0.917754 0
    outer loop
      vertex 2.20875 213.421 -4.44089e-16
      vertex 2.20875 213.421 -2.7
      vertex 2.55468 213.571 -2.7
    endloop
  endfacet
  facet normal 0.397148 -0.917754 0
    outer loop
      vertex 2.55468 213.571 -4.44089e-16
      vertex 2.20875 213.421 -4.44089e-16
      vertex 2.55468 213.571 -2.7
    endloop
  endfacet
  facet normal 0.45399 -0.891007 0
    outer loop
      vertex 2.55468 213.571 -4.44089e-16
      vertex 2.55468 213.571 -2.7
      vertex 2.89052 213.742 -2.7
    endloop
  endfacet
  facet normal 0.45399 -0.891007 0
    outer loop
      vertex 2.89052 213.742 -4.44089e-16
      vertex 2.55468 213.571 -4.44089e-16
      vertex 2.89052 213.742 -2.7
    endloop
  endfacet
  facet normal 0.50904 -0.860743 0
    outer loop
      vertex 2.89052 213.742 -4.44089e-16
      vertex 2.89052 213.742 -2.7
      vertex 3.21496 213.934 -2.7
    endloop
  endfacet
  facet normal 0.50904 -0.860743 0
    outer loop
      vertex 3.21496 213.934 -4.44089e-16
      vertex 2.89052 213.742 -4.44089e-16
      vertex 3.21496 213.934 -2.7
    endloop
  endfacet
  facet normal 0.562084 -0.82708 0
    outer loop
      vertex 3.21496 213.934 -4.44089e-16
      vertex 3.21496 213.934 -2.7
      vertex 3.52671 214.146 -2.7
    endloop
  endfacet
  facet normal 0.562084 -0.82708 0
    outer loop
      vertex 3.52671 214.146 -4.44089e-16
      vertex 3.21496 213.934 -4.44089e-16
      vertex 3.52671 214.146 -2.7
    endloop
  endfacet
  facet normal 0.612908 -0.790154 0
    outer loop
      vertex 3.52671 214.146 -4.44089e-16
      vertex 3.52671 214.146 -2.7
      vertex 3.82454 214.377 -2.7
    endloop
  endfacet
  facet normal 0.612908 -0.790154 0
    outer loop
      vertex 3.82454 214.377 -4.44089e-16
      vertex 3.52671 214.146 -4.44089e-16
      vertex 3.82454 214.377 -2.7
    endloop
  endfacet
  facet normal 0.66131 -0.750112 0
    outer loop
      vertex 3.82454 214.377 -4.44089e-16
      vertex 3.82454 214.377 -2.7
      vertex 4.10728 214.626 -2.7
    endloop
  endfacet
  facet normal 0.66131 -0.750112 0
    outer loop
      vertex 4.10728 214.626 -4.44089e-16
      vertex 3.82454 214.377 -4.44089e-16
      vertex 4.10728 214.626 -2.7
    endloop
  endfacet
  facet normal 0.707107 -0.707107 0
    outer loop
      vertex 4.10728 214.626 -4.44089e-16
      vertex 4.10728 214.626 -2.7
      vertex 4.37381 214.893 -2.7
    endloop
  endfacet
  facet normal 0.707107 -0.707107 0
    outer loop
      vertex 4.37381 214.893 -4.44089e-16
      vertex 4.10728 214.626 -4.44089e-16
      vertex 4.37381 214.893 -2.7
    endloop
  endfacet
  facet normal 0.750112 -0.66131 0
    outer loop
      vertex 4.37381 214.893 -4.44089e-16
      vertex 4.37381 214.893 -2.7
      vertex 4.62308 215.175 -2.7
    endloop
  endfacet
  facet normal 0.750112 -0.66131 0
    outer loop
      vertex 4.62308 215.175 -4.44089e-16
      vertex 4.37381 214.893 -4.44089e-16
      vertex 4.62308 215.175 -2.7
    endloop
  endfacet
  facet normal 0.790154 -0.612908 0
    outer loop
      vertex 4.62308 215.175 -4.44089e-16
      vertex 4.62308 215.175 -2.7
      vertex 4.8541 215.473 -2.7
    endloop
  endfacet
  facet normal 0.790154 -0.612908 0
    outer loop
      vertex 4.8541 215.473 -4.44089e-16
      vertex 4.62308 215.175 -4.44089e-16
      vertex 4.8541 215.473 -2.7
    endloop
  endfacet
  facet normal 0.82708 -0.562084 0
    outer loop
      vertex 4.8541 215.473 -4.44089e-16
      vertex 4.8541 215.473 -2.7
      vertex 5.06597 215.785 -2.7
    endloop
  endfacet
  facet normal 0.82708 -0.562084 0
    outer loop
      vertex 5.06597 215.785 -4.44089e-16
      vertex 4.8541 215.473 -4.44089e-16
      vertex 5.06597 215.785 -2.7
    endloop
  endfacet
  facet normal 0.860743 -0.50904 0
    outer loop
      vertex 5.06597 215.785 -4.44089e-16
      vertex 5.06597 215.785 -2.7
      vertex 5.25784 216.109 -2.7
    endloop
  endfacet
  facet normal 0.860743 -0.50904 0
    outer loop
      vertex 5.25784 216.109 -4.44089e-16
      vertex 5.06597 215.785 -4.44089e-16
      vertex 5.25784 216.109 -2.7
    endloop
  endfacet
  facet normal 0.891007 -0.45399 0
    outer loop
      vertex 5.25784 216.109 -4.44089e-16
      vertex 5.25784 216.109 -2.7
      vertex 5.42896 216.445 -2.7
    endloop
  endfacet
  facet normal 0.891007 -0.45399 0
    outer loop
      vertex 5.42896 216.445 -4.44089e-16
      vertex 5.25784 216.109 -4.44089e-16
      vertex 5.42896 216.445 -2.7
    endloop
  endfacet
  facet normal 0.917754 -0.397148 0
    outer loop
      vertex 5.42896 216.445 -4.44089e-16
      vertex 5.42896 216.445 -2.7
      vertex 5.57866 216.791 -2.7
    endloop
  endfacet
  facet normal 0.917754 -0.397148 0
    outer loop
      vertex 5.57866 216.791 -4.44089e-16
      vertex 5.42896 216.445 -4.44089e-16
      vertex 5.57866 216.791 -2.7
    endloop
  endfacet
  facet normal 0.940881 -0.338738 0
    outer loop
      vertex 5.57866 216.791 -4.44089e-16
      vertex 5.57866 216.791 -2.7
      vertex 5.70634 217.146 -2.7
    endloop
  endfacet
  facet normal 0.940881 -0.338738 0
    outer loop
      vertex 5.70634 217.146 -4.44089e-16
      vertex 5.57866 216.791 -4.44089e-16
      vertex 5.70634 217.146 -2.7
    endloop
  endfacet
  facet normal 0.960294 -0.278991 0
    outer loop
      vertex 5.70634 217.146 -4.44089e-16
      vertex 5.70634 217.146 -2.7
      vertex 5.8115 217.508 -2.7
    endloop
  endfacet
  facet normal 0.960294 -0.278991 0
    outer loop
      vertex 5.8115 217.508 -4.44089e-16
      vertex 5.70634 217.146 -4.44089e-16
      vertex 5.8115 217.508 -2.7
    endloop
  endfacet
  facet normal 0.975916 -0.218145 0
    outer loop
      vertex 5.8115 217.508 -4.44089e-16
      vertex 5.8115 217.508 -2.7
      vertex 5.89372 217.876 -2.7
    endloop
  endfacet
  facet normal 0.975916 -0.218145 0
    outer loop
      vertex 5.89372 217.876 -4.44089e-16
      vertex 5.8115 217.508 -4.44089e-16
      vertex 5.89372 217.876 -2.7
    endloop
  endfacet
  facet normal 0.987689 -0.156432 0
    outer loop
      vertex 5.89372 217.876 -4.44089e-16
      vertex 5.89372 217.876 -2.7
      vertex 5.95269 218.248 -2.7
    endloop
  endfacet
  facet normal 0.987689 -0.156432 0
    outer loop
      vertex 5.95269 218.248 -4.44089e-16
      vertex 5.89372 217.876 -4.44089e-16
      vertex 5.95269 218.248 -2.7
    endloop
  endfacet
  facet normal 0.995562 -0.094108 0
    outer loop
      vertex 5.95269 218.248 -4.44089e-16
      vertex 5.95269 218.248 -2.7
      vertex 5.98816 218.623 -2.7
    endloop
  endfacet
  facet normal 0.995562 -0.094108 0
    outer loop
      vertex 5.98816 218.623 -4.44089e-16
      vertex 5.95269 218.248 -4.44089e-16
      vertex 5.98816 218.623 -2.7
    endloop
  endfacet
  facet normal -2.22045e-16 -1 0
    outer loop
      vertex 113 1.33227e-15 -4.44089e-16
      vertex 113 1.33227e-15 -2.7
      vertex 119 0 -2.7
    endloop
  endfacet
  facet normal -2.22045e-16 -1 0
    outer loop
      vertex 119 0 -4.44089e-16
      vertex 113 1.33227e-15 -4.44089e-16
      vertex 119 0 -2.7
    endloop
  endfacet
  facet normal 0 0 -1
    outer loop
      vertex 113 1.33227e-15 -2.7
      vertex 113.012 0.376743 -2.7
      vertex 119 0 -2.7
    endloop
  endfacet
  facet normal 0 0 -1
    outer loop
      vertex 119 0 -2.7
      vertex 113.012 0.376743 -2.7
      vertex 113.047 0.751999 -2.7
    endloop
  endfacet
  facet normal 0 0 -1
    outer loop
      vertex 119 0 -2.7
      vertex 113.047 0.751999 -2.7
      vertex 113.106 1.12429 -2.7
    endloop
  endfacet
  facet normal 0 0 -1
    outer loop
      vertex 119 0 -2.7
      vertex 113.106 1.12429 -2.7
      vertex 113.189 1.49214 -2.7
    endloop
  endfacet
  facet normal 0 0 -1
    outer loop
      vertex 119 0 -2.7
      vertex 113.189 1.49214 -2.7
      vertex 113.294 1.8541 -2.7
    endloop
  endfacet
  facet normal 0 0 -1
    outer loop
      vertex 119 0 -2.7
      vertex 113.294 1.8541 -2.7
      vertex 113.421 2.20875 -2.7
    endloop
  endfacet
  facet normal 0 0 -1
    outer loop
      vertex 119 0 -2.7
      vertex 113.421 2.20875 -2.7
      vertex 113.571 2.55468 -2.7
    endloop
  endfacet
  facet normal 0 0 -1
    outer loop
      vertex 119 0 -2.7
      vertex 113.571 2.55468 -2.7
      vertex 113.742 2.89052 -2.7
    endloop
  endfacet
  facet normal 0 0 -1
    outer loop
      vertex 119 0 -2.7
      vertex 113.742 2.89052 -2.7
      vertex 113.934 3.21496 -2.7
    endloop
  endfacet
  facet normal 0 0 -1
    outer loop
      vertex 119 0 -2.7
      vertex 113.934 3.21496 -2.7
      vertex 114.146 3.52671 -2.7
    endloop
  endfacet
  facet normal 0 0 -1
    outer loop
      vertex 119 0 -2.7
      vertex 114.146 3.52671 -2.7
      vertex 114.377 3.82454 -2.7
    endloop
  endfacet
  facet normal 0 0 -1
    outer loop
      vertex 119 0 -2.7
      vertex 114.377 3.82454 -2.7
      vertex 114.626 4.10728 -2.7
    endloop
  endfacet
  facet normal 0 0 -1
    outer loop
      vertex 119 0 -2.7
      vertex 114.626 4.10728 -2.7
      vertex 114.893 4.37381 -2.7
    endloop
  endfacet
  facet normal 0 0 -1
    outer loop
      vertex 119 0 -2.7
      vertex 114.893 4.37381 -2.7
      vertex 115.175 4.62308 -2.7
    endloop
  endfacet
  facet normal 0 0 -1
    outer loop
      vertex 119 0 -2.7
      vertex 115.175 4.62308 -2.7
      vertex 115.473 4.8541 -2.7
    endloop
  endfacet
  facet normal 0 0 -1
    outer loop
      vertex 119 0 -2.7
      vertex 115.473 4.8541 -2.7
      vertex 115.785 5.06597 -2.7
    endloop
  endfacet
  facet normal 0 0 -1
    outer loop
      vertex 119 0 -2.7
      vertex 115.785 5.06597 -2.7
      vertex 116.109 5.25784 -2.7
    endloop
  endfacet
  facet normal 0 0 -1
    outer loop
      vertex 119 0 -2.7
      vertex 116.109 5.25784 -2.7
      vertex 116.445 5.42896 -2.7
    endloop
  endfacet
  facet normal 0 0 -1
    outer loop
      vertex 119 0 -2.7
      vertex 116.445 5.42896 -2.7
      vertex 116.791 5.57866 -2.7
    endloop
  endfacet
  facet normal 0 0 -1
    outer loop
      vertex 119 0 -2.7
      vertex 116.791 5.57866 -2.7
      vertex 117.146 5.70634 -2.7
    endloop
  endfacet
  facet normal 0 0 -1
    outer loop
      vertex 119 0 -2.7
      vertex 117.146 5.70634 -2.7
      vertex 117.508 5.8115 -2.7
    endloop
  endfacet
  facet normal 0 0 -1
    outer loop
      vertex 119 0 -2.7
      vertex 117.508 5.8115 -2.7
      vertex 117.876 5.89372 -2.7
    endloop
  endfacet
  facet normal 0 0 -1
    outer loop
      vertex 119 0 -2.7
      vertex 117.876 5.89372 -2.7
      vertex 118.248 5.95269 -2.7
    endloop
  endfacet
  facet normal 0 0 -1
    outer loop
      vertex 119 0 -2.7
      vertex 118.248 5.95269 -2.7
      vertex 118.623 5.98816 -2.7
    endloop
  endfacet
  facet normal 0 0 -1
    outer loop
      vertex 119 0 -2.7
      vertex 118.623 5.98816 -2.7
      vertex 119 6 -2.7
    endloop
  endfacet
  facet normal -0.999507 0.0314118 0
    outer loop
      vertex 113 1.33227e-15 -2.7
      vertex 113 1.33227e-15 -4.44089e-16
      vertex 113.012 0.376743 -2.7
    endloop
  endfacet
  facet normal -0.999507 0.0314118 0
    outer loop
      vertex 113.012 0.376743 -2.7
      vertex 113 1.33227e-15 -4.44089e-16
      vertex 113.012 0.376743 -4.44089e-16
    endloop
  endfacet
  facet normal 0 0 1
    outer loop
      vertex 113.012 0.376743 -4.44089e-16
      vertex 113 1.33227e-15 -4.44089e-16
      vertex 119 0 -4.44089e-16
    endloop
  endfacet
  facet normal 0 0 1
    outer loop
      vertex 118.623 5.98816 -4.44089e-16
      vertex 113.012 0.376743 -4.44089e-16
      vertex 119 6 -4.44089e-16
    endloop
  endfacet
  facet normal 0 0 1
    outer loop
      vertex 119 6 -4.44089e-16
      vertex 113.012 0.376743 -4.44089e-16
      vertex 119 0 -4.44089e-16
    endloop
  endfacet
  facet normal 0 0 1
    outer loop
      vertex 118.248 5.95269 -4.44089e-16
      vertex 113.012 0.376743 -4.44089e-16
      vertex 118.623 5.98816 -4.44089e-16
    endloop
  endfacet
  facet normal 0 0 1
    outer loop
      vertex 117.876 5.89372 -4.44089e-16
      vertex 113.012 0.376743 -4.44089e-16
      vertex 118.248 5.95269 -4.44089e-16
    endloop
  endfacet
  facet normal 0 0 1
    outer loop
      vertex 117.508 5.8115 -4.44089e-16
      vertex 113.012 0.376743 -4.44089e-16
      vertex 117.876 5.89372 -4.44089e-16
    endloop
  endfacet
  facet normal 0 0 1
    outer loop
      vertex 117.146 5.70634 -4.44089e-16
      vertex 113.012 0.376743 -4.44089e-16
      vertex 117.508 5.8115 -4.44089e-16
    endloop
  endfacet
  facet normal 0 0 1
    outer loop
      vertex 116.791 5.57866 -4.44089e-16
      vertex 113.012 0.376743 -4.44089e-16
      vertex 117.146 5.70634 -4.44089e-16
    endloop
  endfacet
  facet normal 0 0 1
    outer loop
      vertex 116.445 5.42896 -4.44089e-16
      vertex 113.012 0.376743 -4.44089e-16
      vertex 116.791 5.57866 -4.44089e-16
    endloop
  endfacet
  facet normal 0 0 1
    outer loop
      vertex 116.109 5.25784 -4.44089e-16
      vertex 113.012 0.376743 -4.44089e-16
      vertex 116.445 5.42896 -4.44089e-16
    endloop
  endfacet
  facet normal 0 0 1
    outer loop
      vertex 115.785 5.06597 -4.44089e-16
      vertex 113.012 0.376743 -4.44089e-16
      vertex 116.109 5.25784 -4.44089e-16
    endloop
  endfacet
  facet normal 0 0 1
    outer loop
      vertex 115.473 4.8541 -4.44089e-16
      vertex 113.012 0.376743 -4.44089e-16
      vertex 115.785 5.06597 -4.44089e-16
    endloop
  endfacet
  facet normal 0 0 1
    outer loop
      vertex 115.175 4.62308 -4.44089e-16
      vertex 113.012 0.376743 -4.44089e-16
      vertex 115.473 4.8541 -4.44089e-16
    endloop
  endfacet
  facet normal 0 0 1
    outer loop
      vertex 114.893 4.37381 -4.44089e-16
      vertex 113.012 0.376743 -4.44089e-16
      vertex 115.175 4.62308 -4.44089e-16
    endloop
  endfacet
  facet normal 0 0 1
    outer loop
      vertex 114.626 4.10728 -4.44089e-16
      vertex 113.012 0.376743 -4.44089e-16
      vertex 114.893 4.37381 -4.44089e-16
    endloop
  endfacet
  facet normal 0 0 1
    outer loop
      vertex 114.377 3.82454 -4.44089e-16
      vertex 113.012 0.376743 -4.44089e-16
      vertex 114.626 4.10728 -4.44089e-16
    endloop
  endfacet
  facet normal 0 0 1
    outer loop
      vertex 114.146 3.52671 -4.44089e-16
      vertex 113.012 0.376743 -4.44089e-16
      vertex 114.377 3.82454 -4.44089e-16
    endloop
  endfacet
  facet normal 0 0 1
    outer loop
      vertex 113.934 3.21496 -4.44089e-16
      vertex 113.012 0.376743 -4.44089e-16
      vertex 114.146 3.52671 -4.44089e-16
    endloop
  endfacet
  facet normal 0 0 1
    outer loop
      vertex 113.742 2.89052 -4.44089e-16
      vertex 113.012 0.376743 -4.44089e-16
      vertex 113.934 3.21496 -4.44089e-16
    endloop
  endfacet
  facet normal 0 0 1
    outer loop
      vertex 113.571 2.55468 -4.44089e-16
      vertex 113.012 0.376743 -4.44089e-16
      vertex 113.742 2.89052 -4.44089e-16
    endloop
  endfacet
  facet normal 0 0 1
    outer loop
      vertex 113.421 2.20875 -4.44089e-16
      vertex 113.012 0.376743 -4.44089e-16
      vertex 113.571 2.55468 -4.44089e-16
    endloop
  endfacet
  facet normal 0 0 1
    outer loop
      vertex 113.294 1.8541 -4.44089e-16
      vertex 113.012 0.376743 -4.44089e-16
      vertex 113.421 2.20875 -4.44089e-16
    endloop
  endfacet
  facet normal 0 0 1
    outer loop
      vertex 113.189 1.49214 -4.44089e-16
      vertex 113.012 0.376743 -4.44089e-16
      vertex 113.294 1.8541 -4.44089e-16
    endloop
  endfacet
  facet normal 0 0 1
    outer loop
      vertex 113.106 1.12429 -4.44089e-16
      vertex 113.012 0.376743 -4.44089e-16
      vertex 113.189 1.49214 -4.44089e-16
    endloop
  endfacet
  facet normal 0 0 1
    outer loop
      vertex 113.047 0.751999 -4.44089e-16
      vertex 113.012 0.376743 -4.44089e-16
      vertex 113.106 1.12429 -4.44089e-16
    endloop
  endfacet
  facet normal 1 -2.22045e-16 0
    outer loop
      vertex 119 0 -4.44089e-16
      vertex 119 0 -2.7
      vertex 119 6 -2.7
    endloop
  endfacet
  facet normal 1 -2.22045e-16 0
    outer loop
      vertex 119 6 -4.44089e-16
      vertex 119 0 -4.44089e-16
      vertex 119 6 -2.7
    endloop
  endfacet
  facet normal -0.0314118 0.999507 0
    outer loop
      vertex 118.623 5.98816 -2.7
      vertex 118.623 5.98816 -4.44089e-16
      vertex 119 6 -2.7
    endloop
  endfacet
  facet normal -0.0314118 0.999507 0
    outer loop
      vertex 119 6 -2.7
      vertex 118.623 5.98816 -4.44089e-16
      vertex 119 6 -4.44089e-16
    endloop
  endfacet
  facet normal -0.094108 0.995562 0
    outer loop
      vertex 118.248 5.95269 -2.7
      vertex 118.248 5.95269 -4.44089e-16
      vertex 118.623 5.98816 -2.7
    endloop
  endfacet
  facet normal -0.094108 0.995562 0
    outer loop
      vertex 118.623 5.98816 -2.7
      vertex 118.248 5.95269 -4.44089e-16
      vertex 118.623 5.98816 -4.44089e-16
    endloop
  endfacet
  facet normal -0.156432 0.987689 0
    outer loop
      vertex 117.876 5.89372 -2.7
      vertex 117.876 5.89372 -4.44089e-16
      vertex 118.248 5.95269 -2.7
    endloop
  endfacet
  facet normal -0.156432 0.987689 0
    outer loop
      vertex 118.248 5.95269 -2.7
      vertex 117.876 5.89372 -4.44089e-16
      vertex 118.248 5.95269 -4.44089e-16
    endloop
  endfacet
  facet normal -0.218145 0.975916 0
    outer loop
      vertex 117.508 5.8115 -2.7
      vertex 117.508 5.8115 -4.44089e-16
      vertex 117.876 5.89372 -2.7
    endloop
  endfacet
  facet normal -0.218145 0.975916 0
    outer loop
      vertex 117.876 5.89372 -2.7
      vertex 117.508 5.8115 -4.44089e-16
      vertex 117.876 5.89372 -4.44089e-16
    endloop
  endfacet
  facet normal -0.278991 0.960294 0
    outer loop
      vertex 117.146 5.70634 -2.7
      vertex 117.146 5.70634 -4.44089e-16
      vertex 117.508 5.8115 -2.7
    endloop
  endfacet
  facet normal -0.278991 0.960294 0
    outer loop
      vertex 117.508 5.8115 -2.7
      vertex 117.146 5.70634 -4.44089e-16
      vertex 117.508 5.8115 -4.44089e-16
    endloop
  endfacet
  facet normal -0.338738 0.940881 0
    outer loop
      vertex 116.791 5.57866 -2.7
      vertex 116.791 5.57866 -4.44089e-16
      vertex 117.146 5.70634 -2.7
    endloop
  endfacet
  facet normal -0.338738 0.940881 0
    outer loop
      vertex 117.146 5.70634 -2.7
      vertex 116.791 5.57866 -4.44089e-16
      vertex 117.146 5.70634 -4.44089e-16
    endloop
  endfacet
  facet normal -0.397148 0.917754 0
    outer loop
      vertex 116.445 5.42896 -2.7
      vertex 116.445 5.42896 -4.44089e-16
      vertex 116.791 5.57866 -2.7
    endloop
  endfacet
  facet normal -0.397148 0.917754 0
    outer loop
      vertex 116.791 5.57866 -2.7
      vertex 116.445 5.42896 -4.44089e-16
      vertex 116.791 5.57866 -4.44089e-16
    endloop
  endfacet
  facet normal -0.45399 0.891007 0
    outer loop
      vertex 116.109 5.25784 -2.7
      vertex 116.109 5.25784 -4.44089e-16
      vertex 116.445 5.42896 -2.7
    endloop
  endfacet
  facet normal -0.45399 0.891007 0
    outer loop
      vertex 116.445 5.42896 -2.7
      vertex 116.109 5.25784 -4.44089e-16
      vertex 116.445 5.42896 -4.44089e-16
    endloop
  endfacet
  facet normal -0.50904 0.860743 0
    outer loop
      vertex 115.785 5.06597 -2.7
      vertex 115.785 5.06597 -4.44089e-16
      vertex 116.109 5.25784 -2.7
    endloop
  endfacet
  facet normal -0.50904 0.860743 0
    outer loop
      vertex 116.109 5.25784 -2.7
      vertex 115.785 5.06597 -4.44089e-16
      vertex 116.109 5.25784 -4.44089e-16
    endloop
  endfacet
  facet normal -0.562084 0.82708 0
    outer loop
      vertex 115.473 4.8541 -2.7
      vertex 115.473 4.8541 -4.44089e-16
      vertex 115.785 5.06597 -2.7
    endloop
  endfacet
  facet normal -0.562084 0.82708 0
    outer loop
      vertex 115.785 5.06597 -2.7
      vertex 115.473 4.8541 -4.44089e-16
      vertex 115.785 5.06597 -4.44089e-16
    endloop
  endfacet
  facet normal -0.612908 0.790154 0
    outer loop
      vertex 115.175 4.62308 -2.7
      vertex 115.175 4.62308 -4.44089e-16
      vertex 115.473 4.8541 -2.7
    endloop
  endfacet
  facet normal -0.612908 0.790154 0
    outer loop
      vertex 115.473 4.8541 -2.7
      vertex 115.175 4.62308 -4.44089e-16
      vertex 115.473 4.8541 -4.44089e-16
    endloop
  endfacet
  facet normal -0.66131 0.750112 0
    outer loop
      vertex 114.893 4.37381 -2.7
      vertex 114.893 4.37381 -4.44089e-16
      vertex 115.175 4.62308 -2.7
    endloop
  endfacet
  facet normal -0.66131 0.750112 0
    outer loop
      vertex 115.175 4.62308 -2.7
      vertex 114.893 4.37381 -4.44089e-16
      vertex 115.175 4.62308 -4.44089e-16
    endloop
  endfacet
  facet normal -0.707107 0.707107 0
    outer loop
      vertex 114.626 4.10728 -2.7
      vertex 114.626 4.10728 -4.44089e-16
      vertex 114.893 4.37381 -2.7
    endloop
  endfacet
  facet normal -0.707107 0.707107 0
    outer loop
      vertex 114.893 4.37381 -2.7
      vertex 114.626 4.10728 -4.44089e-16
      vertex 114.893 4.37381 -4.44089e-16
    endloop
  endfacet
  facet normal -0.750112 0.66131 0
    outer loop
      vertex 114.377 3.82454 -2.7
      vertex 114.377 3.82454 -4.44089e-16
      vertex 114.626 4.10728 -2.7
    endloop
  endfacet
  facet normal -0.750112 0.66131 0
    outer loop
      vertex 114.626 4.10728 -2.7
      vertex 114.377 3.82454 -4.44089e-16
      vertex 114.626 4.10728 -4.44089e-16
    endloop
  endfacet
  facet normal -0.790154 0.612908 0
    outer loop
      vertex 114.146 3.52671 -2.7
      vertex 114.146 3.52671 -4.44089e-16
      vertex 114.377 3.82454 -2.7
    endloop
  endfacet
  facet normal -0.790154 0.612908 0
    outer loop
      vertex 114.377 3.82454 -2.7
      vertex 114.146 3.52671 -4.44089e-16
      vertex 114.377 3.82454 -4.44089e-16
    endloop
  endfacet
  facet normal -0.82708 0.562084 0
    outer loop
      vertex 113.934 3.21496 -2.7
      vertex 113.934 3.21496 -4.44089e-16
      vertex 114.146 3.52671 -2.7
    endloop
  endfacet
  facet normal -0.82708 0.562084 0
    outer loop
      vertex 114.146 3.52671 -2.7
      vertex 113.934 3.21496 -4.44089e-16
      vertex 114.146 3.52671 -4.44089e-16
    endloop
  endfacet
  facet normal -0.860743 0.50904 0
    outer loop
      vertex 113.742 2.89052 -2.7
      vertex 113.742 2.89052 -4.44089e-16
      vertex 113.934 3.21496 -2.7
    endloop
  endfacet
  facet normal -0.860743 0.50904 0
    outer loop
      vertex 113.934 3.21496 -2.7
      vertex 113.742 2.89052 -4.44089e-16
      vertex 113.934 3.21496 -4.44089e-16
    endloop
  endfacet
  facet normal -0.891007 0.45399 0
    outer loop
      vertex 113.571 2.55468 -2.7
      vertex 113.571 2.55468 -4.44089e-16
      vertex 113.742 2.89052 -2.7
    endloop
  endfacet
  facet normal -0.891007 0.45399 0
    outer loop
      vertex 113.742 2.89052 -2.7
      vertex 113.571 2.55468 -4.44089e-16
      vertex 113.742 2.89052 -4.44089e-16
    endloop
  endfacet
  facet normal -0.917754 0.397148 0
    outer loop
      vertex 113.421 2.20875 -2.7
      vertex 113.421 2.20875 -4.44089e-16
      vertex 113.571 2.55468 -2.7
    endloop
  endfacet
  facet normal -0.917754 0.397148 0
    outer loop
      vertex 113.571 2.55468 -2.7
      vertex 113.421 2.20875 -4.44089e-16
      vertex 113.571 2.55468 -4.44089e-16
    endloop
  endfacet
  facet normal -0.940881 0.338738 0
    outer loop
      vertex 113.294 1.8541 -2.7
      vertex 113.294 1.8541 -4.44089e-16
      vertex 113.421 2.20875 -2.7
    endloop
  endfacet
  facet normal -0.940881 0.338738 0
    outer loop
      vertex 113.421 2.20875 -2.7
      vertex 113.294 1.8541 -4.44089e-16
      vertex 113.421 2.20875 -4.44089e-16
    endloop
  endfacet
  facet normal -0.960294 0.278991 0
    outer loop
      vertex 113.189 1.49214 -2.7
      vertex 113.189 1.49214 -4.44089e-16
      vertex 113.294 1.8541 -2.7
    endloop
  endfacet
  facet normal -0.960294 0.278991 0
    outer loop
      vertex 113.294 1.8541 -2.7
      vertex 113.189 1.49214 -4.44089e-16
      vertex 113.294 1.8541 -4.44089e-16
    endloop
  endfacet
  facet normal -0.975916 0.218145 0
    outer loop
      vertex 113.106 1.12429 -2.7
      vertex 113.106 1.12429 -4.44089e-16
      vertex 113.189 1.49214 -2.7
    endloop
  endfacet
  facet normal -0.975916 0.218145 0
    outer loop
      vertex 113.189 1.49214 -2.7
      vertex 113.106 1.12429 -4.44089e-16
      vertex 113.189 1.49214 -4.44089e-16
    endloop
  endfacet
  facet normal -0.987689 0.156432 0
    outer loop
      vertex 113.047 0.751999 -2.7
      vertex 113.047 0.751999 -4.44089e-16
      vertex 113.106 1.12429 -2.7
    endloop
  endfacet
  facet normal -0.987689 0.156432 0
    outer loop
      vertex 113.106 1.12429 -2.7
      vertex 113.047 0.751999 -4.44089e-16
      vertex 113.106 1.12429 -4.44089e-16
    endloop
  endfacet
  facet normal -0.995562 0.094108 0
    outer loop
      vertex 113.012 0.376743 -2.7
      vertex 113.012 0.376743 -4.44089e-16
      vertex 113.047 0.751999 -2.7
    endloop
  endfacet
  facet normal -0.995562 0.094108 0
    outer loop
      vertex 113.047 0.751999 -2.7
      vertex 113.012 0.376743 -4.44089e-16
      vertex 113.047 0.751999 -4.44089e-16
    endloop
  endfacet
endsolid OpenSCAD_Model
