solid OpenSCAD_Model
  facet normal -1 0 0
    outer loop
      vertex 0 0 -3.5
      vertex 0 0 40
      vertex 0 5 -3.5
    endloop
  endfacet
  facet normal -1 0 0
    outer loop
      vertex 0 5 0
      vertex 0 0 40
      vertex 0 219 40
    endloop
  endfacet
  facet normal -1 0 0
    outer loop
      vertex 0 5 -3.5
      vertex 0 0 40
      vertex 0 5 0
    endloop
  endfacet
  facet normal -1 0 0
    outer loop
      vertex 0 5 0
      vertex 0 219 40
      vertex 0 219 0
    endloop
  endfacet
  facet normal 0 -1 0
    outer loop
      vertex 0 0 40
      vertex 0 0 -3.5
      vertex 5 0 -3.5
    endloop
  endfacet
  facet normal 0 -1 0
    outer loop
      vertex 39 0 0
      vertex 0 0 40
      vertex 5 0 0
    endloop
  endfacet
  facet normal 0 -1 0
    outer loop
      vertex 5 0 0
      vertex 0 0 40
      vertex 5 0 -3.5
    endloop
  endfacet
  facet normal 0 -1 0
    outer loop
      vertex 39 0 40
      vertex 0 0 40
      vertex 39 0 0
    endloop
  endfacet
  facet normal 0 0 -1
    outer loop
      vertex 0 0 -3.5
      vertex 0 5 -3.5
      vertex 5 0 -3.5
    endloop
  endfacet
  facet normal 0 0 -1
    outer loop
      vertex 5 0 -3.5
      vertex 0 5 -3.5
      vertex 0.313953 4.99013 -3.5
    endloop
  endfacet
  facet normal 0 0 -1
    outer loop
      vertex 5 0 -3.5
      vertex 0.313953 4.99013 -3.5
      vertex 0.626666 4.96057 -3.5
    endloop
  endfacet
  facet normal 0 0 -1
    outer loop
      vertex 5 0 -3.5
      vertex 0.626666 4.96057 -3.5
      vertex 0.936907 4.91144 -3.5
    endloop
  endfacet
  facet normal 0 0 -1
    outer loop
      vertex 5 0 -3.5
      vertex 0.936907 4.91144 -3.5
      vertex 1.24345 4.84292 -3.5
    endloop
  endfacet
  facet normal 0 0 -1
    outer loop
      vertex 5 0 -3.5
      vertex 1.24345 4.84292 -3.5
      vertex 1.54508 4.75528 -3.5
    endloop
  endfacet
  facet normal 0 0 -1
    outer loop
      vertex 5 0 -3.5
      vertex 1.54508 4.75528 -3.5
      vertex 1.84062 4.64888 -3.5
    endloop
  endfacet
  facet normal 0 0 -1
    outer loop
      vertex 5 0 -3.5
      vertex 1.84062 4.64888 -3.5
      vertex 2.1289 4.52413 -3.5
    endloop
  endfacet
  facet normal 0 0 -1
    outer loop
      vertex 5 0 -3.5
      vertex 2.1289 4.52413 -3.5
      vertex 2.40877 4.38153 -3.5
    endloop
  endfacet
  facet normal 0 0 -1
    outer loop
      vertex 5 0 -3.5
      vertex 2.40877 4.38153 -3.5
      vertex 2.67913 4.22164 -3.5
    endloop
  endfacet
  facet normal 0 0 -1
    outer loop
      vertex 5 0 -3.5
      vertex 2.67913 4.22164 -3.5
      vertex 2.93893 4.04508 -3.5
    endloop
  endfacet
  facet normal 0 0 -1
    outer loop
      vertex 5 0 -3.5
      vertex 2.93893 4.04508 -3.5
      vertex 3.18712 3.85257 -3.5
    endloop
  endfacet
  facet normal 0 0 -1
    outer loop
      vertex 5 0 -3.5
      vertex 3.18712 3.85257 -3.5
      vertex 3.42274 3.64484 -3.5
    endloop
  endfacet
  facet normal 0 0 -1
    outer loop
      vertex 5 0 -3.5
      vertex 3.42274 3.64484 -3.5
      vertex 3.64484 3.42274 -3.5
    endloop
  endfacet
  facet normal 0 0 -1
    outer loop
      vertex 5 0 -3.5
      vertex 3.64484 3.42274 -3.5
      vertex 3.85257 3.18712 -3.5
    endloop
  endfacet
  facet normal 0 0 -1
    outer loop
      vertex 5 0 -3.5
      vertex 3.85257 3.18712 -3.5
      vertex 4.04508 2.93893 -3.5
    endloop
  endfacet
  facet normal 0 0 -1
    outer loop
      vertex 5 0 -3.5
      vertex 4.04508 2.93893 -3.5
      vertex 4.22164 2.67913 -3.5
    endloop
  endfacet
  facet normal 0 0 -1
    outer loop
      vertex 5 0 -3.5
      vertex 4.22164 2.67913 -3.5
      vertex 4.38153 2.40877 -3.5
    endloop
  endfacet
  facet normal 0 0 -1
    outer loop
      vertex 5 0 -3.5
      vertex 4.38153 2.40877 -3.5
      vertex 4.52413 2.1289 -3.5
    endloop
  endfacet
  facet normal 0 0 -1
    outer loop
      vertex 5 0 -3.5
      vertex 4.52413 2.1289 -3.5
      vertex 4.64888 1.84062 -3.5
    endloop
  endfacet
  facet normal 0 0 -1
    outer loop
      vertex 5 0 -3.5
      vertex 4.64888 1.84062 -3.5
      vertex 4.75528 1.54508 -3.5
    endloop
  endfacet
  facet normal 0 0 -1
    outer loop
      vertex 5 0 -3.5
      vertex 4.75528 1.54508 -3.5
      vertex 4.84292 1.24345 -3.5
    endloop
  endfacet
  facet normal 0 0 -1
    outer loop
      vertex 5 0 -3.5
      vertex 4.84292 1.24345 -3.5
      vertex 4.91144 0.936907 -3.5
    endloop
  endfacet
  facet normal 0 0 -1
    outer loop
      vertex 5 0 -3.5
      vertex 4.91144 0.936907 -3.5
      vertex 4.96057 0.626666 -3.5
    endloop
  endfacet
  facet normal 0 0 -1
    outer loop
      vertex 5 0 -3.5
      vertex 4.96057 0.626666 -3.5
      vertex 4.99013 0.313953 -3.5
    endloop
  endfacet
  facet normal 0.0314096 0.999507 0
    outer loop
      vertex 0 5 -3.5
      vertex 0 5 0
      vertex 0.313953 4.99013 -3.5
    endloop
  endfacet
  facet normal 0.0314096 0.999507 0
    outer loop
      vertex 0.313953 4.99013 -3.5
      vertex 0 5 0
      vertex 0.313953 4.99013 0
    endloop
  endfacet
  facet normal 0 0 -1
    outer loop
      vertex 1.24345 4.84292 0
      vertex 34.0099 0.313953 0
      vertex 34 1.11022e-15 0
    endloop
  endfacet
  facet normal 0 0 -1
    outer loop
      vertex 0 5 0
      vertex 1.11022e-15 214 0
      vertex 0.313953 4.99013 0
    endloop
  endfacet
  facet normal 0 0 -1
    outer loop
      vertex 0 5 0
      vertex 0 219 0
      vertex 1.11022e-15 214 0
    endloop
  endfacet
  facet normal 0 0 -1
    outer loop
      vertex 1.24345 4.84292 0
      vertex 34.0394 0.626666 0
      vertex 34.0099 0.313953 0
    endloop
  endfacet
  facet normal 0 0 -1
    outer loop
      vertex 0.313953 4.99013 0
      vertex 0.313953 214.01 0
      vertex 0.626666 214.039 0
    endloop
  endfacet
  facet normal 0 0 -1
    outer loop
      vertex 0.626666 214.039 0
      vertex 0.936907 214.089 0
      vertex 0.313953 4.99013 0
    endloop
  endfacet
  facet normal 0 0 -1
    outer loop
      vertex 0.936907 214.089 0
      vertex 1.24345 214.157 0
      vertex 0.313953 4.99013 0
    endloop
  endfacet
  facet normal 0 0 -1
    outer loop
      vertex 1.24345 214.157 0
      vertex 1.54509 214.245 0
      vertex 0.313953 4.99013 0
    endloop
  endfacet
  facet normal 0 0 -1
    outer loop
      vertex 1.54509 214.245 0
      vertex 1.84062 214.351 0
      vertex 0.313953 4.99013 0
    endloop
  endfacet
  facet normal 0 0 -1
    outer loop
      vertex 1.84062 214.351 0
      vertex 2.1289 214.476 0
      vertex 0.313953 4.99013 0
    endloop
  endfacet
  facet normal 0 0 -1
    outer loop
      vertex 2.1289 214.476 0
      vertex 2.40877 214.618 0
      vertex 0.313953 4.99013 0
    endloop
  endfacet
  facet normal 0 0 -1
    outer loop
      vertex 2.40877 214.618 0
      vertex 2.67913 214.778 0
      vertex 0.313953 4.99013 0
    endloop
  endfacet
  facet normal 0 0 -1
    outer loop
      vertex 2.67913 214.778 0
      vertex 2.93893 214.955 0
      vertex 0.313953 4.99013 0
    endloop
  endfacet
  facet normal 0 0 -1
    outer loop
      vertex 2.93893 214.955 0
      vertex 3.18712 215.147 0
      vertex 0.313953 4.99013 0
    endloop
  endfacet
  facet normal 0 0 -1
    outer loop
      vertex 3.18712 215.147 0
      vertex 3.42274 215.355 0
      vertex 0.313953 4.99013 0
    endloop
  endfacet
  facet normal 0 0 -1
    outer loop
      vertex 3.42274 215.355 0
      vertex 3.64484 215.577 0
      vertex 0.313953 4.99013 0
    endloop
  endfacet
  facet normal 0 0 -1
    outer loop
      vertex 3.64484 215.577 0
      vertex 3.85257 215.813 0
      vertex 0.313953 4.99013 0
    endloop
  endfacet
  facet normal 0 0 -1
    outer loop
      vertex 3.85257 215.813 0
      vertex 4.04508 216.061 0
      vertex 0.313953 4.99013 0
    endloop
  endfacet
  facet normal 0 0 -1
    outer loop
      vertex 4.04508 216.061 0
      vertex 4.22164 216.321 0
      vertex 0.313953 4.99013 0
    endloop
  endfacet
  facet normal 0 0 -1
    outer loop
      vertex 4.22164 216.321 0
      vertex 4.38153 216.591 0
      vertex 0.313953 4.99013 0
    endloop
  endfacet
  facet normal 0 0 -1
    outer loop
      vertex 4.38153 216.591 0
      vertex 4.52413 216.871 0
      vertex 0.313953 4.99013 0
    endloop
  endfacet
  facet normal 0 0 -1
    outer loop
      vertex 4.52413 216.871 0
      vertex 4.64888 217.159 0
      vertex 0.313953 4.99013 0
    endloop
  endfacet
  facet normal 0 0 -1
    outer loop
      vertex 4.64888 217.159 0
      vertex 4.75528 217.455 0
      vertex 0.313953 4.99013 0
    endloop
  endfacet
  facet normal 0 0 -1
    outer loop
      vertex 4.75528 217.455 0
      vertex 4.84292 217.757 0
      vertex 0.313953 4.99013 0
    endloop
  endfacet
  facet normal 0 0 -1
    outer loop
      vertex 4.84292 217.757 0
      vertex 4.91144 218.063 0
      vertex 0.313953 4.99013 0
    endloop
  endfacet
  facet normal 0 0 -1
    outer loop
      vertex 4.91144 218.063 0
      vertex 4.96057 218.373 0
      vertex 0.313953 4.99013 0
    endloop
  endfacet
  facet normal 0 0 -1
    outer loop
      vertex 4.96057 218.373 0
      vertex 4.99013 218.686 0
      vertex 0.313953 4.99013 0
    endloop
  endfacet
  facet normal 0 0 -1
    outer loop
      vertex 4.99013 218.686 0
      vertex 5 219 0
      vertex 0.313953 4.99013 0
    endloop
  endfacet
  facet normal 0 0 -1
    outer loop
      vertex 0.313953 4.99013 0
      vertex 5 219 0
      vertex 34 219 0
    endloop
  endfacet
  facet normal 0 0 -1
    outer loop
      vertex 0.313953 4.99013 0
      vertex 34 219 0
      vertex 34.0099 218.686 0
    endloop
  endfacet
  facet normal 0 0 -1
    outer loop
      vertex 0.313953 4.99013 0
      vertex 34.0099 218.686 0
      vertex 34.0394 218.373 0
    endloop
  endfacet
  facet normal 0 0 -1
    outer loop
      vertex 34.0394 218.373 0
      vertex 34.0886 218.063 0
      vertex 0.313953 4.99013 0
    endloop
  endfacet
  facet normal 0 0 -1
    outer loop
      vertex 34.0886 218.063 0
      vertex 34.1571 217.757 0
      vertex 0.313953 4.99013 0
    endloop
  endfacet
  facet normal 0 0 -1
    outer loop
      vertex 34.1571 217.757 0
      vertex 34.2447 217.455 0
      vertex 0.313953 4.99013 0
    endloop
  endfacet
  facet normal 0 0 -1
    outer loop
      vertex 34.2447 217.455 0
      vertex 34.3511 217.159 0
      vertex 0.313953 4.99013 0
    endloop
  endfacet
  facet normal 0 0 -1
    outer loop
      vertex 34.3511 217.159 0
      vertex 34.4759 216.871 0
      vertex 0.313953 4.99013 0
    endloop
  endfacet
  facet normal 0 0 -1
    outer loop
      vertex 34.4759 216.871 0
      vertex 34.6185 216.591 0
      vertex 0.313953 4.99013 0
    endloop
  endfacet
  facet normal 0 0 -1
    outer loop
      vertex 34.6185 216.591 0
      vertex 34.7784 216.321 0
      vertex 0.313953 4.99013 0
    endloop
  endfacet
  facet normal 0 0 -1
    outer loop
      vertex 34.7784 216.321 0
      vertex 34.9549 216.061 0
      vertex 0.313953 4.99013 0
    endloop
  endfacet
  facet normal 0 0 -1
    outer loop
      vertex 34.9549 216.061 0
      vertex 35.1474 215.813 0
      vertex 0.313953 4.99013 0
    endloop
  endfacet
  facet normal 0 0 -1
    outer loop
      vertex 35.1474 215.813 0
      vertex 35.3552 215.577 0
      vertex 0.313953 4.99013 0
    endloop
  endfacet
  facet normal 0 0 -1
    outer loop
      vertex 35.3552 215.577 0
      vertex 35.5773 215.355 0
      vertex 0.313953 4.99013 0
    endloop
  endfacet
  facet normal 0 0 -1
    outer loop
      vertex 35.5773 215.355 0
      vertex 35.8129 215.147 0
      vertex 0.313953 4.99013 0
    endloop
  endfacet
  facet normal 0 0 -1
    outer loop
      vertex 35.8129 215.147 0
      vertex 36.0611 214.955 0
      vertex 0.313953 4.99013 0
    endloop
  endfacet
  facet normal 0 0 -1
    outer loop
      vertex 36.0611 214.955 0
      vertex 36.3209 214.778 0
      vertex 0.313953 4.99013 0
    endloop
  endfacet
  facet normal 0 0 -1
    outer loop
      vertex 36.3209 214.778 0
      vertex 36.5912 214.618 0
      vertex 0.313953 4.99013 0
    endloop
  endfacet
  facet normal 0 0 -1
    outer loop
      vertex 36.5912 214.618 0
      vertex 36.8711 214.476 0
      vertex 0.313953 4.99013 0
    endloop
  endfacet
  facet normal 0 0 -1
    outer loop
      vertex 36.8711 214.476 0
      vertex 37.1594 214.351 0
      vertex 0.313953 4.99013 0
    endloop
  endfacet
  facet normal 0 0 -1
    outer loop
      vertex 37.1594 214.351 0
      vertex 37.4549 214.245 0
      vertex 0.313953 4.99013 0
    endloop
  endfacet
  facet normal 0 0 -1
    outer loop
      vertex 37.4549 214.245 0
      vertex 37.7566 214.157 0
      vertex 0.313953 4.99013 0
    endloop
  endfacet
  facet normal 0 0 -1
    outer loop
      vertex 37.7566 214.157 0
      vertex 38.0631 214.089 0
      vertex 0.313953 4.99013 0
    endloop
  endfacet
  facet normal 0 0 -1
    outer loop
      vertex 38.0631 214.089 0
      vertex 38.3733 214.039 0
      vertex 0.313953 4.99013 0
    endloop
  endfacet
  facet normal 0 0 -1
    outer loop
      vertex 38.3733 214.039 0
      vertex 38.686 214.01 0
      vertex 0.313953 4.99013 0
    endloop
  endfacet
  facet normal 0 0 -1
    outer loop
      vertex 38.686 214.01 0
      vertex 39 214 0
      vertex 0.313953 4.99013 0
    endloop
  endfacet
  facet normal 0 0 -1
    outer loop
      vertex 39 214 0
      vertex 39 219 0
      vertex 39 5 0
    endloop
  endfacet
  facet normal 0 0 -1
    outer loop
      vertex 39 214 0
      vertex 39 5 0
      vertex 0.313953 4.99013 0
    endloop
  endfacet
  facet normal 0 0 -1
    outer loop
      vertex 0.313953 4.99013 0
      vertex 39 5 0
      vertex 38.686 4.99013 0
    endloop
  endfacet
  facet normal 0 0 -1
    outer loop
      vertex 0.313953 4.99013 0
      vertex 38.686 4.99013 0
      vertex 38.3733 4.96057 0
    endloop
  endfacet
  facet normal 0 0 -1
    outer loop
      vertex 0.313953 214.01 0
      vertex 0.313953 4.99013 0
      vertex 1.11022e-15 214 0
    endloop
  endfacet
  facet normal 0 0 -1
    outer loop
      vertex 38.3733 4.96057 0
      vertex 38.0631 4.91144 0
      vertex 0.313953 4.99013 0
    endloop
  endfacet
  facet normal 0 0 -1
    outer loop
      vertex 38.0631 4.91144 0
      vertex 37.7566 4.84292 0
      vertex 0.313953 4.99013 0
    endloop
  endfacet
  facet normal 0 0 -1
    outer loop
      vertex 37.7566 4.84292 0
      vertex 37.4549 4.75528 0
      vertex 0.313953 4.99013 0
    endloop
  endfacet
  facet normal 0 0 -1
    outer loop
      vertex 37.4549 4.75528 0
      vertex 37.1594 4.64888 0
      vertex 0.313953 4.99013 0
    endloop
  endfacet
  facet normal 0 0 -1
    outer loop
      vertex 37.1594 4.64888 0
      vertex 36.8711 4.52413 0
      vertex 0.313953 4.99013 0
    endloop
  endfacet
  facet normal 0 0 -1
    outer loop
      vertex 36.8711 4.52413 0
      vertex 36.5912 4.38153 0
      vertex 0.313953 4.99013 0
    endloop
  endfacet
  facet normal 0 0 -1
    outer loop
      vertex 36.5912 4.38153 0
      vertex 36.3209 4.22164 0
      vertex 0.313953 4.99013 0
    endloop
  endfacet
  facet normal 0 0 -1
    outer loop
      vertex 36.3209 4.22164 0
      vertex 36.0611 4.04508 0
      vertex 0.313953 4.99013 0
    endloop
  endfacet
  facet normal 0 0 -1
    outer loop
      vertex 36.0611 4.04508 0
      vertex 35.8129 3.85257 0
      vertex 0.313953 4.99013 0
    endloop
  endfacet
  facet normal 0 0 -1
    outer loop
      vertex 1.24345 4.84292 0
      vertex 34 1.11022e-15 0
      vertex 1.54508 4.75528 0
    endloop
  endfacet
  facet normal 0 0 -1
    outer loop
      vertex 0.626666 4.96057 0
      vertex 34.7784 2.67913 0
      vertex 34.6185 2.40877 0
    endloop
  endfacet
  facet normal 0 0 -1
    outer loop
      vertex 0.626666 4.96057 0
      vertex 34.6185 2.40877 0
      vertex 34.4759 2.1289 0
    endloop
  endfacet
  facet normal 0 0 -1
    outer loop
      vertex 0.626666 4.96057 0
      vertex 34.4759 2.1289 0
      vertex 34.3511 1.84062 0
    endloop
  endfacet
  facet normal 0 0 -1
    outer loop
      vertex 0.936907 4.91144 0
      vertex 34.2447 1.54509 0
      vertex 34.1571 1.24345 0
    endloop
  endfacet
  facet normal 0 0 -1
    outer loop
      vertex 0.936907 4.91144 0
      vertex 34.1571 1.24345 0
      vertex 34.0886 0.936907 0
    endloop
  endfacet
  facet normal 0 0 -1
    outer loop
      vertex 0.936907 4.91144 0
      vertex 34.0886 0.936907 0
      vertex 1.24345 4.84292 0
    endloop
  endfacet
  facet normal 0 0 -1
    outer loop
      vertex 34 1.11022e-15 0
      vertex 39 0 0
      vertex 5 0 0
    endloop
  endfacet
  facet normal 0 0 -1
    outer loop
      vertex 34 1.11022e-15 0
      vertex 5 0 0
      vertex 4.99013 0.313953 0
    endloop
  endfacet
  facet normal 0 0 -1
    outer loop
      vertex 34 1.11022e-15 0
      vertex 4.99013 0.313953 0
      vertex 4.96057 0.626666 0
    endloop
  endfacet
  facet normal 0 0 -1
    outer loop
      vertex 34 1.11022e-15 0
      vertex 4.96057 0.626666 0
      vertex 4.91144 0.936907 0
    endloop
  endfacet
  facet normal 0 0 -1
    outer loop
      vertex 34 1.11022e-15 0
      vertex 4.91144 0.936907 0
      vertex 4.84292 1.24345 0
    endloop
  endfacet
  facet normal 0 0 -1
    outer loop
      vertex 34 1.11022e-15 0
      vertex 4.84292 1.24345 0
      vertex 4.75528 1.54508 0
    endloop
  endfacet
  facet normal 0 0 -1
    outer loop
      vertex 34 1.11022e-15 0
      vertex 4.75528 1.54508 0
      vertex 4.64888 1.84062 0
    endloop
  endfacet
  facet normal 0 0 -1
    outer loop
      vertex 34 1.11022e-15 0
      vertex 4.64888 1.84062 0
      vertex 4.52413 2.1289 0
    endloop
  endfacet
  facet normal 0 0 -1
    outer loop
      vertex 34 1.11022e-15 0
      vertex 4.52413 2.1289 0
      vertex 4.38153 2.40877 0
    endloop
  endfacet
  facet normal 0 0 -1
    outer loop
      vertex 34 1.11022e-15 0
      vertex 4.38153 2.40877 0
      vertex 4.22164 2.67913 0
    endloop
  endfacet
  facet normal 0 0 -1
    outer loop
      vertex 34 1.11022e-15 0
      vertex 4.22164 2.67913 0
      vertex 4.04508 2.93893 0
    endloop
  endfacet
  facet normal 0 0 -1
    outer loop
      vertex 34 1.11022e-15 0
      vertex 4.04508 2.93893 0
      vertex 3.85257 3.18712 0
    endloop
  endfacet
  facet normal 0 0 -1
    outer loop
      vertex 34 1.11022e-15 0
      vertex 3.85257 3.18712 0
      vertex 3.64484 3.42274 0
    endloop
  endfacet
  facet normal 0 0 -1
    outer loop
      vertex 34 1.11022e-15 0
      vertex 3.64484 3.42274 0
      vertex 3.42274 3.64484 0
    endloop
  endfacet
  facet normal 0 0 -1
    outer loop
      vertex 34 1.11022e-15 0
      vertex 3.42274 3.64484 0
      vertex 3.18712 3.85257 0
    endloop
  endfacet
  facet normal 0 0 -1
    outer loop
      vertex 34 1.11022e-15 0
      vertex 3.18712 3.85257 0
      vertex 2.93893 4.04508 0
    endloop
  endfacet
  facet normal 0 0 -1
    outer loop
      vertex 34 1.11022e-15 0
      vertex 2.93893 4.04508 0
      vertex 2.67913 4.22164 0
    endloop
  endfacet
  facet normal 0 0 -1
    outer loop
      vertex 34 1.11022e-15 0
      vertex 2.67913 4.22164 0
      vertex 2.40877 4.38153 0
    endloop
  endfacet
  facet normal 0 0 -1
    outer loop
      vertex 34 1.11022e-15 0
      vertex 2.40877 4.38153 0
      vertex 2.1289 4.52413 0
    endloop
  endfacet
  facet normal 0 0 -1
    outer loop
      vertex 34 1.11022e-15 0
      vertex 2.1289 4.52413 0
      vertex 1.84062 4.64888 0
    endloop
  endfacet
  facet normal 0 0 -1
    outer loop
      vertex 34 1.11022e-15 0
      vertex 1.84062 4.64888 0
      vertex 1.54508 4.75528 0
    endloop
  endfacet
  facet normal 0 0 -1
    outer loop
      vertex 34.0886 0.936907 0
      vertex 34.0394 0.626666 0
      vertex 1.24345 4.84292 0
    endloop
  endfacet
  facet normal 0 0 -1
    outer loop
      vertex 0.626666 4.96057 0
      vertex 34.3511 1.84062 0
      vertex 0.936907 4.91144 0
    endloop
  endfacet
  facet normal 0 0 -1
    outer loop
      vertex 34.3511 1.84062 0
      vertex 34.2447 1.54509 0
      vertex 0.936907 4.91144 0
    endloop
  endfacet
  facet normal 0 0 -1
    outer loop
      vertex 34.9549 2.93893 0
      vertex 34.7784 2.67913 0
      vertex 0.626666 4.96057 0
    endloop
  endfacet
  facet normal 0 0 -1
    outer loop
      vertex 0.313953 4.99013 0
      vertex 35.8129 3.85257 0
      vertex 35.5773 3.64484 0
    endloop
  endfacet
  facet normal 0 0 -1
    outer loop
      vertex 0.313953 4.99013 0
      vertex 35.5773 3.64484 0
      vertex 35.3552 3.42274 0
    endloop
  endfacet
  facet normal 0 0 -1
    outer loop
      vertex 0.313953 4.99013 0
      vertex 35.3552 3.42274 0
      vertex 35.1474 3.18712 0
    endloop
  endfacet
  facet normal 0 0 -1
    outer loop
      vertex 0.313953 4.99013 0
      vertex 35.1474 3.18712 0
      vertex 34.9549 2.93893 0
    endloop
  endfacet
  facet normal 0 0 -1
    outer loop
      vertex 0.313953 4.99013 0
      vertex 34.9549 2.93893 0
      vertex 0.626666 4.96057 0
    endloop
  endfacet
  facet normal -1 -2.22045e-16 0
    outer loop
      vertex 0 219 -3.5
      vertex 1.11022e-15 214 -3.5
      vertex 0 219 0
    endloop
  endfacet
  facet normal -1 -2.22045e-16 0
    outer loop
      vertex 0 219 0
      vertex 1.11022e-15 214 -3.5
      vertex 1.11022e-15 214 0
    endloop
  endfacet
  facet normal -2.22045e-16 1 0
    outer loop
      vertex 0 219 -3.5
      vertex 0 219 0
      vertex 5 219 -3.5
    endloop
  endfacet
  facet normal -2.22045e-16 1 0
    outer loop
      vertex 5 219 -3.5
      vertex 0 219 0
      vertex 5 219 0
    endloop
  endfacet
  facet normal 0 1 0
    outer loop
      vertex 0 219 0
      vertex 0 219 40
      vertex 5 219 0
    endloop
  endfacet
  facet normal 0 1 0
    outer loop
      vertex 5 219 0
      vertex 0 219 40
      vertex 39 219 40
    endloop
  endfacet
  facet normal 0 1 0
    outer loop
      vertex 34 219 0
      vertex 39 219 40
      vertex 39 219 0
    endloop
  endfacet
  facet normal 0 1 0
    outer loop
      vertex 5 219 0
      vertex 39 219 40
      vertex 34 219 0
    endloop
  endfacet
  facet normal 0 0 1
    outer loop
      vertex 2 2 40
      vertex 0 0 40
      vertex 39 0 40
    endloop
  endfacet
  facet normal 0 0 1
    outer loop
      vertex 37 2 40
      vertex 2 2 40
      vertex 39 0 40
    endloop
  endfacet
  facet normal 0 0 1
    outer loop
      vertex 0 219 40
      vertex 0 0 40
      vertex 2 2 40
    endloop
  endfacet
  facet normal 0 0 1
    outer loop
      vertex 39 219 40
      vertex 0 219 40
      vertex 2 217 40
    endloop
  endfacet
  facet normal 0 0 1
    outer loop
      vertex 39 219 40
      vertex 37 217 40
      vertex 39 0 40
    endloop
  endfacet
  facet normal 0 0 1
    outer loop
      vertex 39 219 40
      vertex 2 217 40
      vertex 37 217 40
    endloop
  endfacet
  facet normal 0 0 1
    outer loop
      vertex 37 217 40
      vertex 37 2 40
      vertex 39 0 40
    endloop
  endfacet
  facet normal 0 0 1
    outer loop
      vertex 2 2 40
      vertex 2 217 40
      vertex 0 219 40
    endloop
  endfacet
  facet normal 1 0 0
    outer loop
      vertex 39 0 40
      vertex 39 0 0
      vertex 39 5 0
    endloop
  endfacet
  facet normal 1 0 0
    outer loop
      vertex 39 219 40
      vertex 39 0 40
      vertex 39 219 0
    endloop
  endfacet
  facet normal 1 0 0
    outer loop
      vertex 39 219 0
      vertex 39 0 40
      vertex 39 5 0
    endloop
  endfacet
  facet normal 1 -2.22045e-16 0
    outer loop
      vertex 39 0 0
      vertex 39 0 -3.5
      vertex 39 5 -3.5
    endloop
  endfacet
  facet normal 1 -2.22045e-16 0
    outer loop
      vertex 39 5 0
      vertex 39 0 0
      vertex 39 5 -3.5
    endloop
  endfacet
  facet normal -2.22045e-16 -1 0
    outer loop
      vertex 34 1.11022e-15 0
      vertex 34 1.11022e-15 -3.5
      vertex 39 0 -3.5
    endloop
  endfacet
  facet normal -2.22045e-16 -1 0
    outer loop
      vertex 39 0 0
      vertex 34 1.11022e-15 0
      vertex 39 0 -3.5
    endloop
  endfacet
  facet normal 0.999507 0.0314096 0
    outer loop
      vertex 5 0 -3.5
      vertex 4.99013 0.313953 -3.5
      vertex 4.99013 0.313953 0
    endloop
  endfacet
  facet normal 0.999507 0.0314096 0
    outer loop
      vertex 5 0 0
      vertex 5 0 -3.5
      vertex 4.99013 0.313953 0
    endloop
  endfacet
  facet normal 0.995562 0.0941081 0
    outer loop
      vertex 4.99013 0.313953 -3.5
      vertex 4.96057 0.626666 -3.5
      vertex 4.96057 0.626666 0
    endloop
  endfacet
  facet normal 0.995562 0.0941081 0
    outer loop
      vertex 4.99013 0.313953 0
      vertex 4.99013 0.313953 -3.5
      vertex 4.96057 0.626666 0
    endloop
  endfacet
  facet normal 0.987688 0.156436 0
    outer loop
      vertex 4.96057 0.626666 -3.5
      vertex 4.91144 0.936907 -3.5
      vertex 4.91144 0.936907 0
    endloop
  endfacet
  facet normal 0.987688 0.156436 0
    outer loop
      vertex 4.96057 0.626666 0
      vertex 4.96057 0.626666 -3.5
      vertex 4.91144 0.936907 0
    endloop
  endfacet
  facet normal 0.975917 0.218142 0
    outer loop
      vertex 4.91144 0.936907 -3.5
      vertex 4.84292 1.24345 -3.5
      vertex 4.84292 1.24345 0
    endloop
  endfacet
  facet normal 0.975917 0.218142 0
    outer loop
      vertex 4.91144 0.936907 0
      vertex 4.91144 0.936907 -3.5
      vertex 4.84292 1.24345 0
    endloop
  endfacet
  facet normal 0.960294 0.27899 0
    outer loop
      vertex 4.84292 1.24345 -3.5
      vertex 4.75528 1.54508 -3.5
      vertex 4.75528 1.54508 0
    endloop
  endfacet
  facet normal 0.960294 0.27899 0
    outer loop
      vertex 4.84292 1.24345 0
      vertex 4.84292 1.24345 -3.5
      vertex 4.75528 1.54508 0
    endloop
  endfacet
  facet normal 0.94088 0.33874 0
    outer loop
      vertex 4.75528 1.54508 -3.5
      vertex 4.64888 1.84062 -3.5
      vertex 4.64888 1.84062 0
    endloop
  endfacet
  facet normal 0.94088 0.33874 0
    outer loop
      vertex 4.75528 1.54508 0
      vertex 4.75528 1.54508 -3.5
      vertex 4.64888 1.84062 0
    endloop
  endfacet
  facet normal 0.917754 0.397148 0
    outer loop
      vertex 4.64888 1.84062 -3.5
      vertex 4.52413 2.1289 -3.5
      vertex 4.52413 2.1289 0
    endloop
  endfacet
  facet normal 0.917754 0.397148 0
    outer loop
      vertex 4.64888 1.84062 0
      vertex 4.64888 1.84062 -3.5
      vertex 4.52413 2.1289 0
    endloop
  endfacet
  facet normal 0.891006 0.453991 0
    outer loop
      vertex 4.52413 2.1289 -3.5
      vertex 4.38153 2.40877 -3.5
      vertex 4.38153 2.40877 0
    endloop
  endfacet
  facet normal 0.891006 0.453991 0
    outer loop
      vertex 4.52413 2.1289 0
      vertex 4.52413 2.1289 -3.5
      vertex 4.38153 2.40877 0
    endloop
  endfacet
  facet normal 0.860743 0.509039 0
    outer loop
      vertex 4.38153 2.40877 -3.5
      vertex 4.22164 2.67913 -3.5
      vertex 4.22164 2.67913 0
    endloop
  endfacet
  facet normal 0.860743 0.509039 0
    outer loop
      vertex 4.38153 2.40877 0
      vertex 4.38153 2.40877 -3.5
      vertex 4.22164 2.67913 0
    endloop
  endfacet
  facet normal 0.82708 0.562085 0
    outer loop
      vertex 4.22164 2.67913 -3.5
      vertex 4.04508 2.93893 -3.5
      vertex 4.04508 2.93893 0
    endloop
  endfacet
  facet normal 0.82708 0.562085 0
    outer loop
      vertex 4.22164 2.67913 0
      vertex 4.22164 2.67913 -3.5
      vertex 4.04508 2.93893 0
    endloop
  endfacet
  facet normal 0.790155 0.612907 0
    outer loop
      vertex 4.04508 2.93893 -3.5
      vertex 3.85257 3.18712 -3.5
      vertex 3.85257 3.18712 0
    endloop
  endfacet
  facet normal 0.790155 0.612907 0
    outer loop
      vertex 4.04508 2.93893 0
      vertex 4.04508 2.93893 -3.5
      vertex 3.85257 3.18712 0
    endloop
  endfacet
  facet normal 0.750112 0.661311 0
    outer loop
      vertex 3.85257 3.18712 -3.5
      vertex 3.64484 3.42274 -3.5
      vertex 3.64484 3.42274 0
    endloop
  endfacet
  facet normal 0.750112 0.661311 0
    outer loop
      vertex 3.85257 3.18712 0
      vertex 3.85257 3.18712 -3.5
      vertex 3.64484 3.42274 0
    endloop
  endfacet
  facet normal 0.707107 0.707107 0
    outer loop
      vertex 3.42274 3.64484 -3.5
      vertex 3.42274 3.64484 0
      vertex 3.64484 3.42274 -3.5
    endloop
  endfacet
  facet normal 0.707107 0.707107 0
    outer loop
      vertex 3.64484 3.42274 -3.5
      vertex 3.42274 3.64484 0
      vertex 3.64484 3.42274 0
    endloop
  endfacet
  facet normal 0.661311 0.750112 0
    outer loop
      vertex 3.18712 3.85257 -3.5
      vertex 3.18712 3.85257 0
      vertex 3.42274 3.64484 -3.5
    endloop
  endfacet
  facet normal 0.661311 0.750112 0
    outer loop
      vertex 3.42274 3.64484 -3.5
      vertex 3.18712 3.85257 0
      vertex 3.42274 3.64484 0
    endloop
  endfacet
  facet normal 0.612907 0.790155 0
    outer loop
      vertex 2.93893 4.04508 -3.5
      vertex 2.93893 4.04508 0
      vertex 3.18712 3.85257 -3.5
    endloop
  endfacet
  facet normal 0.612907 0.790155 0
    outer loop
      vertex 3.18712 3.85257 -3.5
      vertex 2.93893 4.04508 0
      vertex 3.18712 3.85257 0
    endloop
  endfacet
  facet normal 0.562085 0.82708 0
    outer loop
      vertex 2.67913 4.22164 -3.5
      vertex 2.67913 4.22164 0
      vertex 2.93893 4.04508 -3.5
    endloop
  endfacet
  facet normal 0.562085 0.82708 0
    outer loop
      vertex 2.93893 4.04508 -3.5
      vertex 2.67913 4.22164 0
      vertex 2.93893 4.04508 0
    endloop
  endfacet
  facet normal 0.509039 0.860743 0
    outer loop
      vertex 2.40877 4.38153 -3.5
      vertex 2.40877 4.38153 0
      vertex 2.67913 4.22164 -3.5
    endloop
  endfacet
  facet normal 0.509039 0.860743 0
    outer loop
      vertex 2.67913 4.22164 -3.5
      vertex 2.40877 4.38153 0
      vertex 2.67913 4.22164 0
    endloop
  endfacet
  facet normal 0.453991 0.891006 0
    outer loop
      vertex 2.1289 4.52413 -3.5
      vertex 2.1289 4.52413 0
      vertex 2.40877 4.38153 -3.5
    endloop
  endfacet
  facet normal 0.453991 0.891006 0
    outer loop
      vertex 2.40877 4.38153 -3.5
      vertex 2.1289 4.52413 0
      vertex 2.40877 4.38153 0
    endloop
  endfacet
  facet normal 0.397148 0.917754 0
    outer loop
      vertex 1.84062 4.64888 -3.5
      vertex 1.84062 4.64888 0
      vertex 2.1289 4.52413 -3.5
    endloop
  endfacet
  facet normal 0.397148 0.917754 0
    outer loop
      vertex 2.1289 4.52413 -3.5
      vertex 1.84062 4.64888 0
      vertex 2.1289 4.52413 0
    endloop
  endfacet
  facet normal 0.33874 0.94088 0
    outer loop
      vertex 1.54508 4.75528 -3.5
      vertex 1.54508 4.75528 0
      vertex 1.84062 4.64888 -3.5
    endloop
  endfacet
  facet normal 0.33874 0.94088 0
    outer loop
      vertex 1.84062 4.64888 -3.5
      vertex 1.54508 4.75528 0
      vertex 1.84062 4.64888 0
    endloop
  endfacet
  facet normal 0.27899 0.960294 0
    outer loop
      vertex 1.24345 4.84292 -3.5
      vertex 1.24345 4.84292 0
      vertex 1.54508 4.75528 -3.5
    endloop
  endfacet
  facet normal 0.27899 0.960294 0
    outer loop
      vertex 1.54508 4.75528 -3.5
      vertex 1.24345 4.84292 0
      vertex 1.54508 4.75528 0
    endloop
  endfacet
  facet normal 0.218142 0.975917 0
    outer loop
      vertex 0.936907 4.91144 -3.5
      vertex 0.936907 4.91144 0
      vertex 1.24345 4.84292 -3.5
    endloop
  endfacet
  facet normal 0.218142 0.975917 0
    outer loop
      vertex 1.24345 4.84292 -3.5
      vertex 0.936907 4.91144 0
      vertex 1.24345 4.84292 0
    endloop
  endfacet
  facet normal 0.156436 0.987688 0
    outer loop
      vertex 0.626666 4.96057 -3.5
      vertex 0.626666 4.96057 0
      vertex 0.936907 4.91144 -3.5
    endloop
  endfacet
  facet normal 0.156436 0.987688 0
    outer loop
      vertex 0.936907 4.91144 -3.5
      vertex 0.626666 4.96057 0
      vertex 0.936907 4.91144 0
    endloop
  endfacet
  facet normal 0.0941081 0.995562 0
    outer loop
      vertex 0.313953 4.99013 -3.5
      vertex 0.313953 4.99013 0
      vertex 0.626666 4.96057 -3.5
    endloop
  endfacet
  facet normal 0.0941081 0.995562 0
    outer loop
      vertex 0.626666 4.96057 -3.5
      vertex 0.313953 4.99013 0
      vertex 0.626666 4.96057 0
    endloop
  endfacet
  facet normal -0.999507 0.0314096 0
    outer loop
      vertex 34 1.11022e-15 -3.5
      vertex 34 1.11022e-15 0
      vertex 34.0099 0.313953 -3.5
    endloop
  endfacet
  facet normal -0.999507 0.0314096 0
    outer loop
      vertex 34.0099 0.313953 -3.5
      vertex 34 1.11022e-15 0
      vertex 34.0099 0.313953 0
    endloop
  endfacet
  facet normal -0.995562 0.0941081 0
    outer loop
      vertex 34.0099 0.313953 -3.5
      vertex 34.0099 0.313953 0
      vertex 34.0394 0.626666 -3.5
    endloop
  endfacet
  facet normal -0.995562 0.0941081 0
    outer loop
      vertex 34.0394 0.626666 -3.5
      vertex 34.0099 0.313953 0
      vertex 34.0394 0.626666 0
    endloop
  endfacet
  facet normal -0.987688 0.156436 0
    outer loop
      vertex 34.0394 0.626666 -3.5
      vertex 34.0394 0.626666 0
      vertex 34.0886 0.936907 -3.5
    endloop
  endfacet
  facet normal -0.987688 0.156436 0
    outer loop
      vertex 34.0886 0.936907 -3.5
      vertex 34.0394 0.626666 0
      vertex 34.0886 0.936907 0
    endloop
  endfacet
  facet normal -0.975917 0.218142 0
    outer loop
      vertex 34.0886 0.936907 -3.5
      vertex 34.0886 0.936907 0
      vertex 34.1571 1.24345 -3.5
    endloop
  endfacet
  facet normal -0.975917 0.218142 0
    outer loop
      vertex 34.1571 1.24345 -3.5
      vertex 34.0886 0.936907 0
      vertex 34.1571 1.24345 0
    endloop
  endfacet
  facet normal -0.960294 0.27899 0
    outer loop
      vertex 34.1571 1.24345 -3.5
      vertex 34.1571 1.24345 0
      vertex 34.2447 1.54509 -3.5
    endloop
  endfacet
  facet normal -0.960294 0.27899 0
    outer loop
      vertex 34.2447 1.54509 -3.5
      vertex 34.1571 1.24345 0
      vertex 34.2447 1.54509 0
    endloop
  endfacet
  facet normal -0.94088 0.33874 0
    outer loop
      vertex 34.2447 1.54509 -3.5
      vertex 34.2447 1.54509 0
      vertex 34.3511 1.84062 -3.5
    endloop
  endfacet
  facet normal -0.94088 0.33874 0
    outer loop
      vertex 34.3511 1.84062 -3.5
      vertex 34.2447 1.54509 0
      vertex 34.3511 1.84062 0
    endloop
  endfacet
  facet normal -0.917754 0.397148 0
    outer loop
      vertex 34.3511 1.84062 -3.5
      vertex 34.3511 1.84062 0
      vertex 34.4759 2.1289 -3.5
    endloop
  endfacet
  facet normal -0.917754 0.397148 0
    outer loop
      vertex 34.4759 2.1289 -3.5
      vertex 34.3511 1.84062 0
      vertex 34.4759 2.1289 0
    endloop
  endfacet
  facet normal -0.891006 0.453991 0
    outer loop
      vertex 34.4759 2.1289 -3.5
      vertex 34.4759 2.1289 0
      vertex 34.6185 2.40877 -3.5
    endloop
  endfacet
  facet normal -0.891006 0.453991 0
    outer loop
      vertex 34.6185 2.40877 -3.5
      vertex 34.4759 2.1289 0
      vertex 34.6185 2.40877 0
    endloop
  endfacet
  facet normal -0.860743 0.509039 0
    outer loop
      vertex 34.6185 2.40877 -3.5
      vertex 34.6185 2.40877 0
      vertex 34.7784 2.67913 -3.5
    endloop
  endfacet
  facet normal -0.860743 0.509039 0
    outer loop
      vertex 34.7784 2.67913 -3.5
      vertex 34.6185 2.40877 0
      vertex 34.7784 2.67913 0
    endloop
  endfacet
  facet normal -0.82708 0.562085 0
    outer loop
      vertex 34.7784 2.67913 -3.5
      vertex 34.7784 2.67913 0
      vertex 34.9549 2.93893 -3.5
    endloop
  endfacet
  facet normal -0.82708 0.562085 0
    outer loop
      vertex 34.9549 2.93893 -3.5
      vertex 34.7784 2.67913 0
      vertex 34.9549 2.93893 0
    endloop
  endfacet
  facet normal -0.790155 0.612907 0
    outer loop
      vertex 34.9549 2.93893 -3.5
      vertex 34.9549 2.93893 0
      vertex 35.1474 3.18712 -3.5
    endloop
  endfacet
  facet normal -0.790155 0.612907 0
    outer loop
      vertex 35.1474 3.18712 -3.5
      vertex 34.9549 2.93893 0
      vertex 35.1474 3.18712 0
    endloop
  endfacet
  facet normal -0.750112 0.661311 0
    outer loop
      vertex 35.1474 3.18712 -3.5
      vertex 35.1474 3.18712 0
      vertex 35.3552 3.42274 -3.5
    endloop
  endfacet
  facet normal -0.750112 0.661311 0
    outer loop
      vertex 35.3552 3.42274 -3.5
      vertex 35.1474 3.18712 0
      vertex 35.3552 3.42274 0
    endloop
  endfacet
  facet normal -0.707107 0.707107 0
    outer loop
      vertex 35.3552 3.42274 -3.5
      vertex 35.3552 3.42274 0
      vertex 35.5773 3.64484 -3.5
    endloop
  endfacet
  facet normal -0.707107 0.707107 0
    outer loop
      vertex 35.5773 3.64484 -3.5
      vertex 35.3552 3.42274 0
      vertex 35.5773 3.64484 0
    endloop
  endfacet
  facet normal -0.661311 0.750112 0
    outer loop
      vertex 35.5773 3.64484 -3.5
      vertex 35.5773 3.64484 0
      vertex 35.8129 3.85257 -3.5
    endloop
  endfacet
  facet normal -0.661311 0.750112 0
    outer loop
      vertex 35.8129 3.85257 -3.5
      vertex 35.5773 3.64484 0
      vertex 35.8129 3.85257 0
    endloop
  endfacet
  facet normal -0.612907 0.790155 0
    outer loop
      vertex 35.8129 3.85257 -3.5
      vertex 35.8129 3.85257 0
      vertex 36.0611 4.04508 -3.5
    endloop
  endfacet
  facet normal -0.612907 0.790155 0
    outer loop
      vertex 36.0611 4.04508 -3.5
      vertex 35.8129 3.85257 0
      vertex 36.0611 4.04508 0
    endloop
  endfacet
  facet normal -0.562085 0.82708 0
    outer loop
      vertex 36.0611 4.04508 -3.5
      vertex 36.0611 4.04508 0
      vertex 36.3209 4.22164 -3.5
    endloop
  endfacet
  facet normal -0.562085 0.82708 0
    outer loop
      vertex 36.3209 4.22164 -3.5
      vertex 36.0611 4.04508 0
      vertex 36.3209 4.22164 0
    endloop
  endfacet
  facet normal -0.509039 0.860743 0
    outer loop
      vertex 36.3209 4.22164 -3.5
      vertex 36.3209 4.22164 0
      vertex 36.5912 4.38153 -3.5
    endloop
  endfacet
  facet normal -0.509039 0.860743 0
    outer loop
      vertex 36.5912 4.38153 -3.5
      vertex 36.3209 4.22164 0
      vertex 36.5912 4.38153 0
    endloop
  endfacet
  facet normal -0.453991 0.891006 0
    outer loop
      vertex 36.5912 4.38153 -3.5
      vertex 36.5912 4.38153 0
      vertex 36.8711 4.52413 -3.5
    endloop
  endfacet
  facet normal -0.453991 0.891006 0
    outer loop
      vertex 36.8711 4.52413 -3.5
      vertex 36.5912 4.38153 0
      vertex 36.8711 4.52413 0
    endloop
  endfacet
  facet normal -0.397148 0.917754 0
    outer loop
      vertex 36.8711 4.52413 -3.5
      vertex 36.8711 4.52413 0
      vertex 37.1594 4.64888 -3.5
    endloop
  endfacet
  facet normal -0.397148 0.917754 0
    outer loop
      vertex 37.1594 4.64888 -3.5
      vertex 36.8711 4.52413 0
      vertex 37.1594 4.64888 0
    endloop
  endfacet
  facet normal -0.33874 0.94088 0
    outer loop
      vertex 37.1594 4.64888 -3.5
      vertex 37.1594 4.64888 0
      vertex 37.4549 4.75528 -3.5
    endloop
  endfacet
  facet normal -0.33874 0.94088 0
    outer loop
      vertex 37.4549 4.75528 -3.5
      vertex 37.1594 4.64888 0
      vertex 37.4549 4.75528 0
    endloop
  endfacet
  facet normal -0.27899 0.960294 0
    outer loop
      vertex 37.4549 4.75528 -3.5
      vertex 37.4549 4.75528 0
      vertex 37.7566 4.84292 -3.5
    endloop
  endfacet
  facet normal -0.27899 0.960294 0
    outer loop
      vertex 37.7566 4.84292 -3.5
      vertex 37.4549 4.75528 0
      vertex 37.7566 4.84292 0
    endloop
  endfacet
  facet normal -0.218142 0.975917 0
    outer loop
      vertex 37.7566 4.84292 -3.5
      vertex 37.7566 4.84292 0
      vertex 38.0631 4.91144 -3.5
    endloop
  endfacet
  facet normal -0.218142 0.975917 0
    outer loop
      vertex 38.0631 4.91144 -3.5
      vertex 37.7566 4.84292 0
      vertex 38.0631 4.91144 0
    endloop
  endfacet
  facet normal -0.156436 0.987688 0
    outer loop
      vertex 38.0631 4.91144 -3.5
      vertex 38.0631 4.91144 0
      vertex 38.3733 4.96057 -3.5
    endloop
  endfacet
  facet normal -0.156436 0.987688 0
    outer loop
      vertex 38.3733 4.96057 -3.5
      vertex 38.0631 4.91144 0
      vertex 38.3733 4.96057 0
    endloop
  endfacet
  facet normal -0.0941081 0.995562 0
    outer loop
      vertex 38.3733 4.96057 -3.5
      vertex 38.3733 4.96057 0
      vertex 38.686 4.99013 -3.5
    endloop
  endfacet
  facet normal -0.0941081 0.995562 0
    outer loop
      vertex 38.686 4.99013 -3.5
      vertex 38.3733 4.96057 0
      vertex 38.686 4.99013 0
    endloop
  endfacet
  facet normal -0.0314096 0.999507 0
    outer loop
      vertex 38.686 4.99013 -3.5
      vertex 38.686 4.99013 0
      vertex 39 5 -3.5
    endloop
  endfacet
  facet normal -0.0314096 0.999507 0
    outer loop
      vertex 39 5 -3.5
      vertex 38.686 4.99013 0
      vertex 39 5 0
    endloop
  endfacet
  facet normal 1.22465e-16 1 0
    outer loop
      vertex 34 219 -3.5
      vertex 34 219 0
      vertex 39 219 -3.5
    endloop
  endfacet
  facet normal 1.22465e-16 1 0
    outer loop
      vertex 39 219 -3.5
      vertex 34 219 0
      vertex 39 219 0
    endloop
  endfacet
  facet normal 1 -1.22465e-16 0
    outer loop
      vertex 39 214 0
      vertex 39 214 -3.5
      vertex 39 219 -3.5
    endloop
  endfacet
  facet normal 1 -1.22465e-16 0
    outer loop
      vertex 39 219 0
      vertex 39 214 0
      vertex 39 219 -3.5
    endloop
  endfacet
  facet normal -0.0314096 -0.999507 0
    outer loop
      vertex 38.686 214.01 0
      vertex 38.686 214.01 -3.5
      vertex 39 214 -3.5
    endloop
  endfacet
  facet normal -0.0314096 -0.999507 0
    outer loop
      vertex 39 214 0
      vertex 38.686 214.01 0
      vertex 39 214 -3.5
    endloop
  endfacet
  facet normal -0.0941081 -0.995562 0
    outer loop
      vertex 38.3733 214.039 0
      vertex 38.3733 214.039 -3.5
      vertex 38.686 214.01 -3.5
    endloop
  endfacet
  facet normal -0.0941081 -0.995562 0
    outer loop
      vertex 38.686 214.01 0
      vertex 38.3733 214.039 0
      vertex 38.686 214.01 -3.5
    endloop
  endfacet
  facet normal -0.156436 -0.987688 0
    outer loop
      vertex 38.0631 214.089 0
      vertex 38.0631 214.089 -3.5
      vertex 38.3733 214.039 -3.5
    endloop
  endfacet
  facet normal -0.156436 -0.987688 0
    outer loop
      vertex 38.3733 214.039 0
      vertex 38.0631 214.089 0
      vertex 38.3733 214.039 -3.5
    endloop
  endfacet
  facet normal -0.218142 -0.975917 0
    outer loop
      vertex 37.7566 214.157 0
      vertex 37.7566 214.157 -3.5
      vertex 38.0631 214.089 -3.5
    endloop
  endfacet
  facet normal -0.218142 -0.975917 0
    outer loop
      vertex 38.0631 214.089 0
      vertex 37.7566 214.157 0
      vertex 38.0631 214.089 -3.5
    endloop
  endfacet
  facet normal -0.27899 -0.960294 0
    outer loop
      vertex 37.4549 214.245 0
      vertex 37.4549 214.245 -3.5
      vertex 37.7566 214.157 -3.5
    endloop
  endfacet
  facet normal -0.27899 -0.960294 0
    outer loop
      vertex 37.7566 214.157 0
      vertex 37.4549 214.245 0
      vertex 37.7566 214.157 -3.5
    endloop
  endfacet
  facet normal -0.33874 -0.94088 0
    outer loop
      vertex 37.1594 214.351 0
      vertex 37.1594 214.351 -3.5
      vertex 37.4549 214.245 -3.5
    endloop
  endfacet
  facet normal -0.33874 -0.94088 0
    outer loop
      vertex 37.4549 214.245 0
      vertex 37.1594 214.351 0
      vertex 37.4549 214.245 -3.5
    endloop
  endfacet
  facet normal -0.397148 -0.917754 0
    outer loop
      vertex 36.8711 214.476 0
      vertex 36.8711 214.476 -3.5
      vertex 37.1594 214.351 -3.5
    endloop
  endfacet
  facet normal -0.397148 -0.917754 0
    outer loop
      vertex 37.1594 214.351 0
      vertex 36.8711 214.476 0
      vertex 37.1594 214.351 -3.5
    endloop
  endfacet
  facet normal -0.453991 -0.891006 0
    outer loop
      vertex 36.5912 214.618 0
      vertex 36.5912 214.618 -3.5
      vertex 36.8711 214.476 -3.5
    endloop
  endfacet
  facet normal -0.453991 -0.891006 0
    outer loop
      vertex 36.8711 214.476 0
      vertex 36.5912 214.618 0
      vertex 36.8711 214.476 -3.5
    endloop
  endfacet
  facet normal -0.509039 -0.860743 0
    outer loop
      vertex 36.3209 214.778 0
      vertex 36.3209 214.778 -3.5
      vertex 36.5912 214.618 -3.5
    endloop
  endfacet
  facet normal -0.509039 -0.860743 0
    outer loop
      vertex 36.5912 214.618 0
      vertex 36.3209 214.778 0
      vertex 36.5912 214.618 -3.5
    endloop
  endfacet
  facet normal -0.562085 -0.82708 0
    outer loop
      vertex 36.0611 214.955 0
      vertex 36.0611 214.955 -3.5
      vertex 36.3209 214.778 -3.5
    endloop
  endfacet
  facet normal -0.562085 -0.82708 0
    outer loop
      vertex 36.3209 214.778 0
      vertex 36.0611 214.955 0
      vertex 36.3209 214.778 -3.5
    endloop
  endfacet
  facet normal -0.612907 -0.790155 0
    outer loop
      vertex 35.8129 215.147 0
      vertex 35.8129 215.147 -3.5
      vertex 36.0611 214.955 -3.5
    endloop
  endfacet
  facet normal -0.612907 -0.790155 0
    outer loop
      vertex 36.0611 214.955 0
      vertex 35.8129 215.147 0
      vertex 36.0611 214.955 -3.5
    endloop
  endfacet
  facet normal -0.661311 -0.750112 0
    outer loop
      vertex 35.5773 215.355 0
      vertex 35.5773 215.355 -3.5
      vertex 35.8129 215.147 -3.5
    endloop
  endfacet
  facet normal -0.661311 -0.750112 0
    outer loop
      vertex 35.8129 215.147 0
      vertex 35.5773 215.355 0
      vertex 35.8129 215.147 -3.5
    endloop
  endfacet
  facet normal -0.707107 -0.707107 0
    outer loop
      vertex 35.3552 215.577 -3.5
      vertex 35.5773 215.355 -3.5
      vertex 35.3552 215.577 0
    endloop
  endfacet
  facet normal -0.707107 -0.707107 0
    outer loop
      vertex 35.3552 215.577 0
      vertex 35.5773 215.355 -3.5
      vertex 35.5773 215.355 0
    endloop
  endfacet
  facet normal -0.750112 -0.661311 0
    outer loop
      vertex 35.1474 215.813 -3.5
      vertex 35.3552 215.577 -3.5
      vertex 35.1474 215.813 0
    endloop
  endfacet
  facet normal -0.750112 -0.661311 0
    outer loop
      vertex 35.1474 215.813 0
      vertex 35.3552 215.577 -3.5
      vertex 35.3552 215.577 0
    endloop
  endfacet
  facet normal -0.790155 -0.612907 0
    outer loop
      vertex 34.9549 216.061 -3.5
      vertex 35.1474 215.813 -3.5
      vertex 34.9549 216.061 0
    endloop
  endfacet
  facet normal -0.790155 -0.612907 0
    outer loop
      vertex 34.9549 216.061 0
      vertex 35.1474 215.813 -3.5
      vertex 35.1474 215.813 0
    endloop
  endfacet
  facet normal -0.82708 -0.562085 0
    outer loop
      vertex 34.7784 216.321 -3.5
      vertex 34.9549 216.061 -3.5
      vertex 34.7784 216.321 0
    endloop
  endfacet
  facet normal -0.82708 -0.562085 0
    outer loop
      vertex 34.7784 216.321 0
      vertex 34.9549 216.061 -3.5
      vertex 34.9549 216.061 0
    endloop
  endfacet
  facet normal -0.860743 -0.509039 0
    outer loop
      vertex 34.6185 216.591 -3.5
      vertex 34.7784 216.321 -3.5
      vertex 34.6185 216.591 0
    endloop
  endfacet
  facet normal -0.860743 -0.509039 0
    outer loop
      vertex 34.6185 216.591 0
      vertex 34.7784 216.321 -3.5
      vertex 34.7784 216.321 0
    endloop
  endfacet
  facet normal -0.891006 -0.453991 0
    outer loop
      vertex 34.4759 216.871 -3.5
      vertex 34.6185 216.591 -3.5
      vertex 34.4759 216.871 0
    endloop
  endfacet
  facet normal -0.891006 -0.453991 0
    outer loop
      vertex 34.4759 216.871 0
      vertex 34.6185 216.591 -3.5
      vertex 34.6185 216.591 0
    endloop
  endfacet
  facet normal -0.917754 -0.397148 0
    outer loop
      vertex 34.3511 217.159 -3.5
      vertex 34.4759 216.871 -3.5
      vertex 34.3511 217.159 0
    endloop
  endfacet
  facet normal -0.917754 -0.397148 0
    outer loop
      vertex 34.3511 217.159 0
      vertex 34.4759 216.871 -3.5
      vertex 34.4759 216.871 0
    endloop
  endfacet
  facet normal -0.94088 -0.33874 0
    outer loop
      vertex 34.2447 217.455 -3.5
      vertex 34.3511 217.159 -3.5
      vertex 34.2447 217.455 0
    endloop
  endfacet
  facet normal -0.94088 -0.33874 0
    outer loop
      vertex 34.2447 217.455 0
      vertex 34.3511 217.159 -3.5
      vertex 34.3511 217.159 0
    endloop
  endfacet
  facet normal -0.960294 -0.27899 0
    outer loop
      vertex 34.1571 217.757 -3.5
      vertex 34.2447 217.455 -3.5
      vertex 34.1571 217.757 0
    endloop
  endfacet
  facet normal -0.960294 -0.27899 0
    outer loop
      vertex 34.1571 217.757 0
      vertex 34.2447 217.455 -3.5
      vertex 34.2447 217.455 0
    endloop
  endfacet
  facet normal -0.975917 -0.218142 0
    outer loop
      vertex 34.0886 218.063 -3.5
      vertex 34.1571 217.757 -3.5
      vertex 34.0886 218.063 0
    endloop
  endfacet
  facet normal -0.975917 -0.218142 0
    outer loop
      vertex 34.0886 218.063 0
      vertex 34.1571 217.757 -3.5
      vertex 34.1571 217.757 0
    endloop
  endfacet
  facet normal -0.987688 -0.156436 0
    outer loop
      vertex 34.0394 218.373 -3.5
      vertex 34.0886 218.063 -3.5
      vertex 34.0394 218.373 0
    endloop
  endfacet
  facet normal -0.987688 -0.156436 0
    outer loop
      vertex 34.0394 218.373 0
      vertex 34.0886 218.063 -3.5
      vertex 34.0886 218.063 0
    endloop
  endfacet
  facet normal -0.995562 -0.0941081 0
    outer loop
      vertex 34.0099 218.686 -3.5
      vertex 34.0394 218.373 -3.5
      vertex 34.0099 218.686 0
    endloop
  endfacet
  facet normal -0.995562 -0.0941081 0
    outer loop
      vertex 34.0099 218.686 0
      vertex 34.0394 218.373 -3.5
      vertex 34.0394 218.373 0
    endloop
  endfacet
  facet normal -0.999507 -0.0314096 0
    outer loop
      vertex 34 219 -3.5
      vertex 34.0099 218.686 -3.5
      vertex 34 219 0
    endloop
  endfacet
  facet normal -0.999507 -0.0314096 0
    outer loop
      vertex 34 219 0
      vertex 34.0099 218.686 -3.5
      vertex 34.0099 218.686 0
    endloop
  endfacet
  facet normal 0.999507 -0.0314096 0
    outer loop
      vertex 4.99013 218.686 0
      vertex 4.99013 218.686 -3.5
      vertex 5 219 -3.5
    endloop
  endfacet
  facet normal 0.999507 -0.0314096 0
    outer loop
      vertex 5 219 0
      vertex 4.99013 218.686 0
      vertex 5 219 -3.5
    endloop
  endfacet
  facet normal 0.995562 -0.0941081 0
    outer loop
      vertex 4.96057 218.373 0
      vertex 4.96057 218.373 -3.5
      vertex 4.99013 218.686 -3.5
    endloop
  endfacet
  facet normal 0.995562 -0.0941081 0
    outer loop
      vertex 4.99013 218.686 0
      vertex 4.96057 218.373 0
      vertex 4.99013 218.686 -3.5
    endloop
  endfacet
  facet normal 0.987688 -0.156436 0
    outer loop
      vertex 4.91144 218.063 0
      vertex 4.91144 218.063 -3.5
      vertex 4.96057 218.373 -3.5
    endloop
  endfacet
  facet normal 0.987688 -0.156436 0
    outer loop
      vertex 4.96057 218.373 0
      vertex 4.91144 218.063 0
      vertex 4.96057 218.373 -3.5
    endloop
  endfacet
  facet normal 0.975917 -0.218142 0
    outer loop
      vertex 4.84292 217.757 0
      vertex 4.84292 217.757 -3.5
      vertex 4.91144 218.063 -3.5
    endloop
  endfacet
  facet normal 0.975917 -0.218142 0
    outer loop
      vertex 4.91144 218.063 0
      vertex 4.84292 217.757 0
      vertex 4.91144 218.063 -3.5
    endloop
  endfacet
  facet normal 0.960294 -0.27899 0
    outer loop
      vertex 4.75528 217.455 0
      vertex 4.75528 217.455 -3.5
      vertex 4.84292 217.757 -3.5
    endloop
  endfacet
  facet normal 0.960294 -0.27899 0
    outer loop
      vertex 4.84292 217.757 0
      vertex 4.75528 217.455 0
      vertex 4.84292 217.757 -3.5
    endloop
  endfacet
  facet normal 0.94088 -0.33874 0
    outer loop
      vertex 4.64888 217.159 0
      vertex 4.64888 217.159 -3.5
      vertex 4.75528 217.455 -3.5
    endloop
  endfacet
  facet normal 0.94088 -0.33874 0
    outer loop
      vertex 4.75528 217.455 0
      vertex 4.64888 217.159 0
      vertex 4.75528 217.455 -3.5
    endloop
  endfacet
  facet normal 0.917754 -0.397148 0
    outer loop
      vertex 4.52413 216.871 0
      vertex 4.52413 216.871 -3.5
      vertex 4.64888 217.159 -3.5
    endloop
  endfacet
  facet normal 0.917754 -0.397148 0
    outer loop
      vertex 4.64888 217.159 0
      vertex 4.52413 216.871 0
      vertex 4.64888 217.159 -3.5
    endloop
  endfacet
  facet normal 0.891006 -0.453991 0
    outer loop
      vertex 4.38153 216.591 0
      vertex 4.38153 216.591 -3.5
      vertex 4.52413 216.871 -3.5
    endloop
  endfacet
  facet normal 0.891006 -0.453991 0
    outer loop
      vertex 4.52413 216.871 0
      vertex 4.38153 216.591 0
      vertex 4.52413 216.871 -3.5
    endloop
  endfacet
  facet normal 0.860743 -0.509039 0
    outer loop
      vertex 4.22164 216.321 0
      vertex 4.22164 216.321 -3.5
      vertex 4.38153 216.591 -3.5
    endloop
  endfacet
  facet normal 0.860743 -0.509039 0
    outer loop
      vertex 4.38153 216.591 0
      vertex 4.22164 216.321 0
      vertex 4.38153 216.591 -3.5
    endloop
  endfacet
  facet normal 0.82708 -0.562085 0
    outer loop
      vertex 4.04508 216.061 0
      vertex 4.04508 216.061 -3.5
      vertex 4.22164 216.321 -3.5
    endloop
  endfacet
  facet normal 0.82708 -0.562085 0
    outer loop
      vertex 4.22164 216.321 0
      vertex 4.04508 216.061 0
      vertex 4.22164 216.321 -3.5
    endloop
  endfacet
  facet normal 0.790155 -0.612907 0
    outer loop
      vertex 3.85257 215.813 0
      vertex 3.85257 215.813 -3.5
      vertex 4.04508 216.061 -3.5
    endloop
  endfacet
  facet normal 0.790155 -0.612907 0
    outer loop
      vertex 4.04508 216.061 0
      vertex 3.85257 215.813 0
      vertex 4.04508 216.061 -3.5
    endloop
  endfacet
  facet normal 0.750112 -0.661311 0
    outer loop
      vertex 3.64484 215.577 0
      vertex 3.64484 215.577 -3.5
      vertex 3.85257 215.813 -3.5
    endloop
  endfacet
  facet normal 0.750112 -0.661311 0
    outer loop
      vertex 3.85257 215.813 0
      vertex 3.64484 215.577 0
      vertex 3.85257 215.813 -3.5
    endloop
  endfacet
  facet normal 0.707107 -0.707107 0
    outer loop
      vertex 3.42274 215.355 0
      vertex 3.42274 215.355 -3.5
      vertex 3.64484 215.577 -3.5
    endloop
  endfacet
  facet normal 0.707107 -0.707107 0
    outer loop
      vertex 3.64484 215.577 0
      vertex 3.42274 215.355 0
      vertex 3.64484 215.577 -3.5
    endloop
  endfacet
  facet normal 0.661311 -0.750112 0
    outer loop
      vertex 3.18712 215.147 0
      vertex 3.18712 215.147 -3.5
      vertex 3.42274 215.355 -3.5
    endloop
  endfacet
  facet normal 0.661311 -0.750112 0
    outer loop
      vertex 3.42274 215.355 0
      vertex 3.18712 215.147 0
      vertex 3.42274 215.355 -3.5
    endloop
  endfacet
  facet normal 0.612907 -0.790155 0
    outer loop
      vertex 2.93893 214.955 0
      vertex 2.93893 214.955 -3.5
      vertex 3.18712 215.147 -3.5
    endloop
  endfacet
  facet normal 0.612907 -0.790155 0
    outer loop
      vertex 3.18712 215.147 0
      vertex 2.93893 214.955 0
      vertex 3.18712 215.147 -3.5
    endloop
  endfacet
  facet normal 0.562085 -0.82708 0
    outer loop
      vertex 2.67913 214.778 0
      vertex 2.67913 214.778 -3.5
      vertex 2.93893 214.955 -3.5
    endloop
  endfacet
  facet normal 0.562085 -0.82708 0
    outer loop
      vertex 2.93893 214.955 0
      vertex 2.67913 214.778 0
      vertex 2.93893 214.955 -3.5
    endloop
  endfacet
  facet normal 0.509039 -0.860743 0
    outer loop
      vertex 2.40877 214.618 0
      vertex 2.40877 214.618 -3.5
      vertex 2.67913 214.778 -3.5
    endloop
  endfacet
  facet normal 0.509039 -0.860743 0
    outer loop
      vertex 2.67913 214.778 0
      vertex 2.40877 214.618 0
      vertex 2.67913 214.778 -3.5
    endloop
  endfacet
  facet normal 0.453991 -0.891006 0
    outer loop
      vertex 2.1289 214.476 0
      vertex 2.1289 214.476 -3.5
      vertex 2.40877 214.618 -3.5
    endloop
  endfacet
  facet normal 0.453991 -0.891006 0
    outer loop
      vertex 2.40877 214.618 0
      vertex 2.1289 214.476 0
      vertex 2.40877 214.618 -3.5
    endloop
  endfacet
  facet normal 0.397148 -0.917754 0
    outer loop
      vertex 1.84062 214.351 0
      vertex 1.84062 214.351 -3.5
      vertex 2.1289 214.476 -3.5
    endloop
  endfacet
  facet normal 0.397148 -0.917754 0
    outer loop
      vertex 2.1289 214.476 0
      vertex 1.84062 214.351 0
      vertex 2.1289 214.476 -3.5
    endloop
  endfacet
  facet normal 0.33874 -0.94088 0
    outer loop
      vertex 1.54509 214.245 0
      vertex 1.54509 214.245 -3.5
      vertex 1.84062 214.351 -3.5
    endloop
  endfacet
  facet normal 0.33874 -0.94088 0
    outer loop
      vertex 1.84062 214.351 0
      vertex 1.54509 214.245 0
      vertex 1.84062 214.351 -3.5
    endloop
  endfacet
  facet normal 0.27899 -0.960294 0
    outer loop
      vertex 1.24345 214.157 0
      vertex 1.24345 214.157 -3.5
      vertex 1.54509 214.245 -3.5
    endloop
  endfacet
  facet normal 0.27899 -0.960294 0
    outer loop
      vertex 1.54509 214.245 0
      vertex 1.24345 214.157 0
      vertex 1.54509 214.245 -3.5
    endloop
  endfacet
  facet normal 0.218142 -0.975917 0
    outer loop
      vertex 0.936907 214.089 0
      vertex 0.936907 214.089 -3.5
      vertex 1.24345 214.157 -3.5
    endloop
  endfacet
  facet normal 0.218142 -0.975917 0
    outer loop
      vertex 1.24345 214.157 0
      vertex 0.936907 214.089 0
      vertex 1.24345 214.157 -3.5
    endloop
  endfacet
  facet normal 0.156436 -0.987688 0
    outer loop
      vertex 0.626666 214.039 0
      vertex 0.626666 214.039 -3.5
      vertex 0.936907 214.089 -3.5
    endloop
  endfacet
  facet normal 0.156436 -0.987688 0
    outer loop
      vertex 0.936907 214.089 0
      vertex 0.626666 214.039 0
      vertex 0.936907 214.089 -3.5
    endloop
  endfacet
  facet normal 0.0941081 -0.995562 0
    outer loop
      vertex 0.313953 214.01 0
      vertex 0.313953 214.01 -3.5
      vertex 0.626666 214.039 -3.5
    endloop
  endfacet
  facet normal 0.0941081 -0.995562 0
    outer loop
      vertex 0.626666 214.039 0
      vertex 0.313953 214.01 0
      vertex 0.626666 214.039 -3.5
    endloop
  endfacet
  facet normal 0.0314096 -0.999507 0
    outer loop
      vertex 1.11022e-15 214 0
      vertex 1.11022e-15 214 -3.5
      vertex 0.313953 214.01 -3.5
    endloop
  endfacet
  facet normal 0.0314096 -0.999507 0
    outer loop
      vertex 0.313953 214.01 0
      vertex 1.11022e-15 214 0
      vertex 0.313953 214.01 -3.5
    endloop
  endfacet
  facet normal 0 0 -1
    outer loop
      vertex 0 219 -3.5
      vertex 5 219 -3.5
      vertex 1.11022e-15 214 -3.5
    endloop
  endfacet
  facet normal 0 0 -1
    outer loop
      vertex 1.11022e-15 214 -3.5
      vertex 5 219 -3.5
      vertex 4.99013 218.686 -3.5
    endloop
  endfacet
  facet normal 0 0 -1
    outer loop
      vertex 1.11022e-15 214 -3.5
      vertex 4.99013 218.686 -3.5
      vertex 4.96057 218.373 -3.5
    endloop
  endfacet
  facet normal 0 0 -1
    outer loop
      vertex 1.11022e-15 214 -3.5
      vertex 4.96057 218.373 -3.5
      vertex 4.91144 218.063 -3.5
    endloop
  endfacet
  facet normal 0 0 -1
    outer loop
      vertex 1.11022e-15 214 -3.5
      vertex 4.91144 218.063 -3.5
      vertex 4.84292 217.757 -3.5
    endloop
  endfacet
  facet normal 0 0 -1
    outer loop
      vertex 1.11022e-15 214 -3.5
      vertex 4.84292 217.757 -3.5
      vertex 4.75528 217.455 -3.5
    endloop
  endfacet
  facet normal 0 0 -1
    outer loop
      vertex 1.11022e-15 214 -3.5
      vertex 4.75528 217.455 -3.5
      vertex 4.64888 217.159 -3.5
    endloop
  endfacet
  facet normal 0 0 -1
    outer loop
      vertex 1.11022e-15 214 -3.5
      vertex 4.64888 217.159 -3.5
      vertex 4.52413 216.871 -3.5
    endloop
  endfacet
  facet normal 0 0 -1
    outer loop
      vertex 1.11022e-15 214 -3.5
      vertex 4.52413 216.871 -3.5
      vertex 4.38153 216.591 -3.5
    endloop
  endfacet
  facet normal 0 0 -1
    outer loop
      vertex 1.11022e-15 214 -3.5
      vertex 4.38153 216.591 -3.5
      vertex 4.22164 216.321 -3.5
    endloop
  endfacet
  facet normal 0 0 -1
    outer loop
      vertex 1.11022e-15 214 -3.5
      vertex 4.22164 216.321 -3.5
      vertex 4.04508 216.061 -3.5
    endloop
  endfacet
  facet normal 0 0 -1
    outer loop
      vertex 1.11022e-15 214 -3.5
      vertex 4.04508 216.061 -3.5
      vertex 3.85257 215.813 -3.5
    endloop
  endfacet
  facet normal 0 0 -1
    outer loop
      vertex 1.11022e-15 214 -3.5
      vertex 3.85257 215.813 -3.5
      vertex 3.64484 215.577 -3.5
    endloop
  endfacet
  facet normal 0 0 -1
    outer loop
      vertex 1.11022e-15 214 -3.5
      vertex 3.64484 215.577 -3.5
      vertex 3.42274 215.355 -3.5
    endloop
  endfacet
  facet normal 0 0 -1
    outer loop
      vertex 1.11022e-15 214 -3.5
      vertex 3.42274 215.355 -3.5
      vertex 3.18712 215.147 -3.5
    endloop
  endfacet
  facet normal 0 0 -1
    outer loop
      vertex 1.11022e-15 214 -3.5
      vertex 3.18712 215.147 -3.5
      vertex 2.93893 214.955 -3.5
    endloop
  endfacet
  facet normal 0 0 -1
    outer loop
      vertex 1.11022e-15 214 -3.5
      vertex 2.93893 214.955 -3.5
      vertex 2.67913 214.778 -3.5
    endloop
  endfacet
  facet normal 0 0 -1
    outer loop
      vertex 1.11022e-15 214 -3.5
      vertex 2.67913 214.778 -3.5
      vertex 2.40877 214.618 -3.5
    endloop
  endfacet
  facet normal 0 0 -1
    outer loop
      vertex 1.11022e-15 214 -3.5
      vertex 2.40877 214.618 -3.5
      vertex 2.1289 214.476 -3.5
    endloop
  endfacet
  facet normal 0 0 -1
    outer loop
      vertex 1.11022e-15 214 -3.5
      vertex 2.1289 214.476 -3.5
      vertex 1.84062 214.351 -3.5
    endloop
  endfacet
  facet normal 0 0 -1
    outer loop
      vertex 1.11022e-15 214 -3.5
      vertex 1.84062 214.351 -3.5
      vertex 1.54509 214.245 -3.5
    endloop
  endfacet
  facet normal 0 0 -1
    outer loop
      vertex 1.11022e-15 214 -3.5
      vertex 1.54509 214.245 -3.5
      vertex 1.24345 214.157 -3.5
    endloop
  endfacet
  facet normal 0 0 -1
    outer loop
      vertex 1.11022e-15 214 -3.5
      vertex 1.24345 214.157 -3.5
      vertex 0.936907 214.089 -3.5
    endloop
  endfacet
  facet normal 0 0 -1
    outer loop
      vertex 1.11022e-15 214 -3.5
      vertex 0.936907 214.089 -3.5
      vertex 0.626666 214.039 -3.5
    endloop
  endfacet
  facet normal 0 0 -1
    outer loop
      vertex 1.11022e-15 214 -3.5
      vertex 0.626666 214.039 -3.5
      vertex 0.313953 214.01 -3.5
    endloop
  endfacet
  facet normal 1 0 0
    outer loop
      vertex 2 217 2
      vertex 2 217 40
      vertex 2 2 40
    endloop
  endfacet
  facet normal 1 0 0
    outer loop
      vertex 2 2 2
      vertex 2 217 2
      vertex 2 2 40
    endloop
  endfacet
  facet normal 0 1 0
    outer loop
      vertex 37 2 40
      vertex 37 2 2
      vertex 2 2 40
    endloop
  endfacet
  facet normal 0 1 0
    outer loop
      vertex 2 2 40
      vertex 37 2 2
      vertex 2 2 2
    endloop
  endfacet
  facet normal -1 0 0
    outer loop
      vertex 37 217 40
      vertex 37 217 2
      vertex 37 2 40
    endloop
  endfacet
  facet normal -1 0 0
    outer loop
      vertex 37 2 40
      vertex 37 217 2
      vertex 37 2 2
    endloop
  endfacet
  facet normal 0 -1 0
    outer loop
      vertex 37 217 2
      vertex 37 217 40
      vertex 2 217 40
    endloop
  endfacet
  facet normal 0 -1 0
    outer loop
      vertex 2 217 2
      vertex 37 217 2
      vertex 2 217 40
    endloop
  endfacet
  facet normal 0 0 -1
    outer loop
      vertex 34 1.11022e-15 -3.5
      vertex 34.0099 0.313953 -3.5
      vertex 39 0 -3.5
    endloop
  endfacet
  facet normal 0 0 -1
    outer loop
      vertex 39 0 -3.5
      vertex 34.0099 0.313953 -3.5
      vertex 34.0394 0.626666 -3.5
    endloop
  endfacet
  facet normal 0 0 -1
    outer loop
      vertex 39 0 -3.5
      vertex 34.0394 0.626666 -3.5
      vertex 34.0886 0.936907 -3.5
    endloop
  endfacet
  facet normal 0 0 -1
    outer loop
      vertex 39 0 -3.5
      vertex 34.0886 0.936907 -3.5
      vertex 34.1571 1.24345 -3.5
    endloop
  endfacet
  facet normal 0 0 -1
    outer loop
      vertex 39 0 -3.5
      vertex 34.1571 1.24345 -3.5
      vertex 34.2447 1.54509 -3.5
    endloop
  endfacet
  facet normal 0 0 -1
    outer loop
      vertex 39 0 -3.5
      vertex 34.2447 1.54509 -3.5
      vertex 34.3511 1.84062 -3.5
    endloop
  endfacet
  facet normal 0 0 -1
    outer loop
      vertex 39 0 -3.5
      vertex 34.3511 1.84062 -3.5
      vertex 34.4759 2.1289 -3.5
    endloop
  endfacet
  facet normal 0 0 -1
    outer loop
      vertex 39 0 -3.5
      vertex 34.4759 2.1289 -3.5
      vertex 34.6185 2.40877 -3.5
    endloop
  endfacet
  facet normal 0 0 -1
    outer loop
      vertex 39 0 -3.5
      vertex 34.6185 2.40877 -3.5
      vertex 34.7784 2.67913 -3.5
    endloop
  endfacet
  facet normal 0 0 -1
    outer loop
      vertex 39 0 -3.5
      vertex 34.7784 2.67913 -3.5
      vertex 34.9549 2.93893 -3.5
    endloop
  endfacet
  facet normal 0 0 -1
    outer loop
      vertex 39 0 -3.5
      vertex 34.9549 2.93893 -3.5
      vertex 35.1474 3.18712 -3.5
    endloop
  endfacet
  facet normal 0 0 -1
    outer loop
      vertex 39 0 -3.5
      vertex 35.1474 3.18712 -3.5
      vertex 35.3552 3.42274 -3.5
    endloop
  endfacet
  facet normal 0 0 -1
    outer loop
      vertex 39 0 -3.5
      vertex 35.3552 3.42274 -3.5
      vertex 35.5773 3.64484 -3.5
    endloop
  endfacet
  facet normal 0 0 -1
    outer loop
      vertex 39 0 -3.5
      vertex 35.5773 3.64484 -3.5
      vertex 35.8129 3.85257 -3.5
    endloop
  endfacet
  facet normal 0 0 -1
    outer loop
      vertex 39 0 -3.5
      vertex 35.8129 3.85257 -3.5
      vertex 36.0611 4.04508 -3.5
    endloop
  endfacet
  facet normal 0 0 -1
    outer loop
      vertex 39 0 -3.5
      vertex 36.0611 4.04508 -3.5
      vertex 36.3209 4.22164 -3.5
    endloop
  endfacet
  facet normal 0 0 -1
    outer loop
      vertex 39 0 -3.5
      vertex 36.3209 4.22164 -3.5
      vertex 36.5912 4.38153 -3.5
    endloop
  endfacet
  facet normal 0 0 -1
    outer loop
      vertex 39 0 -3.5
      vertex 36.5912 4.38153 -3.5
      vertex 36.8711 4.52413 -3.5
    endloop
  endfacet
  facet normal 0 0 -1
    outer loop
      vertex 39 0 -3.5
      vertex 36.8711 4.52413 -3.5
      vertex 37.1594 4.64888 -3.5
    endloop
  endfacet
  facet normal 0 0 -1
    outer loop
      vertex 39 0 -3.5
      vertex 37.1594 4.64888 -3.5
      vertex 37.4549 4.75528 -3.5
    endloop
  endfacet
  facet normal 0 0 -1
    outer loop
      vertex 39 0 -3.5
      vertex 37.4549 4.75528 -3.5
      vertex 37.7566 4.84292 -3.5
    endloop
  endfacet
  facet normal 0 0 -1
    outer loop
      vertex 39 0 -3.5
      vertex 37.7566 4.84292 -3.5
      vertex 38.0631 4.91144 -3.5
    endloop
  endfacet
  facet normal 0 0 -1
    outer loop
      vertex 39 0 -3.5
      vertex 38.0631 4.91144 -3.5
      vertex 38.3733 4.96057 -3.5
    endloop
  endfacet
  facet normal 0 0 -1
    outer loop
      vertex 39 0 -3.5
      vertex 38.3733 4.96057 -3.5
      vertex 38.686 4.99013 -3.5
    endloop
  endfacet
  facet normal 0 0 -1
    outer loop
      vertex 39 0 -3.5
      vertex 38.686 4.99013 -3.5
      vertex 39 5 -3.5
    endloop
  endfacet
  facet normal 0 0 -1
    outer loop
      vertex 34 219 -3.5
      vertex 39 219 -3.5
      vertex 34.0099 218.686 -3.5
    endloop
  endfacet
  facet normal 0 0 -1
    outer loop
      vertex 34.0099 218.686 -3.5
      vertex 39 219 -3.5
      vertex 39 214 -3.5
    endloop
  endfacet
  facet normal 0 0 -1
    outer loop
      vertex 34.0099 218.686 -3.5
      vertex 39 214 -3.5
      vertex 38.686 214.01 -3.5
    endloop
  endfacet
  facet normal 0 0 -1
    outer loop
      vertex 34.0099 218.686 -3.5
      vertex 38.686 214.01 -3.5
      vertex 38.3733 214.039 -3.5
    endloop
  endfacet
  facet normal 0 0 -1
    outer loop
      vertex 34.0099 218.686 -3.5
      vertex 38.3733 214.039 -3.5
      vertex 38.0631 214.089 -3.5
    endloop
  endfacet
  facet normal 0 0 -1
    outer loop
      vertex 34.0099 218.686 -3.5
      vertex 38.0631 214.089 -3.5
      vertex 37.7566 214.157 -3.5
    endloop
  endfacet
  facet normal 0 0 -1
    outer loop
      vertex 34.0099 218.686 -3.5
      vertex 37.7566 214.157 -3.5
      vertex 37.4549 214.245 -3.5
    endloop
  endfacet
  facet normal 0 0 -1
    outer loop
      vertex 34.0099 218.686 -3.5
      vertex 37.4549 214.245 -3.5
      vertex 37.1594 214.351 -3.5
    endloop
  endfacet
  facet normal 0 0 -1
    outer loop
      vertex 34.0099 218.686 -3.5
      vertex 37.1594 214.351 -3.5
      vertex 36.8711 214.476 -3.5
    endloop
  endfacet
  facet normal 0 0 -1
    outer loop
      vertex 34.0099 218.686 -3.5
      vertex 36.8711 214.476 -3.5
      vertex 36.5912 214.618 -3.5
    endloop
  endfacet
  facet normal 0 0 -1
    outer loop
      vertex 34.0099 218.686 -3.5
      vertex 36.5912 214.618 -3.5
      vertex 36.3209 214.778 -3.5
    endloop
  endfacet
  facet normal 0 0 -1
    outer loop
      vertex 34.0099 218.686 -3.5
      vertex 36.3209 214.778 -3.5
      vertex 36.0611 214.955 -3.5
    endloop
  endfacet
  facet normal 0 0 -1
    outer loop
      vertex 34.0099 218.686 -3.5
      vertex 36.0611 214.955 -3.5
      vertex 35.8129 215.147 -3.5
    endloop
  endfacet
  facet normal 0 0 -1
    outer loop
      vertex 34.0099 218.686 -3.5
      vertex 35.8129 215.147 -3.5
      vertex 35.5773 215.355 -3.5
    endloop
  endfacet
  facet normal 0 0 -1
    outer loop
      vertex 34.0099 218.686 -3.5
      vertex 35.5773 215.355 -3.5
      vertex 35.3552 215.577 -3.5
    endloop
  endfacet
  facet normal 0 0 -1
    outer loop
      vertex 34.0099 218.686 -3.5
      vertex 35.3552 215.577 -3.5
      vertex 35.1474 215.813 -3.5
    endloop
  endfacet
  facet normal 0 0 -1
    outer loop
      vertex 34.0099 218.686 -3.5
      vertex 35.1474 215.813 -3.5
      vertex 34.9549 216.061 -3.5
    endloop
  endfacet
  facet normal 0 0 -1
    outer loop
      vertex 34.0099 218.686 -3.5
      vertex 34.9549 216.061 -3.5
      vertex 34.7784 216.321 -3.5
    endloop
  endfacet
  facet normal 0 0 -1
    outer loop
      vertex 34.0099 218.686 -3.5
      vertex 34.7784 216.321 -3.5
      vertex 34.6185 216.591 -3.5
    endloop
  endfacet
  facet normal 0 0 -1
    outer loop
      vertex 34.0099 218.686 -3.5
      vertex 34.6185 216.591 -3.5
      vertex 34.4759 216.871 -3.5
    endloop
  endfacet
  facet normal 0 0 -1
    outer loop
      vertex 34.0099 218.686 -3.5
      vertex 34.4759 216.871 -3.5
      vertex 34.3511 217.159 -3.5
    endloop
  endfacet
  facet normal 0 0 -1
    outer loop
      vertex 34.0099 218.686 -3.5
      vertex 34.3511 217.159 -3.5
      vertex 34.2447 217.455 -3.5
    endloop
  endfacet
  facet normal 0 0 -1
    outer loop
      vertex 34.0099 218.686 -3.5
      vertex 34.2447 217.455 -3.5
      vertex 34.1571 217.757 -3.5
    endloop
  endfacet
  facet normal 0 0 -1
    outer loop
      vertex 34.0099 218.686 -3.5
      vertex 34.1571 217.757 -3.5
      vertex 34.0886 218.063 -3.5
    endloop
  endfacet
  facet normal 0 0 -1
    outer loop
      vertex 34.0099 218.686 -3.5
      vertex 34.0886 218.063 -3.5
      vertex 34.0394 218.373 -3.5
    endloop
  endfacet
  facet normal 0 0 1
    outer loop
      vertex 37 2 2
      vertex 37 217 2
      vertex 2 217 2
    endloop
  endfacet
  facet normal 0 0 1
    outer loop
      vertex 2 2 2
      vertex 37 2 2
      vertex 2 217 2
    endloop
  endfacet
endsolid OpenSCAD_Model
